<svg width="3940" height="1896" viewBox="0 0 3940 1896" fill="none" xmlns="http://www.w3.org/2000/svg">
<path d="M3799.98 0.994004C3797.47 2.38914 3796.28 5.73748 3795.35 13.2015C3794.43 21.2933 3792.91 25.1299 3787.62 32.2451C3785.18 35.5237 3783.39 38.7325 3783.13 40.1974C3782.67 42.7784 3783.06 43.755 3787.69 52.2654C3789.54 55.7532 3789.74 56.6601 3789.74 61.6826C3789.67 69.6349 3787.82 74.3784 3782.53 79.9589C3777.38 85.4 3774.87 86.2371 3768.79 84.6326C3765.42 83.7956 3764.03 83.7258 3761.79 84.3536C3758.09 85.4 3754.78 88.6088 3753.4 92.5849C3751.94 96.7704 3751.22 97.5377 3746.99 99.7002C3741.97 102.281 3741.04 104.444 3741.44 113.303C3741.77 120.558 3743.49 127.324 3745.67 129.835C3746.46 130.742 3746.72 132.207 3746.59 135.276C3746.53 137.857 3746.86 140.159 3747.45 141.415C3748.38 143.229 3749.37 143.926 3753.46 145.391C3754.65 145.81 3754.59 146.019 3752.47 147.902C3747.05 152.785 3738.73 155.785 3728.62 156.552C3721.35 157.04 3716.79 157.877 3710.58 159.831C3704.37 161.714 3695.65 165.272 3695.65 165.9C3695.65 166.876 3702.66 168.202 3709.92 168.55L3717.32 168.969L3715.67 171.48C3714.15 173.782 3714.02 174.41 3714.35 180.06L3714.75 186.059L3710.72 189.756C3706.55 193.523 3703.58 198.825 3703.58 202.313C3703.58 205.452 3702.26 206.359 3695.32 207.963C3689.51 209.358 3686.86 209.498 3672.86 209.428C3662.68 209.428 3654.62 209.009 3650.39 208.382C3646.76 207.824 3643.66 207.405 3643.52 207.544C3643.39 207.684 3644.32 209.428 3645.57 211.451C3656.08 227.983 3678.34 239.284 3704.11 241.098C3707.41 241.307 3710.19 241.725 3710.19 241.935C3710.19 242.772 3691.69 254.63 3683.43 259.165C3673.39 264.675 3662.75 269.07 3651.39 272.558C3646.5 274.093 3641.34 275.767 3639.96 276.395C3635.93 278.208 3626.87 284.696 3612.73 295.927C3596.02 309.18 3588.82 314.203 3579.37 319.016C3568.8 324.387 3561.79 326.41 3551.62 327.038L3543.36 327.527L3548.98 330.456C3565.89 339.246 3586.9 338.757 3606.39 329.131C3609.43 327.666 3612.07 326.55 3612.21 326.689C3612.34 326.829 3609.63 329.759 3606.19 333.177C3600.05 339.315 3594.3 344.198 3580.69 354.802C3572.83 360.94 3571.97 362.545 3575.54 364.498C3578.91 366.311 3586.5 366.032 3592.78 363.8C3598.13 361.917 3606.13 357.871 3609.3 355.569C3611.41 353.964 3611.35 353.197 3610.36 365.195C3609.63 374.892 3610.03 382.007 3611.41 384.03C3613.26 386.68 3628.06 385.913 3632.75 382.914C3633.88 382.216 3635.99 379.705 3637.44 377.403C3638.96 375.101 3640.68 372.869 3641.34 372.59C3641.94 372.241 3644.78 371.752 3647.55 371.613C3652.05 371.334 3653.17 370.915 3656.74 368.613C3660.5 366.172 3660.97 366.032 3664.47 366.451C3677.15 367.846 3676.03 367.986 3681.25 365.335C3683.89 364.009 3688.85 361.08 3692.22 358.917C3695.65 356.755 3698.69 354.871 3699.09 354.802C3699.42 354.732 3700.28 356.266 3701 358.15C3701.66 360.103 3703.78 363.661 3705.63 366.102C3712.37 374.961 3712.76 377.054 3709.53 385.146C3706.42 392.819 3702.13 399.097 3697.11 403.213C3690.63 408.584 3687.92 411.374 3685.08 415.699C3680.65 422.536 3673.65 427.698 3657 436.278C3639.36 445.416 3622.18 451.624 3603.55 455.67C3597.47 456.926 3594.04 457.205 3583.86 457.205H3571.51L3572.83 458.67C3574.94 461.041 3581.55 463.832 3588.49 465.366C3593.18 466.343 3597.8 466.761 3605.6 466.831C3611.55 466.901 3616.37 467.18 3616.37 467.459C3616.37 467.668 3614.98 469.203 3613.26 470.807C3599.12 483.991 3580.43 490.2 3560.61 488.247C3551.55 487.34 3542.04 485.666 3523.14 481.55C3498.5 476.248 3486.41 474.923 3475.24 476.248C3468.64 477.086 3459.78 479.108 3459.78 479.876C3459.78 480.155 3461.63 480.573 3463.81 480.852C3472.27 481.759 3488.46 488.805 3496.98 495.292L3500.61 498.013L3500.88 502.686C3501.01 505.337 3501.34 507.918 3501.61 508.546C3502.07 509.523 3500.94 509.732 3492.36 510.081C3482.31 510.499 3474.32 511.755 3470.35 513.568L3468.04 514.545L3471.35 515.033C3491.83 518.103 3496.85 519.847 3506.23 526.962C3508.08 528.287 3511.85 530.101 3515.15 531.217C3521.82 533.379 3526.32 535.612 3528.17 537.774C3531.53 541.681 3539.27 544.052 3548.98 544.052C3558.16 544.052 3569.79 548.238 3575.74 553.539C3577.65 555.353 3577.65 555.353 3576.07 554.934C3563.25 551.726 3543.36 553.19 3528.83 558.352C3519.25 561.701 3512.24 566.095 3506.23 572.374C3500.88 577.884 3499.49 580.117 3501.94 579.349C3502.53 579.14 3505.64 578.652 3508.87 578.163C3516.93 577.117 3522.81 578.094 3540.59 583.465C3558.09 588.697 3571.64 591.766 3584.32 593.231C3589.41 593.859 3596.09 594.696 3599.19 595.184C3602.3 595.672 3607.52 596.021 3610.75 596.021C3615.91 595.951 3617.16 595.742 3620.07 594.138C3621.92 593.091 3624.36 591.417 3625.55 590.371C3626.74 589.394 3627.73 588.627 3627.86 588.766C3627.93 588.906 3628.39 590.301 3628.79 591.836C3629.19 593.37 3630.57 595.742 3631.89 597.068C3633.88 599.091 3634.74 599.439 3638.11 599.718C3642.6 600.067 3646.1 599.021 3649.34 596.51C3651.25 594.975 3652.38 594.696 3656.6 594.626C3662.95 594.487 3665.99 592.882 3670.35 587.511C3678.87 576.838 3681.38 575.094 3684.02 578.094C3684.62 578.791 3686.27 582.349 3687.72 585.906C3690.83 593.51 3690.89 593.161 3684.35 599.928C3679.73 604.741 3677.61 608.508 3674.44 617.437C3671.21 626.435 3669.95 628.598 3667.18 629.923C3660.57 633.271 3633.94 639.55 3613.06 642.689C3589.54 646.246 3579.7 646.874 3549.64 646.944C3521.03 646.944 3510.13 646.246 3491.89 643.386C3488.33 642.828 3485.29 642.479 3485.15 642.619C3484.69 643.107 3495.59 650.222 3500.42 652.594C3510.46 657.477 3529.29 663.127 3539.93 664.453C3542.04 664.732 3543.89 665.15 3544.02 665.429C3544.55 666.267 3510.06 670.87 3491.89 672.405C3480.66 673.312 3460.51 673.312 3454.04 672.335C3450.93 671.917 3445.64 670.243 3440.62 668.22C3436.06 666.406 3430.71 664.383 3428.73 663.755C3423.78 662.29 3416.11 661.174 3415.05 661.872C3413.73 662.639 3418.82 670.452 3422.52 673.242C3425.76 675.684 3425.76 675.684 3424.44 677.567C3422.19 680.636 3423.64 686.636 3427.61 691.03C3428.73 692.286 3429.52 693.472 3429.33 693.611C3428.93 694.03 3418.49 691.1 3410.43 688.31C3406.66 686.984 3403.62 686.147 3403.62 686.426C3403.62 686.705 3405.54 688.728 3407.85 691.03C3421.86 704.912 3438.38 714.399 3459.65 720.816L3467.32 723.188L3464.74 724.304C3455.62 728.35 3439.37 732.954 3426.68 735.186C3418.62 736.582 3403.16 737.209 3401.44 736.163C3400.92 735.814 3400.85 735.884 3401.31 736.442C3402.57 737.837 3419.81 748.51 3428.07 752.905C3449.61 764.484 3472.47 772.576 3495 776.622C3511.98 779.691 3518.45 780.18 3541.31 780.11H3563.05L3560.14 782.83C3542.97 799.084 3522.22 808.641 3497.77 811.57L3490.51 812.407L3493.74 813.942C3507.22 820.29 3530.41 823.08 3553.21 821.057C3558.23 820.639 3562.46 820.36 3562.59 820.499C3562.72 820.639 3556.97 823.359 3549.84 826.638C3534.84 833.404 3534.84 833.614 3551.29 832.149C3576.59 829.986 3597.27 825.103 3611.28 817.918L3617.03 814.919L3613.92 818.476C3604.41 829.358 3590.93 839.194 3579.5 843.659C3577.12 844.565 3577.19 844.635 3582.87 844.635C3596.88 844.775 3612.21 841.636 3626.94 835.706C3630.44 834.311 3630.51 834.311 3628.92 835.637C3622.25 841.147 3593.77 862.493 3589.81 864.934C3575.14 873.863 3564.24 875.747 3530.35 875.189C3503.79 874.77 3490.57 872.956 3465.99 866.33C3449.28 861.865 3422.52 851.96 3412.87 846.798C3411.35 845.961 3409.97 845.472 3409.77 845.612C3409.31 846.17 3416.84 855.099 3422.52 860.679C3438.97 876.933 3459.65 888.791 3477.29 892.279C3479.67 892.698 3481.59 893.256 3481.59 893.535C3481.59 894.302 3472.01 896.325 3463.15 897.371C3433.69 900.859 3398.01 898.139 3355.72 889.28C3334.65 884.885 3312.84 878.467 3305.58 874.561L3303 873.166L3305.05 875.886C3312.05 885.303 3331.28 901.487 3349.71 913.695L3358.04 919.205L3350.97 922.205C3342.05 925.832 3330.95 928.832 3323.68 929.529L3318.06 930.018L3321.37 931.622C3326.26 934.064 3330.75 934.831 3338.55 934.552C3342.38 934.412 3345.48 934.412 3345.48 934.552C3345.48 934.831 3324.94 969.779 3324.08 970.895C3323.15 972.151 3326.79 971.802 3342.84 969.151C3378.45 963.362 3411.35 953.665 3430.91 943.341C3433.36 942.016 3435.34 941.179 3435.34 941.388C3435.34 942.365 3426.62 953.526 3421.99 958.479C3399.73 982.266 3363.92 1003.82 3319.05 1020.28C3313.44 1022.31 3308.35 1024.19 3307.82 1024.4C3305.58 1025.38 3319.78 1029.21 3332.27 1031.1C3341.19 1032.42 3371.05 1032.21 3382.15 1030.75C3386.84 1030.12 3390.74 1029.7 3390.87 1029.84C3390.94 1029.91 3381.82 1035.42 3370.59 1042.05C3359.29 1048.74 3350.11 1054.32 3350.11 1054.53C3350.11 1054.95 3358.3 1054.12 3365.96 1052.86C3380.7 1050.42 3394.9 1046.58 3411.55 1040.58C3434.81 1032.21 3456.68 1020.7 3500.75 993.636C3521.16 981.15 3536.09 973.337 3546.86 969.57C3551.62 967.896 3555.78 966.71 3555.98 966.989C3556.71 967.687 3551.75 976.267 3546.07 984.219C3523.21 1016.38 3494.47 1039.4 3470.22 1045.19C3468.77 1045.54 3468.37 1046.02 3468.37 1047.42C3468.37 1049.93 3469.89 1053.35 3472.34 1056.35C3474.38 1058.79 3474.45 1058.93 3473.26 1059.91C3470.95 1061.72 3454.89 1069.95 3450.93 1071.28C3445.71 1073.09 3447.36 1073.65 3458.33 1073.65C3474.91 1073.58 3484.3 1070.93 3525.52 1054.67C3533.19 1051.6 3543.89 1047.28 3549.31 1045.05C3554.79 1042.75 3559.35 1041 3559.48 1041.14C3560.01 1041.63 3549.64 1053.91 3540.39 1063.81C3529.69 1075.25 3524.53 1079.72 3500.81 1097.99C3491.69 1105.04 3484.36 1110.83 3484.43 1110.97C3484.56 1111.04 3485.75 1110.83 3487.2 1110.48C3491.63 1109.36 3497.44 1109.71 3505.7 1111.53C3510.06 1112.5 3517.53 1113.62 3522.22 1114.04C3533.72 1115.01 3535.63 1115.36 3534.44 1116.06C3529.95 1118.71 3497.11 1129.73 3482.91 1133.43C3462.1 1138.8 3448.82 1140.2 3435.21 1138.59C3423.05 1137.13 3397.61 1136.92 3389.88 1138.31L3384.33 1139.29L3387.24 1142.36C3388.82 1144.03 3392.26 1146.54 3394.9 1147.94C3399.26 1150.24 3400.39 1150.52 3407.46 1151.01C3411.68 1151.29 3416.31 1151.84 3417.63 1152.26C3422.19 1153.73 3426.22 1157.29 3429.06 1162.24C3432.5 1168.24 3434.61 1170.61 3439.24 1173.19C3452.19 1180.45 3479.14 1184.42 3498.76 1181.98C3500.22 1181.77 3500.68 1181.91 3500.09 1182.26C3499.09 1182.89 3485.09 1185.12 3473.66 1186.51C3462.76 1187.84 3454.37 1189.37 3449.01 1190.84C3444.12 1192.16 3441.88 1193.49 3444.39 1193.49C3445.05 1193.49 3449.01 1194.75 3453.18 1196.28C3465.8 1200.95 3469.89 1201.02 3494.47 1197.33C3535.96 1190.98 3574.35 1178.42 3605.67 1160.98C3609.43 1158.89 3612.6 1157.22 3612.8 1157.22C3613.59 1157.22 3606.46 1166.15 3602.82 1169.63C3590.93 1181.07 3577.06 1188.61 3553.14 1196.63C3546.66 1198.79 3538.14 1202 3534.11 1203.74C3525.92 1207.23 3509.86 1215.81 3507.35 1217.97L3505.7 1219.37L3508.67 1218.95C3517.33 1217.77 3527.11 1217.28 3540.85 1217.21C3558.03 1217.21 3564.97 1216.44 3581.81 1212.6C3602.89 1207.86 3629.52 1199 3652.77 1188.96C3659.45 1186.1 3664.93 1183.86 3665.06 1184C3665.59 1184.56 3653.37 1196 3646.69 1201.3C3642.73 1204.44 3639.62 1207.09 3639.76 1207.23C3640.09 1207.58 3658.52 1200.81 3670.02 1196.07C3679.93 1191.96 3690.63 1187.07 3703.78 1180.65C3707.68 1178.77 3708.73 1178.42 3708.27 1179.4C3706.62 1182.68 3690.43 1202.28 3678.87 1214.91C3675.63 1218.46 3673.19 1221.39 3673.39 1221.39C3673.58 1221.39 3677.88 1218.67 3682.9 1215.32C3712.24 1195.86 3730.21 1186.65 3759.28 1176.12L3768.99 1172.63L3769.06 1178.35C3769.06 1181.49 3769.32 1197.88 3769.58 1214.77C3769.91 1231.65 3770.05 1245.53 3769.98 1245.67C3769.91 1245.74 3740.91 1247.55 3705.5 1249.64C3599.65 1255.92 3594.24 1256.27 3585.05 1258.08C3582.08 1258.64 3578.51 1259.76 3576.99 1260.53C3574.22 1261.92 3572.17 1264.99 3573.29 1266.18C3573.62 1266.53 3580.43 1267.15 3588.35 1267.57C3612.21 1268.76 3767.21 1267.5 3857.85 1265.34C3874.97 1264.92 3901.99 1264.29 3917.98 1263.94C4009.55 1261.78 4073.11 1259.13 4079.05 1257.25C4082.16 1256.27 4078.66 1251.95 4073.5 1250.41C4065.31 1247.9 4055 1247.41 3959.6 1245.46C3931.26 1244.9 3902.38 1244.2 3895.45 1243.99L3882.76 1243.58L3882.36 1233.67C3882.17 1228.3 3881.77 1211.84 3881.57 1197.19L3881.11 1170.54L3886.66 1172.28C3919.89 1182.82 3936.15 1190.28 3967.2 1209.19C3971.76 1211.91 3976.18 1214.63 3977.11 1215.11C3978.03 1215.6 3972.62 1209.46 3965.15 1201.44C3952.07 1187.42 3941.17 1174.73 3941.63 1174.17C3941.76 1174.03 3943.61 1174.8 3945.79 1175.77C3952.66 1178.98 3971.89 1186.93 3980.74 1190.21C3992.44 1194.54 4010.34 1200.47 4011.8 1200.47C4012.13 1200.47 4009.75 1198.58 4006.58 1196.28C3995.48 1188.26 3982 1176.19 3986.03 1177.79C3986.75 1178.07 3991.05 1179.82 3995.61 1181.63C4027.72 1194.54 4065.97 1204.44 4092.07 1206.74C4097.88 1207.23 4104.03 1207.23 4112.88 1206.67C4122 1206.05 4128.14 1206.05 4135.35 1206.6C4140.76 1207.02 4145.32 1207.23 4145.45 1207.09C4145.92 1206.67 4135.81 1201.16 4127.75 1197.47C4118.89 1193.42 4107.07 1189.16 4096.36 1186.1C4072.12 1179.26 4055.2 1169.98 4042.72 1156.73C4039.35 1153.1 4036.57 1149.89 4036.57 1149.54C4036.57 1149.12 4039.21 1150.24 4042.39 1151.91C4071.92 1167.61 4112.35 1179.54 4151.86 1184.35C4181.2 1187.98 4184.37 1187.84 4196.79 1182.75C4200.82 1181.07 4204.98 1179.54 4206.04 1179.19L4208.02 1178.7L4205.05 1177.72C4199.76 1176.05 4190.51 1174.66 4174.66 1173.26C4160.58 1171.93 4150.87 1170.75 4150.41 1170.19C4150.28 1170.05 4155.03 1169.98 4160.91 1169.91C4172.67 1169.84 4182.39 1168.59 4192.83 1165.87C4207.03 1162.03 4214.43 1157.77 4218.4 1151.08C4219.58 1149.05 4221.3 1146.19 4222.23 1144.66C4225.66 1138.94 4232.01 1136.08 4243.5 1134.96C4251.1 1134.27 4255.06 1132.45 4260.55 1127.22C4263.45 1124.5 4263.98 1123.66 4263.26 1123.11C4260.42 1121.15 4229.63 1121.36 4218.59 1123.45C4210.27 1124.99 4196.39 1125.48 4187.67 1124.5C4178.09 1123.38 4157.15 1118.92 4144.6 1115.29C4132.11 1111.66 4113.74 1105.67 4113.01 1104.97C4112.68 1104.62 4114.67 1104.2 4117.31 1103.92C4126.23 1103.02 4135.94 1101.34 4142.61 1099.53C4149.42 1097.64 4158.4 1097.02 4162.43 1098.13C4163.56 1098.48 4159.06 1094.92 4152.52 1090.18C4118.37 1065.76 4111.63 1060.11 4095.44 1042.4C4089.96 1036.33 4085.6 1031.3 4085.73 1031.17C4085.86 1031.03 4093.13 1033.61 4101.98 1036.82C4122.26 1044.35 4151.2 1054.25 4159.39 1056.42C4170.1 1059.35 4179.35 1060.46 4188.53 1060.04C4193.09 1059.84 4197.52 1059.35 4198.44 1059C4200.09 1058.23 4200.09 1058.23 4198.57 1058.23C4196.46 1058.16 4186.35 1053.91 4178.29 1049.72L4171.35 1046.09L4173.4 1043.65C4175.85 1040.72 4177.3 1037.37 4177.3 1034.51C4177.3 1032.56 4177.1 1032.42 4173.53 1031.58C4154.7 1027.47 4133.43 1013.38 4112.22 990.916C4102.24 980.382 4093.26 969.012 4089.23 961.827C4086.26 956.525 4086.52 956.316 4093.79 958.409C4106.41 962.036 4120.94 968.942 4145.92 983.173C4174.99 999.705 4196.06 1010.52 4213.31 1017.7C4237.75 1027.89 4266.63 1035.07 4290.61 1036.89L4296.56 1037.3L4293.91 1035.7C4292.46 1034.79 4282.88 1029.49 4272.64 1023.98C4262.4 1018.4 4254.14 1013.8 4254.2 1013.73C4254.27 1013.59 4258.5 1013.87 4263.59 1014.28C4273.83 1015.19 4299.4 1014.7 4307.79 1013.52C4316.18 1012.33 4325.63 1010.17 4332.43 1007.8L4338.77 1005.7L4328.2 1002.36C4273.43 984.847 4229.63 958.409 4209.48 930.646L4206.3 926.321L4210.14 928.134C4233.66 939.226 4266.69 947.527 4304.15 951.782C4309.44 952.34 4315.06 953.038 4316.64 953.247C4318.89 953.526 4319.35 953.456 4318.95 952.689C4318.69 952.2 4313.47 943.83 4307.32 934.133L4296.23 916.555H4303.36C4311.02 916.555 4316.31 915.439 4320.87 912.927L4323.64 911.393L4317.57 910.904C4307.92 910.137 4294.97 906.858 4285.92 902.882L4283.54 901.836L4292.53 895.418C4297.48 891.861 4304.68 886.28 4308.65 883.071C4315.72 877.212 4336.99 855.447 4336.33 854.75C4336.13 854.541 4334.74 855.029 4333.22 855.866C4315.78 865.283 4268.01 877.491 4229.16 882.513C4212.65 884.676 4177.63 884.815 4166.2 882.792C4162.1 882.095 4158.67 881.258 4158.47 880.979C4158.27 880.7 4159.39 880.281 4160.85 880.002C4164.55 879.374 4175.25 875.677 4180.41 873.236C4186.62 870.306 4196.13 864.237 4202.54 859.214C4211.13 852.378 4226.06 836.543 4229.1 830.963C4229.36 830.474 4226.65 831.521 4223.09 833.265C4191.77 848.681 4158.54 859.214 4129.07 863.191C4115.66 864.934 4092.07 865.841 4080.9 864.934C4066.96 863.888 4059.83 861.865 4048.73 855.727C4045.82 854.122 4009.48 828.731 4007.83 827.196C4007.5 826.847 4009.15 827.335 4011.46 828.312C4022.7 832.986 4037.43 835.637 4052.3 835.637L4062.01 835.567L4057.58 833.893C4051.37 831.591 4043.24 826.987 4037.17 822.452C4031.35 818.058 4022.04 809.338 4022.04 808.362C4022.04 808.013 4023.23 808.362 4024.61 809.129C4038.69 816.663 4073.24 823.08 4095.84 822.243L4101.91 822.034L4089.23 816.872C4082.23 814.012 4076.35 811.501 4076.08 811.291C4075.82 811.082 4083.88 810.873 4093.92 810.873C4109.97 810.803 4113.28 810.663 4120.81 809.199C4130.19 807.455 4138.98 804.664 4144.4 801.665L4147.9 799.712L4139.31 799.293C4134.62 799.084 4128.21 798.317 4125.1 797.619C4108.06 793.992 4090.88 785.411 4077.73 773.971L4073.64 770.414L4092.27 769.995C4102.51 769.716 4113.87 769.158 4117.51 768.74C4151.6 764.554 4180.6 754.579 4210.67 736.721C4216.28 733.373 4234.25 721.165 4233.99 720.886C4233.86 720.747 4231.87 721.026 4229.49 721.375C4221.96 722.491 4205.58 720.816 4190.84 717.329C4177.76 714.259 4164.35 709.376 4169.04 709.376C4170.69 709.376 4183.58 704.633 4189.99 701.633C4201.61 696.262 4214.1 687.612 4223.09 678.683C4225.53 676.242 4228.17 673.382 4228.9 672.335L4230.22 670.382L4225.73 672.196C4220.97 674.079 4209.34 678.125 4206.17 678.962L4204.32 679.451L4206.63 676.172C4210.4 671.01 4211.26 665.081 4208.62 662.36C4207.82 661.453 4208.15 660.825 4211.33 657.686C4214.76 654.199 4218.26 649.037 4218.26 647.223C4218.26 645.967 4211.59 646.874 4204.98 649.106C4201.94 650.083 4196.13 652.455 4192.1 654.338C4180.67 659.57 4176.37 660.198 4152.19 660.128C4138.78 660.128 4127.62 659.709 4118.89 658.872C4102.24 657.338 4089.36 655.873 4088.96 655.384C4088.77 655.175 4089.76 654.826 4091.15 654.617C4102.97 652.524 4118.76 647.362 4128.94 642.34C4135.87 638.922 4143.74 633.83 4145.85 631.388C4146.97 629.993 4146.97 629.993 4144.46 630.551C4139.84 631.667 4119.62 634.667 4108.26 635.922C4094.05 637.527 4043.71 637.736 4028.97 636.271C3998.71 633.271 3966.08 626.714 3962.18 622.808C3961.38 622.041 3959.6 618.483 3958.28 614.995C3954.38 604.88 3951.87 600.625 3946.12 594.626C3943.15 591.557 3940.77 588.557 3940.77 587.999C3940.77 586.813 3944.34 576.14 3945.46 573.908C3946.45 571.955 3948.7 571.257 3950.75 572.374C3951.67 572.862 3954.91 576.071 3957.88 579.559C3964.62 587.371 3967 588.697 3974.27 588.697C3978.56 588.697 3979.88 588.976 3981.27 590.092C3983.58 592.045 3987.94 593.58 3991.12 593.58C3996.4 593.58 4000.17 590.51 4001.69 584.93C4002.08 583.395 4002.55 581.93 4002.68 581.791C4002.74 581.651 4003.93 582.419 4005.25 583.465C4011.73 588.697 4018.4 589.743 4029.37 587.302C4032.81 586.534 4036.64 585.906 4038.02 585.906C4045.82 585.906 4071.59 579.628 4088.17 573.699C4107.4 566.863 4114.34 565.537 4124.05 567.002C4126.95 567.421 4129.4 567.63 4129.53 567.491C4130.13 566.863 4122.59 559.12 4118.56 556.329C4102.71 545.168 4074.3 540.425 4055.2 545.657C4051.83 546.633 4051.77 546.633 4052.82 545.308C4055.14 542.657 4061.41 538.82 4066.7 536.937C4070.53 535.542 4074.83 534.705 4081.76 533.937C4092.66 532.821 4095.37 531.845 4100.2 527.38C4103.96 524.032 4106.41 522.567 4113.08 520.056C4119.29 517.754 4120.94 516.777 4124.51 513.638C4130.06 508.685 4138.12 505.686 4153.05 502.965C4159.53 501.78 4159.73 501.64 4157.81 500.803C4153.85 499.059 4143.47 497.873 4134.49 498.152C4125.9 498.431 4125.7 498.361 4126.16 496.966C4126.43 496.199 4126.69 493.618 4126.82 491.176C4127.02 486.014 4127.42 485.387 4133.56 481.062C4142.68 474.644 4156.09 468.715 4163.89 467.599C4165.8 467.389 4167.19 466.901 4167.06 466.622C4166.33 465.366 4154.11 463.692 4145.59 463.692C4133.1 463.762 4128.14 464.599 4100.66 471.575C4063.4 480.992 4049.85 481.62 4032.28 474.923C4025.34 472.272 4017.87 467.599 4013.38 463.204L4009.81 459.716L4014.97 459.646C4031.55 459.577 4046.94 455.67 4053.09 449.88L4055.4 447.718L4053.42 448.136C4047.67 449.322 4033.27 449.322 4025.01 448.136C4000.76 444.718 3967.99 432.72 3950.35 420.792C3944.73 416.955 3942.82 415.141 3938.99 409.91C3937.27 407.608 3933.37 403.771 3929.94 401.12C3922.34 395.191 3919.17 391.424 3915.4 383.611C3911.3 375.38 3911.04 372.45 3913.68 367.916C3914.81 365.963 3916.72 363.103 3917.98 361.428C3919.23 359.824 3920.88 356.615 3921.68 354.313C3922.47 352.011 3923.2 350.128 3923.26 350.128C3923.33 350.128 3926.37 351.941 3929.94 354.104C3938.52 359.336 3945.86 362.684 3948.7 362.684C3949.95 362.684 3952.66 362.196 3954.65 361.638C3960.06 360.103 3962.11 360.312 3966.93 363.033C3970.77 365.195 3971.82 365.474 3976.25 365.474C3981.73 365.474 3981.73 365.474 3988.34 373.775C3990.39 376.356 3991.18 376.775 3995.28 377.682C4001.16 379.007 4007.57 379.007 4010.41 377.752C4012.06 377.054 4012.72 376.217 4013.05 374.543C4013.65 371.055 4013.51 365.265 4012.46 356.057C4011.93 351.523 4011.6 347.617 4011.73 347.547C4011.86 347.407 4014.37 348.593 4017.28 350.128C4020.25 351.732 4024.81 353.825 4027.45 354.732C4036.44 358.08 4048.2 357.662 4049.52 353.964C4050.12 352.36 4049.06 351.383 4038.95 344.059C4027.39 335.758 4017.54 327.666 4012.85 322.644L4009.22 318.807L4014.64 321.248C4017.54 322.574 4022.9 324.527 4026.46 325.504C4032.28 327.178 4034.13 327.387 4044.5 327.387C4057.78 327.457 4060.89 326.829 4070.6 321.876C4080.05 317.133 4080.11 316.923 4071.98 317.202C4052.49 317.97 4037.69 310.924 4000.23 282.952C3987.55 273.395 3980.68 269.768 3970.3 267.117C3956.36 263.49 3944.73 259.095 3932.51 252.677C3925.24 248.91 3909.06 239.005 3909.06 238.447C3909.06 238.168 3911.04 237.749 3913.55 237.47C3939.12 234.75 3961.25 222.961 3971.56 206.638C3975.26 200.708 3975.46 200.918 3967.33 202.313C3947.51 205.661 3929.67 205.801 3917.84 202.731C3914.87 201.894 3914.74 201.824 3914.01 198.337C3912.89 193.175 3910.18 188.71 3906.55 186.129C3902.05 182.92 3901.92 182.641 3902.65 178.107C3903.38 173.433 3902.52 169.457 3900.14 166.946L3898.55 165.272H3902.71C3907.54 165.272 3917.78 163.528 3919.83 162.342C3921.15 161.644 3920.88 161.435 3916.99 159.9C3907.87 156.273 3898.09 154.111 3887.65 153.413C3882.17 153.064 3876.48 152.436 3875.03 151.948C3871.73 150.972 3865.85 147.832 3862.87 145.461L3860.69 143.717L3863.34 142.949C3867.43 141.833 3868.82 139.462 3868.69 133.951C3868.62 130.323 3868.89 128.859 3869.94 126.905C3872.12 123.208 3873.58 115.256 3873.31 108.49C3872.98 101.235 3871.86 99.2816 3866.71 97.2587C3863.34 95.9333 3863.01 95.5147 3860.89 91.0503C3857.92 84.8419 3854.95 82.6097 3849.66 82.6097C3847.61 82.6097 3844.57 83.098 3842.92 83.5863C3840.15 84.4931 3839.55 84.4931 3836.64 83.3073C3832.48 81.6331 3827.86 76.6803 3825.48 71.4486C3823.96 68.17 3823.56 66.0075 3823.3 61.3338L3823.03 55.4045L3826.07 49.3356C3830.5 40.4765 3830.17 38.5233 3823.17 29.9432C3818.74 24.5719 3817.35 21.363 3816.23 14.0386C3814.97 5.80724 3813.59 2.24963 3811.21 0.994004C3808.83 -0.331379 3802.22 -0.331379 3799.98 0.994004Z" fill="url(#paint0_linear_248_3498)"/>
<path d="M3512.8 392.972C3510.35 394.336 3509.19 397.609 3508.28 404.905C3507.38 412.815 3505.89 416.565 3500.73 423.52C3498.34 426.725 3496.59 429.862 3496.33 431.294C3495.88 433.817 3496.27 434.772 3500.79 443.091C3502.6 446.5 3502.79 447.386 3502.79 452.296C3502.73 460.07 3500.92 464.706 3495.75 470.162C3490.72 475.48 3488.26 476.299 3482.32 474.73C3479.03 473.912 3477.67 473.844 3475.47 474.457C3471.86 475.48 3468.63 478.617 3467.27 482.504C3465.85 486.595 3465.14 487.345 3461.01 489.459C3456.1 491.982 3455.19 494.096 3455.58 502.756C3455.9 509.847 3457.58 516.462 3459.72 518.917C3460.49 519.803 3460.75 521.235 3460.62 524.235C3460.55 526.758 3460.88 529.008 3461.46 530.236C3462.36 532.009 3463.33 532.691 3467.34 534.123C3468.5 534.532 3468.43 534.736 3466.37 536.577C3461.07 541.351 3452.93 544.283 3443.05 545.033C3435.95 545.51 3431.49 546.328 3425.42 548.238C3419.35 550.079 3410.82 553.556 3410.82 554.17C3410.82 555.125 3417.67 556.42 3424.77 556.761L3432.01 557.17L3430.39 559.625C3428.91 561.876 3428.78 562.489 3429.1 568.012L3429.49 573.877L3425.55 577.491C3421.48 581.173 3418.57 586.355 3418.57 589.765C3418.57 592.833 3417.28 593.72 3410.5 595.288C3404.82 596.652 3402.23 596.788 3388.54 596.72C3378.6 596.72 3370.72 596.311 3366.58 595.697C3363.03 595.152 3360 594.743 3359.87 594.879C3359.74 595.015 3360.64 596.72 3361.87 598.697C3372.14 614.858 3393.9 625.905 3419.09 627.678C3422.32 627.882 3425.03 628.291 3425.03 628.496C3425.03 629.314 3406.95 640.906 3398.88 645.339C3389.06 650.726 3378.66 655.021 3367.55 658.431C3362.77 659.931 3357.74 661.568 3356.38 662.181C3352.44 663.954 3343.59 670.296 3329.77 681.274C3313.43 694.23 3306.39 699.14 3297.16 703.845C3286.82 709.095 3279.98 711.073 3270.03 711.686L3261.96 712.164L3267.45 715.028C3283.98 723.619 3304.52 723.142 3323.57 713.732C3326.54 712.3 3329.13 711.209 3329.25 711.345C3329.38 711.482 3326.74 714.346 3323.38 717.687C3317.37 723.688 3311.75 728.461 3298.45 738.826C3290.76 744.826 3289.92 746.394 3293.41 748.304C3296.7 750.077 3304.13 749.804 3310.27 747.622C3315.5 745.781 3323.31 741.826 3326.41 739.576C3328.48 738.007 3328.42 737.257 3327.45 748.986C3326.74 758.464 3327.12 765.419 3328.48 767.397C3330.29 769.988 3344.75 769.238 3349.34 766.306C3350.44 765.624 3352.51 763.169 3353.93 760.919C3355.41 758.668 3357.09 756.486 3357.74 756.214C3358.32 755.873 3361.09 755.395 3363.81 755.259C3368.2 754.986 3369.3 754.577 3372.78 752.327C3376.47 749.94 3376.92 749.804 3380.34 750.213C3392.74 751.577 3391.64 751.713 3396.75 749.122C3399.33 747.826 3404.17 744.962 3407.47 742.849C3410.82 740.735 3413.8 738.894 3414.18 738.826C3414.51 738.757 3415.35 740.257 3416.06 742.099C3416.7 744.008 3418.77 747.485 3420.58 749.872C3427.16 758.532 3427.55 760.578 3424.39 768.488C3421.35 775.988 3417.15 782.125 3412.25 786.149C3405.92 791.399 3403.27 794.127 3400.49 798.354C3396.16 805.037 3389.32 810.083 3373.04 818.47C3355.8 827.403 3339.01 833.472 3320.79 837.427C3314.85 838.654 3311.49 838.927 3301.55 838.927H3289.47L3290.76 840.359C3292.83 842.677 3299.29 845.405 3306.07 846.905C3310.65 847.859 3315.18 848.269 3322.8 848.337C3328.61 848.405 3333.32 848.678 3333.32 848.95C3333.32 849.155 3331.97 850.655 3330.29 852.224C3316.47 865.111 3298.19 871.18 3278.81 869.271C3269.97 868.384 3260.67 866.748 3242.19 862.725C3218.11 857.542 3206.29 856.247 3195.37 857.542C3188.91 858.361 3180.26 860.338 3180.26 861.088C3180.26 861.361 3182.07 861.77 3184.2 862.043C3192.47 862.929 3208.29 869.816 3216.62 876.158L3220.17 878.817L3220.43 883.386C3220.56 885.977 3220.88 888.5 3221.14 889.114C3221.59 890.068 3220.49 890.273 3212.1 890.614C3202.28 891.023 3194.47 892.25 3190.59 894.023L3188.33 894.978L3191.56 895.455C3211.58 898.456 3216.49 900.16 3225.66 907.116C3227.47 908.411 3231.15 910.184 3234.38 911.275C3240.9 913.389 3245.3 915.571 3247.1 917.685C3250.4 921.503 3257.95 923.822 3267.45 923.822C3276.42 923.822 3287.79 927.913 3293.6 933.095C3295.48 934.868 3295.48 934.868 3293.93 934.459C3281.4 931.323 3261.96 932.755 3247.75 937.8C3238.38 941.074 3231.54 945.369 3225.66 951.506C3220.43 956.893 3219.07 959.075 3221.46 958.325C3222.04 958.121 3225.08 957.643 3228.24 957.166C3236.12 956.143 3241.87 957.098 3259.25 962.348C3276.36 967.463 3289.6 970.463 3302 971.895C3306.97 972.509 3313.5 973.327 3316.53 973.804C3319.57 974.282 3324.67 974.622 3327.83 974.622C3332.87 974.554 3334.1 974.35 3336.94 972.781C3338.75 971.759 3341.14 970.122 3342.3 969.099C3343.46 968.145 3344.43 967.394 3344.56 967.531C3344.63 967.667 3345.08 969.031 3345.47 970.531C3345.85 972.031 3347.21 974.35 3348.5 975.645C3350.44 977.623 3351.28 977.964 3354.57 978.236C3358.96 978.577 3362.39 977.555 3365.55 975.1C3367.42 973.6 3368.52 973.327 3372.66 973.259C3378.86 973.122 3381.83 971.554 3386.09 966.303C3394.42 955.871 3396.87 954.166 3399.46 957.098C3400.04 957.78 3401.65 961.257 3403.07 964.735C3406.11 972.168 3406.17 971.827 3399.78 978.441C3395.26 983.146 3393.19 986.828 3390.09 995.556C3386.93 1004.35 3385.7 1006.47 3382.99 1007.76C3376.53 1011.04 3350.5 1017.17 3330.09 1020.24C3307.1 1023.72 3297.48 1024.33 3268.09 1024.4C3240.13 1024.4 3229.47 1023.72 3211.65 1020.92C3208.16 1020.38 3205.19 1020.04 3205.06 1020.17C3204.61 1020.65 3215.26 1027.61 3219.98 1029.92C3229.79 1034.7 3248.2 1040.22 3258.6 1041.52C3260.67 1041.79 3262.47 1042.2 3262.6 1042.47C3263.12 1043.29 3229.41 1047.79 3211.65 1049.29C3200.67 1050.18 3180.97 1050.18 3174.64 1049.22C3171.6 1048.81 3166.44 1047.18 3161.53 1045.2C3157.07 1043.42 3151.84 1041.45 3149.9 1040.83C3145.06 1039.4 3137.57 1038.31 3136.54 1038.99C3135.24 1039.74 3140.22 1047.38 3143.83 1050.11C3147 1052.49 3147 1052.49 3145.71 1054.34C3143.51 1057.34 3144.93 1063.2 3148.81 1067.5C3149.9 1068.72 3150.68 1069.88 3150.49 1070.02C3150.1 1070.43 3139.89 1067.56 3132.01 1064.84C3128.33 1063.54 3125.36 1062.72 3125.36 1063C3125.36 1063.27 3127.23 1065.25 3129.5 1067.5C3143.19 1081.07 3159.33 1090.34 3180.13 1096.61L3187.62 1098.93L3185.1 1100.02C3176.19 1103.98 3160.3 1108.48 3147.9 1110.66C3140.02 1112.02 3124.91 1112.64 3123.23 1111.61C3122.71 1111.27 3122.65 1111.34 3123.1 1111.89C3124.33 1113.25 3141.19 1123.68 3149.26 1127.98C3170.31 1139.3 3192.66 1147.21 3214.68 1151.16C3231.28 1154.16 3237.61 1154.64 3259.96 1154.57H3281.2L3278.36 1157.23C3261.57 1173.12 3241.29 1182.46 3217.39 1185.33L3210.29 1186.14L3213.45 1187.64C3226.63 1193.85 3249.3 1196.58 3271.58 1194.6C3276.49 1194.19 3280.62 1193.92 3280.75 1194.05C3280.88 1194.19 3275.26 1196.85 3268.29 1200.05C3253.63 1206.67 3253.63 1206.87 3269.71 1205.44C3294.44 1203.33 3314.66 1198.55 3328.35 1191.53L3333.97 1188.6L3330.93 1192.08C3321.63 1202.71 3308.46 1212.33 3297.29 1216.69C3294.96 1217.58 3295.02 1217.65 3300.58 1217.65C3314.27 1217.78 3329.25 1214.72 3343.66 1208.92C3347.08 1207.56 3347.14 1207.56 3345.59 1208.85C3339.07 1214.24 3311.24 1235.1 3307.36 1237.49C3293.02 1246.22 3282.37 1248.06 3249.23 1247.51C3223.27 1247.1 3210.35 1245.33 3186.33 1238.85C3169.99 1234.49 3143.83 1224.81 3134.4 1219.76C3132.92 1218.94 3131.56 1218.47 3131.37 1218.6C3130.92 1219.15 3138.28 1227.88 3143.83 1233.33C3159.91 1249.22 3180.13 1260.81 3197.37 1264.22C3199.7 1264.63 3201.57 1265.18 3201.57 1265.45C3201.57 1266.2 3192.21 1268.18 3183.55 1269.2C3154.75 1272.61 3119.87 1269.95 3078.54 1261.29C3057.94 1256.99 3036.62 1250.72 3029.52 1246.9L3027 1245.54L3029 1248.2C3035.85 1257.4 3054.64 1273.22 3072.66 1285.15L3080.8 1290.54L3073.89 1293.47C3065.17 1297.02 3054.32 1299.95 3047.21 1300.63L3041.73 1301.11L3044.95 1302.68C3049.73 1305.07 3054.13 1305.82 3061.75 1305.54C3065.49 1305.41 3068.53 1305.41 3068.53 1305.54C3068.53 1305.82 3048.44 1339.98 3047.6 1341.07C3046.7 1342.3 3050.25 1341.96 3065.94 1339.36C3100.76 1333.7 3132.92 1324.23 3152.04 1314.13C3154.42 1312.84 3156.36 1312.02 3156.36 1312.23C3156.36 1313.18 3147.84 1324.09 3143.32 1328.93C3121.55 1352.18 3086.55 1373.25 3042.69 1389.35C3037.2 1391.32 3032.23 1393.17 3031.71 1393.37C3029.52 1394.32 3043.4 1398.08 3055.61 1399.92C3064.33 1401.21 3093.52 1401.01 3104.37 1399.58C3108.96 1398.96 3112.77 1398.55 3112.9 1398.69C3112.96 1398.76 3104.05 1404.14 3093.07 1410.62C3082.03 1417.17 3073.05 1422.62 3073.05 1422.83C3073.05 1423.24 3081.06 1422.42 3088.55 1421.19C3102.95 1418.8 3116.84 1415.05 3133.11 1409.19C3155.85 1401.01 3177.22 1389.76 3220.3 1363.3C3240.26 1351.09 3254.85 1343.46 3265.38 1339.77C3270.03 1338.14 3274.1 1336.98 3274.29 1337.25C3275 1337.93 3270.16 1346.32 3264.61 1354.09C3242.26 1385.53 3214.17 1408.03 3190.46 1413.69C3189.04 1414.03 3188.65 1414.51 3188.65 1415.87C3188.65 1418.33 3190.14 1421.67 3192.53 1424.6C3194.53 1426.99 3194.6 1427.12 3193.43 1428.08C3191.17 1429.85 3175.48 1437.9 3171.6 1439.19C3166.5 1440.97 3168.12 1441.51 3178.84 1441.51C3195.05 1441.44 3204.22 1438.85 3244.52 1422.96C3252.01 1419.96 3262.47 1415.74 3267.77 1413.55C3273.13 1411.3 3277.59 1409.6 3277.72 1409.74C3278.23 1410.21 3268.09 1422.21 3259.05 1431.9C3248.59 1443.08 3243.55 1447.44 3220.37 1465.31C3211.45 1472.2 3204.28 1477.86 3204.35 1477.99C3204.48 1478.06 3205.64 1477.86 3207.06 1477.52C3211.39 1476.42 3217.07 1476.76 3225.14 1478.54C3229.41 1479.49 3236.71 1480.58 3241.29 1480.99C3252.53 1481.95 3254.4 1482.29 3253.24 1482.97C3248.85 1485.56 3216.75 1496.34 3202.86 1499.95C3182.52 1505.2 3169.54 1506.56 3156.23 1505C3144.35 1503.56 3119.48 1503.36 3111.93 1504.72L3106.5 1505.68L3109.35 1508.68C3110.9 1510.31 3114.25 1512.77 3116.84 1514.13C3121.1 1516.38 3122.2 1516.66 3129.11 1517.13C3133.24 1517.41 3137.76 1517.95 3139.05 1518.36C3143.51 1519.79 3147.45 1523.27 3150.23 1528.11C3153.59 1533.98 3155.65 1536.29 3160.17 1538.82C3172.83 1545.91 3199.18 1549.8 3218.36 1547.41C3219.78 1547.2 3220.24 1547.34 3219.66 1547.68C3218.69 1548.3 3204.99 1550.48 3193.82 1551.84C3183.16 1553.14 3174.96 1554.64 3169.73 1556.07C3164.95 1557.36 3162.76 1558.66 3165.21 1558.66C3165.86 1558.66 3169.73 1559.89 3173.8 1561.39C3186.14 1565.96 3190.14 1566.02 3214.17 1562.41C3254.72 1556.2 3292.25 1543.93 3322.86 1526.88C3326.54 1524.84 3329.64 1523.2 3329.84 1523.2C3330.61 1523.2 3323.64 1531.93 3320.08 1535.34C3308.46 1546.52 3294.9 1553.89 3271.52 1561.73C3265.19 1563.84 3256.86 1566.98 3252.92 1568.68C3244.91 1572.09 3229.21 1580.48 3226.76 1582.59L3225.14 1583.96L3228.05 1583.55C3236.51 1582.39 3246.07 1581.91 3259.5 1581.84C3276.3 1581.84 3283.08 1581.09 3299.55 1577.34C3320.15 1572.71 3346.18 1564.05 3368.91 1554.23C3375.43 1551.43 3380.79 1549.25 3380.92 1549.39C3381.44 1549.93 3369.49 1561.11 3362.97 1566.3C3359.09 1569.37 3356.06 1571.96 3356.19 1572.09C3356.51 1572.43 3374.53 1565.82 3385.77 1561.18C3395.45 1557.16 3405.92 1552.39 3418.77 1546.11C3422.58 1544.27 3423.61 1543.93 3423.16 1544.89C3421.55 1548.09 3405.72 1567.25 3394.42 1579.59C3391.26 1583.07 3388.87 1585.94 3389.06 1585.94C3389.25 1585.94 3393.45 1583.28 3398.36 1580C3427.04 1560.98 3444.6 1551.98 3473.02 1541.68L3482.51 1538.27L3482.58 1543.86C3482.58 1546.93 3482.84 1562.96 3483.09 1579.46C3483.42 1595.96 3483.55 1609.53 3483.48 1609.66C3483.42 1609.73 3455.06 1611.51 3420.45 1613.55C3316.98 1619.69 3311.69 1620.03 3302.71 1621.8C3299.8 1622.35 3296.32 1623.44 3294.83 1624.19C3292.12 1625.55 3290.12 1628.55 3291.21 1629.71C3291.54 1630.05 3298.19 1630.67 3305.94 1631.08C3329.25 1632.24 3480.77 1631.01 3569.38 1628.89C3586.11 1628.49 3612.52 1627.87 3628.15 1627.53C3717.66 1625.42 3779.79 1622.83 3785.61 1620.98C3788.64 1620.03 3785.22 1615.8 3780.18 1614.3C3772.17 1611.85 3762.1 1611.37 3668.84 1609.46C3641.13 1608.91 3612.91 1608.23 3606.13 1608.03L3593.73 1607.62L3593.34 1597.94C3593.15 1592.69 3592.76 1576.59 3592.56 1562.27L3592.11 1536.23L3597.54 1537.93C3630.02 1548.23 3645.91 1555.52 3676.27 1574C3680.72 1576.66 3685.05 1579.32 3685.95 1579.8C3686.86 1580.28 3681.56 1574.27 3674.26 1566.43C3661.48 1552.73 3650.82 1540.32 3651.27 1539.77C3651.4 1539.64 3653.21 1540.39 3655.34 1541.34C3662.06 1544.48 3680.85 1552.25 3689.51 1555.45C3700.94 1559.68 3718.44 1565.48 3719.86 1565.48C3720.18 1565.48 3717.86 1563.64 3714.76 1561.39C3703.91 1553.55 3690.73 1541.75 3694.67 1543.32C3695.38 1543.59 3699.58 1545.29 3704.04 1547.07C3735.43 1559.68 3772.82 1569.37 3798.33 1571.62C3804.01 1572.09 3810.02 1572.09 3818.67 1571.55C3827.59 1570.93 3833.59 1570.93 3840.63 1571.48C3845.93 1571.89 3850.39 1572.09 3850.51 1571.96C3850.97 1571.55 3841.09 1566.16 3833.21 1562.55C3824.55 1558.59 3812.99 1554.43 3802.53 1551.43C3778.83 1544.75 3762.29 1535.68 3750.09 1522.72C3746.79 1519.18 3744.08 1516.04 3744.08 1515.7C3744.08 1515.29 3746.66 1516.38 3749.76 1518.02C3778.63 1533.36 3818.16 1545.02 3856.78 1549.73C3885.45 1553.27 3888.55 1553.14 3900.7 1548.16C3904.64 1546.52 3908.71 1545.02 3909.74 1544.68L3911.68 1544.2L3908.77 1543.25C3903.6 1541.61 3894.56 1540.25 3879.06 1538.88C3865.3 1537.59 3855.81 1536.43 3855.36 1535.88C3855.23 1535.75 3859.88 1535.68 3865.63 1535.61C3877.12 1535.54 3886.62 1534.32 3896.82 1531.66C3910.71 1527.91 3917.94 1523.75 3921.82 1517.2C3922.98 1515.22 3924.66 1512.43 3925.56 1510.93C3928.92 1505.34 3935.12 1502.54 3946.36 1501.45C3953.79 1500.77 3957.66 1498.99 3963.02 1493.88C3965.86 1491.22 3966.38 1490.4 3965.67 1489.86C3962.89 1487.95 3932.8 1488.15 3922.01 1490.2C3913.87 1491.7 3900.31 1492.18 3891.78 1491.22C3882.42 1490.13 3861.95 1485.77 3849.68 1482.22C3837.47 1478.67 3819.51 1472.81 3818.8 1472.13C3818.48 1471.79 3820.42 1471.38 3823 1471.11C3831.72 1470.22 3841.21 1468.58 3847.74 1466.81C3854.39 1464.97 3863.17 1464.35 3867.11 1465.45C3868.21 1465.79 3863.82 1462.31 3857.43 1457.67C3824.04 1433.81 3817.45 1428.28 3801.62 1410.96C3796.26 1405.03 3792 1400.12 3792.13 1399.98C3792.26 1399.85 3799.36 1402.37 3808.02 1405.51C3827.85 1412.87 3856.13 1422.55 3864.14 1424.67C3874.6 1427.53 3883.65 1428.62 3892.62 1428.21C3897.08 1428.01 3901.41 1427.53 3902.31 1427.19C3903.93 1426.44 3903.93 1426.44 3902.44 1426.44C3900.37 1426.37 3890.49 1422.21 3882.61 1418.12L3875.83 1414.58L3877.83 1412.19C3880.22 1409.33 3881.64 1406.05 3881.64 1403.26C3881.64 1401.35 3881.45 1401.21 3877.96 1400.39C3859.56 1396.37 3838.76 1382.6 3818.03 1360.64C3808.28 1350.34 3799.49 1339.23 3795.55 1332.2C3792.65 1327.02 3792.91 1326.82 3800.01 1328.86C3812.35 1332.41 3826.55 1339.16 3850.97 1353.07C3879.38 1369.23 3899.99 1379.8 3916.84 1386.82C3940.74 1396.78 3968.96 1403.8 3992.41 1405.58L3998.22 1405.98L3995.64 1404.42C3994.21 1403.53 3984.85 1398.35 3974.84 1392.96C3964.83 1387.51 3956.76 1383.01 3956.82 1382.94C3956.89 1382.8 3961.02 1383.07 3965.99 1383.48C3976 1384.37 4001 1383.89 4009.2 1382.73C4017.4 1381.57 4026.64 1379.46 4033.29 1377.14L4039.49 1375.1L4029.16 1371.82C3975.61 1354.71 3932.8 1328.86 3913.1 1301.72L3910 1297.5L3913.74 1299.27C3936.73 1310.11 3969.03 1318.23 4005.65 1322.39C4010.81 1322.93 4016.3 1323.61 4017.85 1323.82C4020.05 1324.09 4020.5 1324.02 4020.11 1323.27C4019.85 1322.79 4014.75 1314.61 4008.75 1305.13L3997.9 1287.95H4004.87C4012.36 1287.95 4017.53 1286.86 4021.99 1284.4L4024.7 1282.9L4018.76 1282.43C4009.33 1281.68 3996.67 1278.47 3987.82 1274.59L3985.5 1273.56L3994.28 1267.29C3999.12 1263.81 4006.16 1258.36 4010.04 1255.22C4016.95 1249.49 4037.74 1228.22 4037.1 1227.53C4036.91 1227.33 4035.55 1227.81 4034.06 1228.63C4017.01 1237.83 3970.32 1249.76 3932.34 1254.67C3916.2 1256.79 3881.97 1256.92 3870.79 1254.95C3866.79 1254.26 3863.43 1253.45 3863.24 1253.17C3863.04 1252.9 3864.14 1252.49 3865.56 1252.22C3869.18 1251.61 3879.64 1247.99 3884.68 1245.6C3890.75 1242.74 3900.05 1236.81 3906.32 1231.9C3914.71 1225.22 3929.31 1209.74 3932.28 1204.28C3932.54 1203.81 3929.89 1204.83 3926.4 1206.53C3895.79 1221.6 3863.3 1231.9 3834.5 1235.79C3821.39 1237.49 3798.33 1238.38 3787.42 1237.49C3773.79 1236.47 3766.81 1234.49 3755.96 1228.49C3753.12 1226.92 3717.6 1202.1 3715.99 1200.6C3715.66 1200.26 3717.28 1200.74 3719.54 1201.69C3730.52 1206.26 3744.92 1208.85 3759.45 1208.85L3768.94 1208.78L3764.62 1207.15C3758.55 1204.9 3750.6 1200.4 3744.66 1195.96C3738.98 1191.67 3729.87 1183.14 3729.87 1182.19C3729.87 1181.85 3731.03 1182.19 3732.39 1182.94C3746.15 1190.3 3779.92 1196.58 3802.01 1195.76L3807.95 1195.55L3795.55 1190.51C3788.71 1187.71 3782.96 1185.26 3782.7 1185.05C3782.44 1184.85 3790.32 1184.64 3800.14 1184.64C3815.83 1184.58 3819.06 1184.44 3826.42 1183.01C3835.6 1181.3 3844.19 1178.58 3849.48 1175.64L3852.9 1173.73L3844.51 1173.32C3839.92 1173.12 3833.66 1172.37 3830.62 1171.69C3813.96 1168.14 3797.17 1159.76 3784.32 1148.57L3780.31 1145.09L3798.52 1144.69C3808.53 1144.41 3819.64 1143.87 3823.2 1143.46C3856.52 1139.37 3884.87 1129.62 3914.26 1112.16C3919.75 1108.89 3937.32 1096.95 3937.06 1096.68C3936.93 1096.54 3934.99 1096.82 3932.67 1097.16C3925.3 1098.25 3909.29 1096.61 3894.88 1093.2C3882.1 1090.2 3868.99 1085.43 3873.57 1085.43C3875.19 1085.43 3887.78 1080.79 3894.04 1077.86C3905.41 1072.61 3917.62 1064.15 3926.4 1055.43C3928.79 1053.04 3931.37 1050.24 3932.08 1049.22L3933.38 1047.31L3928.98 1049.08C3924.33 1050.93 3912.97 1054.88 3909.87 1055.7L3908.06 1056.18L3910.32 1052.97C3914 1047.93 3914.84 1042.13 3912.26 1039.47C3911.48 1038.58 3911.81 1037.97 3914.91 1034.9C3918.26 1031.49 3921.69 1026.45 3921.69 1024.67C3921.69 1023.45 3915.16 1024.33 3908.71 1026.51C3905.73 1027.47 3900.05 1029.79 3896.11 1031.63C3884.94 1036.74 3880.74 1037.36 3857.1 1037.29C3843.99 1037.29 3833.08 1036.88 3824.55 1036.06C3808.28 1034.56 3795.68 1033.13 3795.3 1032.65C3795.1 1032.45 3796.07 1032.11 3797.43 1031.9C3808.99 1029.86 3824.42 1024.81 3834.37 1019.9C3841.15 1016.56 3848.84 1011.58 3850.9 1009.19C3852 1007.83 3852 1007.83 3849.55 1008.38C3845.03 1009.47 3825.26 1012.4 3814.15 1013.63C3800.27 1015.19 3751.05 1015.4 3736.65 1013.97C3707.07 1011.04 3675.17 1004.63 3671.36 1000.81C3670.58 1000.06 3668.84 996.579 3667.55 993.17C3663.74 983.282 3661.28 979.123 3655.66 973.259C3652.76 970.258 3650.43 967.326 3650.43 966.781C3650.43 965.622 3653.92 955.189 3655.02 953.007C3655.99 951.097 3658.18 950.415 3660.18 951.506C3661.09 951.984 3664.25 955.12 3667.16 958.53C3673.75 966.167 3676.07 967.463 3683.18 967.463C3687.37 967.463 3688.67 967.735 3690.02 968.826C3692.28 970.736 3696.55 972.236 3699.65 972.236C3704.81 972.236 3708.49 969.236 3709.98 963.78C3710.37 962.28 3710.82 960.848 3710.95 960.712C3711.01 960.576 3712.18 961.326 3713.47 962.348C3719.8 967.463 3726.32 968.485 3737.04 966.099C3740.4 965.349 3744.14 964.735 3745.5 964.735C3753.12 964.735 3778.31 958.598 3794.52 952.802C3813.31 946.12 3820.1 944.824 3829.59 946.256C3832.43 946.665 3834.82 946.87 3834.95 946.733C3835.53 946.12 3828.17 938.551 3824.23 935.823C3808.73 924.913 3780.96 920.276 3762.29 925.39C3759 926.345 3758.93 926.345 3759.97 925.049C3762.23 922.458 3768.36 918.708 3773.53 916.867C3777.28 915.503 3781.47 914.684 3788.26 913.934C3798.91 912.843 3801.56 911.889 3806.27 907.525C3809.96 904.252 3812.35 902.82 3818.87 900.365C3824.94 898.115 3826.55 897.16 3830.04 894.091C3835.47 889.25 3843.35 886.318 3857.94 883.659C3864.27 882.499 3864.47 882.363 3862.59 881.545C3858.72 879.84 3848.58 878.681 3839.79 878.954C3831.4 879.226 3831.2 879.158 3831.66 877.794C3831.91 877.044 3832.17 874.521 3832.3 872.135C3832.5 867.089 3832.88 866.475 3838.89 862.247C3847.8 855.974 3860.91 850.178 3868.53 849.087C3870.41 848.882 3871.76 848.405 3871.63 848.132C3870.92 846.905 3858.98 845.268 3850.64 845.268C3838.44 845.336 3833.59 846.155 3806.73 852.974C3770.3 862.179 3757.06 862.793 3739.88 856.247C3733.1 853.655 3725.8 849.087 3721.41 844.791L3717.92 841.381L3722.96 841.313C3739.17 841.245 3754.22 837.427 3760.23 831.767L3762.49 829.653L3760.55 830.062C3754.93 831.221 3740.85 831.221 3732.78 830.062C3709.08 826.721 3677.04 814.992 3659.8 803.332C3654.31 799.582 3652.43 797.809 3648.69 792.695C3647.01 790.444 3643.2 786.694 3639.84 784.103C3632.41 778.307 3629.31 774.625 3625.63 766.987C3621.63 758.941 3621.37 756.077 3623.95 751.645C3625.05 749.736 3626.92 746.94 3628.15 745.303C3629.38 743.735 3630.99 740.598 3631.77 738.348C3632.54 736.098 3633.25 734.257 3633.32 734.257C3633.38 734.257 3636.35 736.03 3639.84 738.144C3648.24 743.258 3655.41 746.531 3658.18 746.531C3659.41 746.531 3662.06 746.054 3664 745.508C3669.29 744.008 3671.29 744.212 3676.01 746.872C3679.75 748.986 3680.79 749.258 3685.11 749.258C3690.47 749.258 3690.47 749.258 3696.93 757.373C3698.94 759.896 3699.71 760.305 3703.71 761.191C3709.46 762.487 3715.73 762.487 3718.5 761.26C3720.12 760.578 3720.76 759.759 3721.09 758.123C3721.67 754.713 3721.54 749.054 3720.51 740.053C3719.99 735.621 3719.67 731.802 3719.8 731.734C3719.93 731.597 3722.38 732.757 3725.22 734.257C3728.13 735.825 3732.58 737.871 3735.17 738.757C3743.95 742.03 3755.45 741.621 3756.74 738.007C3757.32 736.439 3756.29 735.484 3746.4 728.324C3735.1 720.21 3725.48 712.3 3720.89 707.39L3717.34 703.64L3722.64 706.027C3725.48 707.322 3730.71 709.232 3734.2 710.186C3739.88 711.823 3741.69 712.027 3751.83 712.027C3764.81 712.095 3767.85 711.482 3777.34 706.64C3786.58 702.004 3786.64 701.799 3778.7 702.072C3759.64 702.822 3745.18 695.935 3708.56 668.591C3696.16 659.249 3689.44 655.703 3679.3 653.112C3665.67 649.566 3654.31 645.27 3642.36 638.997C3635.26 635.315 3619.43 625.632 3619.43 625.087C3619.43 624.814 3621.37 624.405 3623.82 624.132C3648.82 621.473 3670.45 609.949 3680.53 593.992C3684.15 588.196 3684.34 588.401 3676.4 589.765C3657.02 593.038 3639.58 593.174 3628.02 590.174C3625.12 589.356 3624.99 589.287 3624.28 585.878C3623.18 580.832 3620.53 576.468 3616.98 573.945C3612.59 570.808 3612.46 570.535 3613.17 566.103C3613.88 561.535 3613.04 557.648 3610.71 555.193L3609.16 553.556H3613.23C3617.95 553.556 3627.96 551.852 3629.96 550.693C3631.25 550.011 3630.99 549.806 3627.18 548.306C3618.27 544.76 3608.71 542.646 3598.51 541.964C3593.15 541.623 3587.59 541.01 3586.17 540.532C3582.94 539.578 3577.19 536.509 3574.29 534.191L3572.16 532.486L3574.74 531.736C3578.74 530.645 3580.1 528.327 3579.97 522.94C3579.91 519.394 3580.16 517.962 3581.2 516.053C3583.33 512.439 3584.75 504.665 3584.49 498.051C3584.17 490.959 3583.07 489.05 3578.03 487.072C3574.74 485.777 3574.42 485.368 3572.35 481.004C3569.44 474.935 3566.54 472.753 3561.37 472.753C3559.37 472.753 3556.4 473.23 3554.78 473.707C3552.07 474.594 3551.49 474.594 3548.65 473.435C3544.58 471.798 3540.06 466.957 3537.73 461.842C3536.25 458.638 3535.86 456.524 3535.6 451.955L3535.34 446.159L3538.31 440.227C3542.64 431.567 3542.32 429.657 3535.47 421.27C3531.15 416.02 3529.79 412.883 3528.69 405.723C3527.46 397.677 3526.11 394.199 3523.78 392.972C3521.46 391.676 3515 391.676 3512.8 392.972Z" fill="url(#paint1_linear_248_3498)"/>
<path d="M3904.8 607.972C3902.35 609.336 3901.19 612.609 3900.28 619.905C3899.38 627.815 3897.89 631.565 3892.73 638.52C3890.34 641.725 3888.59 644.862 3888.33 646.294C3887.88 648.817 3888.27 649.772 3892.79 658.091C3894.6 661.5 3894.79 662.386 3894.79 667.296C3894.73 675.07 3892.92 679.706 3887.75 685.162C3882.72 690.48 3880.26 691.299 3874.32 689.73C3871.03 688.912 3869.67 688.844 3867.47 689.457C3863.86 690.48 3860.63 693.617 3859.27 697.504C3857.85 701.595 3857.14 702.345 3853.01 704.459C3848.1 706.982 3847.19 709.096 3847.58 717.756C3847.9 724.847 3849.58 731.462 3851.72 733.917C3852.49 734.803 3852.75 736.235 3852.62 739.235C3852.55 741.758 3852.88 744.008 3853.46 745.236C3854.36 747.009 3855.33 747.691 3859.34 749.123C3860.5 749.532 3860.43 749.736 3858.37 751.577C3853.07 756.351 3844.93 759.283 3835.05 760.033C3827.95 760.51 3823.49 761.328 3817.42 763.238C3811.35 765.079 3802.82 768.556 3802.82 769.17C3802.82 770.125 3809.67 771.42 3816.77 771.761L3824.01 772.17L3822.39 774.625C3820.91 776.876 3820.78 777.489 3821.1 783.012L3821.49 788.877L3817.55 792.491C3813.48 796.173 3810.57 801.355 3810.57 804.765C3810.57 807.833 3809.28 808.72 3802.5 810.288C3796.82 811.652 3794.23 811.788 3780.54 811.72C3770.6 811.72 3762.72 811.311 3758.58 810.697C3755.03 810.152 3752 809.743 3751.87 809.879C3751.74 810.015 3752.64 811.72 3753.87 813.697C3764.14 829.858 3785.9 840.905 3811.09 842.678C3814.32 842.882 3817.03 843.291 3817.03 843.496C3817.03 844.314 3798.95 855.906 3790.88 860.339C3781.06 865.726 3770.66 870.021 3759.55 873.431C3754.77 874.931 3749.74 876.568 3748.38 877.181C3744.44 878.954 3735.59 885.296 3721.77 896.274C3705.43 909.23 3698.39 914.14 3689.16 918.845C3678.82 924.095 3671.98 926.073 3662.03 926.686L3653.96 927.164L3659.45 930.028C3675.98 938.619 3696.52 938.142 3715.57 928.732C3718.54 927.3 3721.13 926.209 3721.25 926.345C3721.38 926.482 3718.74 929.346 3715.38 932.687C3709.37 938.688 3703.75 943.461 3690.45 953.826C3682.76 959.826 3681.92 961.394 3685.41 963.304C3688.7 965.077 3696.13 964.804 3702.27 962.622C3707.5 960.781 3715.31 956.826 3718.41 954.576C3720.48 953.007 3720.42 952.257 3719.45 963.986C3718.74 973.464 3719.12 980.419 3720.48 982.397C3722.29 984.988 3736.75 984.238 3741.34 981.306C3742.44 980.624 3744.51 978.169 3745.93 975.919C3747.41 973.668 3749.09 971.486 3749.74 971.214C3750.32 970.873 3753.09 970.395 3755.81 970.259C3760.2 969.986 3761.3 969.577 3764.78 967.327C3768.47 964.94 3768.92 964.804 3772.34 965.213C3784.74 966.577 3783.64 966.713 3788.75 964.122C3791.33 962.826 3796.17 959.962 3799.47 957.849C3802.82 955.735 3805.8 953.894 3806.18 953.826C3806.51 953.757 3807.35 955.257 3808.06 957.099C3808.7 959.008 3810.77 962.485 3812.58 964.872C3819.16 973.532 3819.55 975.578 3816.39 983.488C3813.35 990.988 3809.15 997.125 3804.25 1001.15C3797.92 1006.4 3795.27 1009.13 3792.49 1013.35C3788.16 1020.04 3781.32 1025.08 3765.04 1033.47C3747.8 1042.4 3731.01 1048.47 3712.79 1052.43C3706.85 1053.65 3703.49 1053.93 3693.55 1053.93H3681.47L3682.76 1055.36C3684.83 1057.68 3691.29 1060.4 3698.07 1061.9C3702.65 1062.86 3707.18 1063.27 3714.8 1063.34C3720.61 1063.4 3725.32 1063.68 3725.32 1063.95C3725.32 1064.16 3723.97 1065.66 3722.29 1067.22C3708.47 1080.11 3690.19 1086.18 3670.81 1084.27C3661.97 1083.38 3652.67 1081.75 3634.19 1077.72C3610.11 1072.54 3598.29 1071.25 3587.37 1072.54C3580.91 1073.36 3572.26 1075.34 3572.26 1076.09C3572.26 1076.36 3574.07 1076.77 3576.2 1077.04C3584.47 1077.93 3600.29 1084.82 3608.62 1091.16L3612.17 1093.82L3612.43 1098.39C3612.56 1100.98 3612.88 1103.5 3613.14 1104.11C3613.59 1105.07 3612.49 1105.27 3604.1 1105.61C3594.28 1106.02 3586.47 1107.25 3582.59 1109.02L3580.33 1109.98L3583.56 1110.46C3603.58 1113.46 3608.49 1115.16 3617.66 1122.12C3619.47 1123.41 3623.15 1125.18 3626.38 1126.28C3632.9 1128.39 3637.3 1130.57 3639.1 1132.68C3642.4 1136.5 3649.95 1138.82 3659.45 1138.82C3668.42 1138.82 3679.79 1142.91 3685.6 1148.1C3687.48 1149.87 3687.48 1149.87 3685.93 1149.46C3673.4 1146.32 3653.96 1147.75 3639.75 1152.8C3630.38 1156.07 3623.54 1160.37 3617.66 1166.51C3612.43 1171.89 3611.07 1174.08 3613.46 1173.33C3614.04 1173.12 3617.08 1172.64 3620.24 1172.17C3628.12 1171.14 3633.87 1172.1 3651.25 1177.35C3668.36 1182.46 3681.6 1185.46 3694 1186.89C3698.97 1187.51 3705.5 1188.33 3708.53 1188.8C3711.57 1189.28 3716.67 1189.62 3719.83 1189.62C3724.87 1189.55 3726.1 1189.35 3728.94 1187.78C3730.75 1186.76 3733.14 1185.12 3734.3 1184.1C3735.46 1183.14 3736.43 1182.39 3736.56 1182.53C3736.63 1182.67 3737.08 1184.03 3737.47 1185.53C3737.85 1187.03 3739.21 1189.35 3740.5 1190.65C3742.44 1192.62 3743.28 1192.96 3746.57 1193.24C3750.96 1193.58 3754.39 1192.55 3757.55 1190.1C3759.42 1188.6 3760.52 1188.33 3764.66 1188.26C3770.86 1188.12 3773.83 1186.55 3778.09 1181.3C3786.42 1170.87 3788.87 1169.17 3791.46 1172.1C3792.04 1172.78 3793.65 1176.26 3795.07 1179.74C3798.11 1187.17 3798.17 1186.83 3791.78 1193.44C3787.26 1198.15 3785.19 1201.83 3782.09 1210.56C3778.93 1219.35 3777.7 1221.47 3774.99 1222.76C3768.53 1226.04 3742.5 1232.17 3722.09 1235.24C3699.1 1238.72 3689.48 1239.33 3660.09 1239.4C3632.13 1239.4 3621.47 1238.72 3603.65 1235.92C3600.16 1235.38 3597.19 1235.04 3597.06 1235.17C3596.61 1235.65 3607.26 1242.61 3611.98 1244.92C3621.79 1249.7 3640.2 1255.22 3650.6 1256.52C3652.67 1256.79 3654.47 1257.2 3654.6 1257.47C3655.12 1258.29 3621.41 1262.79 3603.65 1264.29C3592.67 1265.18 3572.97 1265.18 3566.64 1264.22C3563.6 1263.81 3558.44 1262.18 3553.53 1260.2C3549.07 1258.42 3543.84 1256.45 3541.9 1255.83C3537.06 1254.4 3529.57 1253.31 3528.54 1253.99C3527.24 1254.74 3532.22 1262.38 3535.83 1265.11C3539 1267.49 3539 1267.49 3537.71 1269.34C3535.51 1272.34 3536.93 1278.2 3540.81 1282.5C3541.9 1283.72 3542.68 1284.88 3542.49 1285.02C3542.1 1285.43 3531.89 1282.56 3524.01 1279.84C3520.33 1278.54 3517.36 1277.72 3517.36 1278C3517.36 1278.27 3519.23 1280.25 3521.5 1282.5C3535.19 1296.07 3551.33 1305.34 3572.13 1311.61L3579.62 1313.93L3577.1 1315.02C3568.19 1318.98 3552.3 1323.48 3539.9 1325.66C3532.02 1327.02 3516.91 1327.64 3515.23 1326.61C3514.71 1326.27 3514.65 1326.34 3515.1 1326.89C3516.33 1328.25 3533.19 1338.68 3541.26 1342.98C3562.31 1354.3 3584.66 1362.21 3606.68 1366.16C3623.28 1369.16 3629.61 1369.64 3651.96 1369.57H3673.2L3670.36 1372.23C3653.57 1388.12 3633.29 1397.46 3609.39 1400.33L3602.29 1401.14L3605.45 1402.64C3618.63 1408.85 3641.3 1411.58 3663.58 1409.6C3668.49 1409.19 3672.62 1408.92 3672.75 1409.05C3672.88 1409.19 3667.26 1411.85 3660.29 1415.05C3645.63 1421.67 3645.63 1421.87 3661.71 1420.44C3686.44 1418.33 3706.66 1413.55 3720.35 1406.53L3725.97 1403.6L3722.93 1407.08C3713.63 1417.71 3700.46 1427.33 3689.29 1431.69C3686.96 1432.58 3687.02 1432.65 3692.58 1432.65C3706.27 1432.78 3721.25 1429.72 3735.66 1423.92C3739.08 1422.56 3739.14 1422.56 3737.59 1423.85C3731.07 1429.24 3703.24 1450.1 3699.36 1452.49C3685.02 1461.22 3674.37 1463.06 3641.23 1462.51C3615.27 1462.1 3602.35 1460.33 3578.33 1453.85C3561.99 1449.49 3535.83 1439.81 3526.4 1434.76C3524.92 1433.94 3523.56 1433.47 3523.37 1433.6C3522.92 1434.15 3530.28 1442.88 3535.83 1448.33C3551.91 1464.22 3572.13 1475.81 3589.37 1479.22C3591.7 1479.63 3593.57 1480.18 3593.57 1480.45C3593.57 1481.2 3584.21 1483.18 3575.55 1484.2C3546.75 1487.61 3511.87 1484.95 3470.54 1476.29C3449.94 1471.99 3428.62 1465.72 3421.52 1461.9L3419 1460.54L3421 1463.2C3427.85 1472.4 3446.64 1488.22 3464.66 1500.15L3472.8 1505.54L3465.89 1508.47C3457.17 1512.02 3446.32 1514.95 3439.21 1515.63L3433.73 1516.11L3436.95 1517.68C3441.73 1520.07 3446.13 1520.82 3453.75 1520.54C3457.49 1520.41 3460.53 1520.41 3460.53 1520.54C3460.53 1520.82 3440.44 1554.98 3439.6 1556.07C3438.7 1557.3 3442.25 1556.96 3457.94 1554.36C3492.76 1548.7 3524.92 1539.23 3544.04 1529.13C3546.42 1527.84 3548.36 1527.02 3548.36 1527.23C3548.36 1528.18 3539.84 1539.09 3535.32 1543.93C3513.55 1567.18 3478.55 1588.25 3434.69 1604.35C3429.2 1606.32 3424.23 1608.17 3423.71 1608.37C3421.52 1609.32 3435.4 1613.08 3447.61 1614.92C3456.33 1616.21 3485.52 1616.01 3496.37 1614.58C3500.96 1613.96 3504.77 1613.55 3504.9 1613.69C3504.96 1613.76 3496.05 1619.14 3485.07 1625.62C3474.03 1632.17 3465.05 1637.62 3465.05 1637.83C3465.05 1638.24 3473.06 1637.42 3480.55 1636.19C3494.95 1633.8 3508.84 1630.05 3525.11 1624.19C3547.85 1616.01 3569.22 1604.76 3612.3 1578.3C3632.26 1566.09 3646.85 1558.46 3657.38 1554.77C3662.03 1553.14 3666.1 1551.98 3666.29 1552.25C3667 1552.93 3662.16 1561.32 3656.61 1569.09C3634.26 1600.53 3606.17 1623.03 3582.46 1628.69C3581.04 1629.03 3580.65 1629.51 3580.65 1630.87C3580.65 1633.33 3582.14 1636.67 3584.53 1639.6C3586.53 1641.99 3586.6 1642.12 3585.43 1643.08C3583.17 1644.85 3567.48 1652.9 3563.6 1654.19C3558.5 1655.97 3560.12 1656.51 3570.84 1656.51C3587.05 1656.44 3596.22 1653.85 3636.52 1637.96C3644.01 1634.96 3654.47 1630.74 3659.77 1628.55C3665.13 1626.3 3669.59 1624.6 3669.72 1624.74C3670.23 1625.21 3660.09 1637.21 3651.05 1646.9C3640.59 1658.08 3635.55 1662.44 3612.37 1680.31C3603.45 1687.2 3596.28 1692.86 3596.35 1692.99C3596.48 1693.06 3597.64 1692.86 3599.06 1692.52C3603.39 1691.42 3609.07 1691.76 3617.14 1693.54C3621.41 1694.49 3628.71 1695.58 3633.29 1695.99C3644.53 1696.95 3646.4 1697.29 3645.24 1697.97C3640.85 1700.56 3608.75 1711.34 3594.86 1714.95C3574.52 1720.2 3561.54 1721.56 3548.23 1720C3536.35 1718.56 3511.48 1718.36 3503.93 1719.72L3498.5 1720.68L3501.35 1723.68C3502.9 1725.31 3506.25 1727.77 3508.84 1729.13C3513.1 1731.38 3514.2 1731.66 3521.11 1732.13C3525.24 1732.41 3529.76 1732.95 3531.05 1733.36C3535.51 1734.79 3539.45 1738.27 3542.23 1743.11C3545.59 1748.98 3547.65 1751.29 3552.17 1753.82C3564.83 1760.91 3591.18 1764.8 3610.36 1762.41C3611.78 1762.2 3612.24 1762.34 3611.66 1762.68C3610.69 1763.3 3596.99 1765.48 3585.82 1766.84C3575.16 1768.14 3566.96 1769.64 3561.73 1771.07C3556.95 1772.36 3554.76 1773.66 3557.21 1773.66C3557.86 1773.66 3561.73 1774.89 3565.8 1776.39C3578.14 1780.96 3582.14 1781.02 3606.17 1777.41C3646.72 1771.2 3684.25 1758.93 3714.86 1741.88C3718.54 1739.84 3721.64 1738.2 3721.84 1738.2C3722.61 1738.2 3715.64 1746.93 3712.08 1750.34C3700.46 1761.52 3686.9 1768.89 3663.52 1776.73C3657.19 1778.84 3648.86 1781.98 3644.92 1783.68C3636.91 1787.09 3621.21 1795.48 3618.76 1797.59L3617.14 1798.96L3620.05 1798.55C3628.51 1797.39 3638.07 1796.91 3651.5 1796.84C3668.3 1796.84 3675.08 1796.09 3691.55 1792.34C3712.15 1787.71 3738.18 1779.05 3760.91 1769.23C3767.43 1766.43 3772.79 1764.25 3772.92 1764.39C3773.44 1764.93 3761.49 1776.11 3754.97 1781.3C3751.09 1784.37 3748.06 1786.96 3748.19 1787.09C3748.51 1787.43 3766.53 1780.82 3777.77 1776.18C3787.45 1772.16 3797.92 1767.39 3810.77 1761.11C3814.58 1759.27 3815.61 1758.93 3815.16 1759.89C3813.55 1763.09 3797.72 1782.25 3786.42 1794.59C3783.26 1798.07 3780.87 1800.94 3781.06 1800.94C3781.25 1800.94 3785.45 1798.28 3790.36 1795C3819.04 1775.98 3836.6 1766.98 3865.02 1756.68L3874.51 1753.27L3874.58 1758.86C3874.58 1761.93 3874.84 1777.96 3875.09 1794.46C3875.42 1810.96 3875.55 1824.53 3875.48 1824.66C3875.42 1824.73 3847.06 1826.51 3812.45 1828.55C3708.98 1834.69 3703.69 1835.03 3694.71 1836.8C3691.8 1837.35 3688.32 1838.44 3686.83 1839.19C3684.12 1840.55 3682.12 1843.55 3683.21 1844.71C3683.54 1845.05 3690.19 1845.67 3697.94 1846.08C3721.25 1847.24 3872.77 1846.01 3961.38 1843.89C3978.11 1843.49 4004.52 1842.87 4020.15 1842.53C4109.66 1840.42 4171.79 1837.83 4177.61 1835.98C4180.64 1835.03 4177.22 1830.8 4172.18 1829.3C4164.17 1826.85 4154.1 1826.37 4060.84 1824.46C4033.13 1823.91 4004.91 1823.23 3998.13 1823.03L3985.73 1822.62L3985.34 1812.94C3985.15 1807.69 3984.76 1791.59 3984.56 1777.27L3984.11 1751.23L3989.54 1752.93C4022.02 1763.23 4037.91 1770.52 4068.27 1789C4072.72 1791.66 4077.05 1794.32 4077.95 1794.8C4078.86 1795.28 4073.56 1789.27 4066.26 1781.43C4053.48 1767.73 4042.82 1755.32 4043.27 1754.77C4043.4 1754.64 4045.21 1755.39 4047.34 1756.34C4054.06 1759.48 4072.85 1767.25 4081.51 1770.45C4092.94 1774.68 4110.44 1780.48 4111.86 1780.48C4112.18 1780.48 4109.86 1778.64 4106.76 1776.39C4095.91 1768.55 4082.73 1756.75 4086.67 1758.32C4087.38 1758.59 4091.58 1760.29 4096.04 1762.07C4127.43 1774.68 4164.82 1784.37 4190.33 1786.62C4196.01 1787.09 4202.02 1787.09 4210.67 1786.55C4219.59 1785.93 4225.59 1785.93 4232.63 1786.48C4237.93 1786.89 4242.39 1787.09 4242.51 1786.96C4242.97 1786.55 4233.09 1781.16 4225.21 1777.55C4216.55 1773.59 4204.99 1769.43 4194.53 1766.43C4170.83 1759.75 4154.29 1750.68 4142.09 1737.72C4138.79 1734.18 4136.08 1731.04 4136.08 1730.7C4136.08 1730.29 4138.66 1731.38 4141.76 1733.02C4170.63 1748.36 4210.16 1760.02 4248.78 1764.73C4277.45 1768.27 4280.55 1768.14 4292.7 1763.16C4296.64 1761.52 4300.71 1760.02 4301.74 1759.68L4303.68 1759.2L4300.77 1758.25C4295.6 1756.61 4286.56 1755.25 4271.06 1753.88C4257.3 1752.59 4247.81 1751.43 4247.36 1750.88C4247.23 1750.75 4251.88 1750.68 4257.63 1750.61C4269.12 1750.54 4278.62 1749.32 4288.82 1746.66C4302.71 1742.91 4309.94 1738.75 4313.82 1732.2C4314.98 1730.22 4316.66 1727.43 4317.56 1725.93C4320.92 1720.34 4327.12 1717.54 4338.36 1716.45C4345.79 1715.77 4349.66 1713.99 4355.02 1708.88C4357.86 1706.22 4358.38 1705.4 4357.67 1704.86C4354.89 1702.95 4324.8 1703.15 4314.01 1705.2C4305.87 1706.7 4292.31 1707.18 4283.78 1706.22C4274.42 1705.13 4253.95 1700.77 4241.68 1697.22C4229.47 1693.67 4211.51 1687.81 4210.8 1687.13C4210.48 1686.79 4212.42 1686.38 4215 1686.11C4223.72 1685.22 4233.21 1683.58 4239.74 1681.81C4246.39 1679.97 4255.17 1679.35 4259.11 1680.45C4260.21 1680.79 4255.82 1677.31 4249.43 1672.67C4216.04 1648.81 4209.45 1643.28 4193.62 1625.96C4188.26 1620.03 4184 1615.12 4184.13 1614.98C4184.26 1614.85 4191.36 1617.37 4200.02 1620.51C4219.85 1627.87 4248.13 1637.55 4256.14 1639.67C4266.6 1642.53 4275.65 1643.62 4284.62 1643.21C4289.08 1643.01 4293.41 1642.53 4294.31 1642.19C4295.93 1641.44 4295.93 1641.44 4294.44 1641.44C4292.37 1641.37 4282.49 1637.21 4274.61 1633.12L4267.83 1629.58L4269.83 1627.19C4272.22 1624.33 4273.64 1621.05 4273.64 1618.26C4273.64 1616.35 4273.45 1616.21 4269.96 1615.39C4251.56 1611.37 4230.76 1597.6 4210.03 1575.64C4200.28 1565.34 4191.49 1554.23 4187.55 1547.2C4184.65 1542.02 4184.91 1541.82 4192.01 1543.86C4204.35 1547.41 4218.55 1554.16 4242.97 1568.07C4271.38 1584.23 4291.99 1594.8 4308.84 1601.82C4332.74 1611.78 4360.96 1618.8 4384.41 1620.58L4390.22 1620.98L4387.64 1619.42C4386.21 1618.53 4376.85 1613.35 4366.84 1607.96C4356.83 1602.51 4348.76 1598.01 4348.82 1597.94C4348.89 1597.8 4353.02 1598.07 4357.99 1598.48C4368 1599.37 4393 1598.89 4401.2 1597.73C4409.4 1596.57 4418.64 1594.46 4425.29 1592.14L4431.49 1590.1L4421.16 1586.82C4367.61 1569.71 4324.8 1543.86 4305.1 1516.72L4302 1512.5L4305.74 1514.27C4328.73 1525.11 4361.03 1533.23 4397.65 1537.39C4402.81 1537.93 4408.3 1538.61 4409.85 1538.82C4412.05 1539.09 4412.5 1539.02 4412.11 1538.27C4411.85 1537.79 4406.75 1529.61 4400.75 1520.13L4389.9 1502.95H4396.87C4404.36 1502.95 4409.53 1501.86 4413.99 1499.4L4416.7 1497.9L4410.76 1497.43C4401.33 1496.68 4388.67 1493.47 4379.82 1489.59L4377.5 1488.56L4386.28 1482.29C4391.12 1478.81 4398.16 1473.36 4402.04 1470.22C4408.95 1464.49 4429.74 1443.22 4429.1 1442.53C4428.91 1442.33 4427.55 1442.81 4426.06 1443.63C4409.01 1452.83 4362.32 1464.76 4324.34 1469.67C4308.2 1471.79 4273.97 1471.92 4262.79 1469.95C4258.79 1469.26 4255.43 1468.45 4255.24 1468.17C4255.04 1467.9 4256.14 1467.49 4257.56 1467.22C4261.18 1466.61 4271.64 1462.99 4276.68 1460.6C4282.75 1457.74 4292.05 1451.81 4298.32 1446.9C4306.71 1440.22 4321.31 1424.74 4324.28 1419.28C4324.54 1418.81 4321.89 1419.83 4318.4 1421.53C4287.79 1436.6 4255.3 1446.9 4226.5 1450.79C4213.39 1452.49 4190.33 1453.38 4179.42 1452.49C4165.79 1451.47 4158.81 1449.49 4147.96 1443.49C4145.12 1441.92 4109.6 1417.1 4107.99 1415.6C4107.66 1415.26 4109.28 1415.74 4111.54 1416.69C4122.52 1421.26 4136.92 1423.85 4151.45 1423.85L4160.94 1423.78L4156.62 1422.15C4150.55 1419.9 4142.6 1415.4 4136.66 1410.96C4130.98 1406.67 4121.87 1398.14 4121.87 1397.19C4121.87 1396.85 4123.03 1397.19 4124.39 1397.94C4138.15 1405.3 4171.92 1411.58 4194.01 1410.76L4199.95 1410.55L4187.55 1405.51C4180.71 1402.71 4174.96 1400.26 4174.7 1400.05C4174.44 1399.85 4182.32 1399.64 4192.14 1399.64C4207.83 1399.58 4211.06 1399.44 4218.42 1398.01C4227.6 1396.3 4236.19 1393.58 4241.48 1390.64L4244.9 1388.73L4236.51 1388.32C4231.92 1388.12 4225.66 1387.37 4222.62 1386.69C4205.96 1383.14 4189.17 1374.76 4176.32 1363.57L4172.31 1360.09L4190.52 1359.69C4200.53 1359.41 4211.64 1358.87 4215.2 1358.46C4248.52 1354.37 4276.87 1344.62 4306.26 1327.16C4311.75 1323.89 4329.32 1311.95 4329.06 1311.68C4328.93 1311.54 4326.99 1311.82 4324.67 1312.16C4317.3 1313.25 4301.29 1311.61 4286.88 1308.2C4274.1 1305.2 4260.99 1300.43 4265.57 1300.43C4267.19 1300.43 4279.78 1295.79 4286.04 1292.86C4297.41 1287.61 4309.62 1279.15 4318.4 1270.43C4320.79 1268.04 4323.37 1265.24 4324.08 1264.22L4325.38 1262.31L4320.98 1264.08C4316.33 1265.93 4304.97 1269.88 4301.87 1270.7L4300.06 1271.18L4302.32 1267.97C4306 1262.93 4306.84 1257.13 4304.26 1254.47C4303.48 1253.58 4303.81 1252.97 4306.91 1249.9C4310.26 1246.49 4313.69 1241.45 4313.69 1239.67C4313.69 1238.45 4307.16 1239.33 4300.71 1241.51C4297.73 1242.47 4292.05 1244.79 4288.11 1246.63C4276.94 1251.74 4272.74 1252.36 4249.1 1252.29C4235.99 1252.29 4225.08 1251.88 4216.55 1251.06C4200.28 1249.56 4187.68 1248.13 4187.3 1247.65C4187.1 1247.45 4188.07 1247.11 4189.43 1246.9C4200.99 1244.86 4216.42 1239.81 4226.37 1234.9C4233.15 1231.56 4240.84 1226.58 4242.9 1224.19C4244 1222.83 4244 1222.83 4241.55 1223.38C4237.03 1224.47 4217.26 1227.4 4206.15 1228.63C4192.27 1230.19 4143.05 1230.4 4128.65 1228.97C4099.07 1226.04 4067.17 1219.63 4063.36 1215.81C4062.58 1215.06 4060.84 1211.58 4059.55 1208.17C4055.74 1198.28 4053.28 1194.12 4047.66 1188.26C4044.76 1185.26 4042.43 1182.33 4042.43 1181.78C4042.43 1180.62 4045.92 1170.19 4047.02 1168.01C4047.99 1166.1 4050.18 1165.42 4052.18 1166.51C4053.09 1166.98 4056.25 1170.12 4059.16 1173.53C4065.75 1181.17 4068.07 1182.46 4075.18 1182.46C4079.37 1182.46 4080.67 1182.74 4082.02 1183.83C4084.28 1185.74 4088.55 1187.24 4091.65 1187.24C4096.81 1187.24 4100.49 1184.24 4101.98 1178.78C4102.37 1177.28 4102.82 1175.85 4102.95 1175.71C4103.01 1175.58 4104.18 1176.33 4105.47 1177.35C4111.8 1182.46 4118.32 1183.49 4129.04 1181.1C4132.4 1180.35 4136.14 1179.74 4137.5 1179.74C4145.12 1179.74 4170.31 1173.6 4186.52 1167.8C4205.31 1161.12 4212.1 1159.82 4221.59 1161.26C4224.43 1161.67 4226.82 1161.87 4226.95 1161.73C4227.53 1161.12 4220.17 1153.55 4216.23 1150.82C4200.73 1139.91 4172.96 1135.28 4154.29 1140.39C4151 1141.34 4150.93 1141.34 4151.97 1140.05C4154.23 1137.46 4160.36 1133.71 4165.53 1131.87C4169.28 1130.5 4173.47 1129.68 4180.26 1128.93C4190.91 1127.84 4193.56 1126.89 4198.27 1122.52C4201.96 1119.25 4204.35 1117.82 4210.87 1115.36C4216.94 1113.11 4218.55 1112.16 4222.04 1109.09C4227.47 1104.25 4235.35 1101.32 4249.94 1098.66C4256.27 1097.5 4256.47 1097.36 4254.59 1096.54C4250.72 1094.84 4240.58 1093.68 4231.79 1093.95C4223.4 1094.23 4223.2 1094.16 4223.66 1092.79C4223.91 1092.04 4224.17 1089.52 4224.3 1087.13C4224.5 1082.09 4224.88 1081.47 4230.89 1077.25C4239.8 1070.97 4252.91 1065.18 4260.53 1064.09C4262.41 1063.88 4263.76 1063.4 4263.63 1063.13C4262.92 1061.9 4250.98 1060.27 4242.64 1060.27C4230.44 1060.34 4225.59 1061.15 4198.73 1067.97C4162.3 1077.18 4149.06 1077.79 4131.88 1071.25C4125.1 1068.66 4117.8 1064.09 4113.41 1059.79L4109.92 1056.38L4114.96 1056.31C4131.17 1056.25 4146.22 1052.43 4152.23 1046.77L4154.49 1044.65L4152.55 1045.06C4146.93 1046.22 4132.85 1046.22 4124.78 1045.06C4101.08 1041.72 4069.04 1029.99 4051.8 1018.33C4046.31 1014.58 4044.43 1012.81 4040.69 1007.69C4039.01 1005.44 4035.2 1001.69 4031.84 999.103C4024.41 993.307 4021.31 989.625 4017.63 981.987C4013.63 973.941 4013.37 971.077 4015.95 966.645C4017.05 964.736 4018.92 961.94 4020.15 960.303C4021.38 958.735 4022.99 955.598 4023.77 953.348C4024.54 951.098 4025.25 949.257 4025.32 949.257C4025.38 949.257 4028.35 951.03 4031.84 953.144C4040.24 958.258 4047.41 961.531 4050.18 961.531C4051.41 961.531 4054.06 961.054 4056 960.508C4061.29 959.008 4063.29 959.212 4068.01 961.872C4071.75 963.986 4072.79 964.258 4077.11 964.258C4082.47 964.258 4082.47 964.258 4088.93 972.373C4090.94 974.896 4091.71 975.305 4095.71 976.191C4101.46 977.487 4107.73 977.487 4110.5 976.26C4112.12 975.578 4112.76 974.759 4113.09 973.123C4113.67 969.713 4113.54 964.054 4112.51 955.053C4111.99 950.621 4111.67 946.802 4111.8 946.734C4111.93 946.597 4114.38 947.757 4117.22 949.257C4120.13 950.825 4124.58 952.871 4127.17 953.757C4135.95 957.03 4147.45 956.621 4148.74 953.007C4149.32 951.439 4148.29 950.484 4138.4 943.324C4127.1 935.21 4117.48 927.3 4112.89 922.39L4109.34 918.64L4114.64 921.027C4117.48 922.322 4122.71 924.232 4126.2 925.186C4131.88 926.823 4133.69 927.027 4143.83 927.027C4156.81 927.095 4159.85 926.482 4169.34 921.64C4178.58 917.004 4178.64 916.799 4170.7 917.072C4151.64 917.822 4137.18 910.935 4100.56 883.591C4088.16 874.249 4081.44 870.703 4071.3 868.112C4057.67 864.566 4046.31 860.27 4034.36 853.997C4027.26 850.315 4011.43 840.632 4011.43 840.087C4011.43 839.814 4013.37 839.405 4015.82 839.132C4040.82 836.473 4062.45 824.949 4072.53 808.992C4076.15 803.196 4076.34 803.401 4068.4 804.765C4049.02 808.038 4031.58 808.174 4020.02 805.174C4017.12 804.356 4016.99 804.287 4016.28 800.878C4015.18 795.832 4012.53 791.468 4008.98 788.945C4004.59 785.808 4004.46 785.535 4005.17 781.103C4005.88 776.535 4005.04 772.648 4002.71 770.193L4001.16 768.556H4005.23C4009.95 768.556 4019.96 766.852 4021.96 765.693C4023.25 765.011 4022.99 764.806 4019.18 763.306C4010.27 759.76 4000.71 757.646 3990.51 756.964C3985.15 756.623 3979.59 756.01 3978.17 755.532C3974.94 754.578 3969.19 751.509 3966.29 749.191L3964.16 747.486L3966.74 746.736C3970.74 745.645 3972.1 743.327 3971.97 737.94C3971.91 734.394 3972.16 732.962 3973.2 731.053C3975.33 727.439 3976.75 719.665 3976.49 713.051C3976.17 705.959 3975.07 704.05 3970.03 702.072C3966.74 700.777 3966.42 700.368 3964.35 696.004C3961.44 689.935 3958.54 687.753 3953.37 687.753C3951.37 687.753 3948.4 688.23 3946.78 688.707C3944.07 689.594 3943.49 689.594 3940.65 688.435C3936.58 686.798 3932.06 681.957 3929.73 676.842C3928.25 673.638 3927.86 671.524 3927.6 666.955L3927.34 661.159L3930.31 655.227C3934.64 646.567 3934.32 644.657 3927.47 636.27C3923.15 631.02 3921.79 627.883 3920.69 620.723C3919.46 612.677 3918.11 609.199 3915.78 607.972C3913.46 606.676 3907 606.676 3904.8 607.972Z" fill="url(#paint2_linear_248_3498)"/>
<path d="M129.963 214.028C131.237 188.705 136.184 166.548 142.255 158.793C143.454 157.448 145.028 156.26 145.853 156.26C149.825 156.26 154.847 166.865 158.145 182.375C160.318 192.899 161.218 200.496 161.817 214.424C162.567 231.833 163.991 236.423 173.36 251.616C179.955 262.379 180.255 263.012 182.803 273.695C183.853 278.205 185.876 283.824 187.525 287.147C190.673 293.082 192.322 297.989 193.671 304.952C195.32 313.736 200.941 319.038 223.651 333.203C229.198 336.606 235.494 341.275 237.667 343.49C241.265 347.131 241.64 347.764 241.64 351.008C241.64 358.842 236.993 362.324 227.249 361.849L221.403 361.612L229.872 370.712C248.535 390.733 254.906 399.28 256.78 406.481C257.604 409.804 257.529 410.675 256.18 413.998C253.032 422.07 242.239 425.156 231.296 421.12C227.399 419.696 227.399 419.933 231.821 426.739C235.194 432.041 240.141 437.501 248.91 445.731C254.831 451.27 255.281 451.983 260.002 462.032C265.998 475.169 268.022 477.384 283.537 488.146C300.326 499.779 305.347 505.081 305.347 511.095C305.347 514.26 302.574 521.383 300.85 522.49C300.026 523.044 296.503 523.836 293.131 524.311C289.758 524.706 284.061 525.656 280.539 526.289C271.695 527.792 267.872 527.713 263.6 525.735C257.154 522.807 252.882 521.066 252.882 521.462C252.882 521.699 256.33 526.21 260.527 531.512C271.845 545.914 289.383 564.115 297.628 569.971C301.45 572.74 307.371 577.726 310.819 581.049C314.641 584.848 319.288 588.409 322.661 590.229C325.734 591.97 332.929 596.718 338.7 600.991C344.472 605.185 351.217 609.854 353.691 611.278C364.109 617.371 366.807 621.724 364.109 627.659C361.785 632.565 358.862 633.673 350.318 632.961C340.274 632.09 334.728 632.169 333.679 633.277C333.004 633.99 333.529 635.256 335.702 638.579C339.675 644.752 344.771 649.262 351.967 653.219C359.911 657.571 363.884 660.657 373.103 669.362C380.823 676.722 384.795 682.261 384.795 685.426C384.795 690.966 380.598 694.052 373.178 693.894C367.481 693.814 363.434 692.39 347.994 685.189C341.099 682.024 333.004 678.779 330.006 678.067C324.01 676.642 314.641 673.002 304.823 668.175C301.375 666.513 298.602 665.326 298.602 665.564C298.602 666.751 304.898 678.858 307.371 682.261C311.119 687.484 313.067 689.066 319.888 692.469C322.961 693.973 327.158 696.663 329.107 698.483C331.055 700.303 336.452 704.893 340.949 708.612C345.521 712.411 351.367 718.108 353.915 721.195C361.71 730.374 367.631 733.777 379.099 735.597C385.769 736.626 388.992 738.525 390.491 742.244C393.339 749.524 390.416 756.884 382.921 761.078C380.223 762.581 378.499 762.819 364.034 763.056L348.144 763.373L347.695 766.459C347.395 768.358 346.345 770.495 344.996 771.919L342.748 774.214L344.397 777.617C348.669 786.638 355.265 794.472 362.01 798.429C369.88 803.098 373.777 806.184 381.047 813.464C385.17 817.579 388.992 820.982 389.517 820.982C392.14 820.982 401.209 826.521 403.458 829.528C406.006 833.01 409.154 834.435 414.026 834.435C415.525 834.435 418.223 835.226 420.022 836.176C424.069 838.312 425.193 841.082 425.193 848.679C425.193 855.168 423.919 859.045 421.521 860.311C418.823 861.657 403.608 862.923 389.442 862.923H377.15L377.675 865.455C378.499 869.333 381.047 875.505 383.671 879.936C388.468 887.85 395.963 893.627 409.529 899.72C413.051 901.302 416.949 903.597 418.148 904.863C419.422 906.05 421.746 907.475 423.395 907.95C428.266 909.295 429.166 910.403 429.241 914.913C429.316 920.215 427.742 922.748 423.619 923.855C421.82 924.33 419.722 925.122 418.897 925.596C414.176 928.524 412.452 928.999 406.456 929.237C398.811 929.632 394.314 928.524 381.947 923.381C377.15 921.402 372.653 919.582 372.053 919.345C370.255 918.633 377.3 926.071 382.097 929.87C384.495 931.769 389.742 935.172 393.714 937.308C402.933 942.294 411.852 949.811 418.148 957.804C420.846 961.286 425.343 965.875 428.191 968.091C433.513 972.285 438.684 977.745 440.258 980.832C440.783 981.939 444.081 984.076 448.953 986.45C453.225 988.587 457.497 991.119 458.396 992.148C459.371 993.176 461.469 994.443 463.118 994.996C467.765 996.658 469.489 998.716 469.489 1002.75C469.489 1008.69 466.716 1012.64 460.12 1015.81C456.673 1017.47 455.323 1017.63 443.631 1017.63C431.264 1017.63 430.665 1017.55 423.994 1015.1C417.099 1012.56 407.205 1007.66 401.959 1004.18C399.26 1002.36 399.111 1002.36 395.213 1003.46C388.992 1005.36 373.253 1005.84 369.055 1004.26C367.257 1003.62 365.608 1003.15 365.458 1003.31C364.708 1004.18 374.527 1011.93 380.523 1015.25C394.763 1023.17 399.935 1028.47 405.781 1041.29C408.554 1047.54 412.002 1058.3 412.901 1064C413.351 1066.45 414.625 1067.96 420.996 1073.66C425.193 1077.37 432.389 1084.02 436.886 1088.45C444.306 1095.73 446.104 1097 454.949 1101.59C461.694 1105.15 466.266 1106.97 469.564 1107.52C485.154 1110.14 488.227 1113.22 484.179 1122.08C480.807 1129.21 472.712 1133.56 460.195 1134.75C455.623 1135.22 453.525 1135.85 450.826 1137.6C448.878 1138.86 445.43 1140.29 443.031 1140.84C437.56 1142.03 433.588 1141 426.617 1136.65C420.996 1133.08 414.101 1130.31 405.781 1128.42C399.335 1126.91 374.227 1125.8 375.426 1126.99C375.876 1127.47 381.272 1131.5 387.418 1135.93C397.911 1143.61 416.424 1157.69 441.533 1177.16C464.692 1195.13 485.304 1206.6 500.444 1209.92C509.363 1211.9 505.54 1225.04 494.597 1230.18C490.775 1231.92 480.507 1233.82 469.639 1234.69C464.992 1235.09 461.02 1235.64 460.795 1235.88C460.12 1236.59 466.266 1243.95 471.738 1248.86C477.734 1254.32 486.728 1260.57 494.223 1264.53C497.296 1266.11 505.915 1271.25 513.26 1275.84C520.68 1280.43 529.15 1285.26 531.998 1286.52C538.668 1289.45 545.189 1290.16 550.136 1288.34C559.505 1284.94 563.477 1288.98 559.355 1297.92C557.256 1302.51 554.408 1304.8 545.264 1309.47C540.917 1311.61 536.045 1314.77 534.396 1316.36C530.499 1320.16 527.276 1321.03 517.008 1321.18C506.74 1321.42 502.917 1320.16 488.976 1312.01C475.56 1304.17 473.237 1304.17 473.237 1312.24C473.237 1314.54 472.937 1317.15 472.487 1317.94C470.688 1321.5 455.173 1322.13 446.704 1318.89C444.231 1317.94 438.385 1314.93 433.588 1312.08C424.519 1306.86 415.899 1302.67 412.227 1301.64L410.053 1301.08L412.901 1306.55C420.471 1321.03 431.489 1335.51 441.907 1344.69C450.452 1352.21 456.298 1356.24 466.491 1361.54C479.982 1368.59 490.025 1371.99 504.941 1374.52C508.988 1375.15 513.26 1376.26 514.459 1376.89C518.357 1379.03 519.931 1387.34 517.682 1393.59C517.232 1394.78 522.254 1396.52 531.998 1398.42C539.118 1399.76 561.004 1400.24 581.54 1399.45C592.558 1399.05 595.631 1399.92 596.005 1403.4C596.605 1408.71 581.615 1422.4 566.175 1430.63C549.536 1439.57 545.264 1440.91 516.858 1445.82C502.992 1448.27 491.45 1450.41 491.3 1450.57C491.075 1450.81 492.948 1453.18 495.422 1455.87C504.116 1465.29 507.714 1471.62 507.714 1477.32C507.714 1480.32 507.414 1481.11 505.69 1482.3C502.542 1484.52 485.379 1484.12 469.114 1481.51C462.144 1480.4 452.475 1479.06 447.753 1478.58C424.294 1476.13 409.529 1472.09 397.986 1464.97L394.389 1462.68L398.286 1467.27C408.105 1478.82 408.105 1486.57 398.361 1488.79C386.444 1491.48 351.742 1488.47 331.055 1482.93C326.783 1481.83 324.31 1481.51 324.61 1482.06C324.91 1482.54 326.184 1484.67 327.458 1486.89C330.906 1492.75 331.58 1494.8 331.58 1499.31C331.58 1502.88 331.28 1503.59 328.957 1505.96C327.458 1507.39 325.06 1508.89 323.486 1509.21C319.963 1510 276.866 1509.76 266.148 1508.89C259.103 1508.34 258.129 1508.34 258.578 1509.44C260.602 1514.27 261.202 1517.44 260.602 1519.49C259.553 1522.82 256.255 1523.37 244.038 1522.26C224.851 1520.6 204.089 1516.01 191.723 1510.71C188.05 1509.21 185.052 1508.02 184.977 1508.1C184.752 1508.41 187.825 1579.48 188.05 1579.71L103.656 1579.16C104.255 1578.13 107.029 1508.73 106.504 1508.18C106.279 1507.94 104.405 1508.65 102.382 1509.76C94.062 1514.19 73.0009 1519.34 53.5138 1521.71C40.3975 1523.29 33.577 1523.05 32.078 1520.92C30.579 1518.78 30.8038 1515.06 32.5277 1511.42C33.3521 1509.76 33.9518 1508.34 33.8018 1508.26C33.7269 1508.18 29.9794 1508.41 25.4074 1508.89C11.9163 1510 -29.6063 1510 -32.7542 1508.81C-36.5767 1507.39 -39.4997 1503.9 -39.9494 1500.11C-40.3991 1496.7 -38.3755 1491.01 -34.628 1485.23C-33.5786 1483.57 -32.8291 1482.06 -32.979 1481.9C-33.1289 1481.75 -37.1762 1482.54 -41.9731 1483.72C-55.8389 1486.97 -70.2294 1488.87 -84.7698 1489.42C-107.405 1490.21 -113.026 1488.71 -113.476 1481.98C-113.776 1477.71 -111.827 1473.67 -106.431 1467.5L-102.158 1462.68L-107.78 1465.92C-118.872 1472.17 -131.764 1475.73 -152.6 1478.19C-158.596 1478.82 -169.539 1480.4 -176.959 1481.51C-193.898 1484.2 -210.312 1484.52 -213.535 1482.3C-219.006 1478.5 -215.633 1469.24 -204.016 1456.11C-201.318 1453.02 -199.219 1450.49 -199.294 1450.41C-199.369 1450.33 -210.237 1448.43 -223.428 1446.14C-250.485 1441.55 -257.456 1439.49 -272.221 1431.89C-287.361 1424.14 -304 1409.66 -304 1404.27C-304 1402.53 -303.475 1401.51 -301.976 1400.48C-300.252 1399.21 -298.679 1399.13 -290.134 1399.45C-259.18 1400.63 -241.641 1399.61 -229.274 1395.81C-225.527 1394.7 -225.377 1394.54 -226.051 1392.64C-227.101 1389.71 -226.951 1383.94 -225.752 1380.85C-224.253 1377.21 -222.079 1376.18 -209.862 1373.81C-204.016 1372.7 -196.071 1370.64 -192.249 1369.3C-184.379 1366.53 -170.063 1359.56 -164.217 1355.77C-147.803 1344.77 -131.464 1326.33 -121.795 1307.89C-120.072 1304.65 -118.872 1301.88 -119.097 1301.64C-119.847 1300.85 -131.539 1306.23 -140.608 1311.53C-145.78 1314.54 -152.675 1318.02 -155.973 1319.13C-161.219 1321.03 -162.868 1321.26 -169.539 1320.95C-179.807 1320.55 -181.081 1319.68 -181.081 1312.95C-181.081 1303.54 -183.63 1303.7 -201.093 1314.22C-203.641 1315.72 -207.988 1317.94 -210.837 1319.13C-215.409 1321.11 -216.833 1321.34 -224.178 1321.18C-236.395 1321.11 -239.543 1320.24 -243.29 1315.96C-244.339 1314.77 -248.836 1311.85 -253.408 1309.47C-257.905 1307.1 -262.627 1304.17 -263.752 1302.98C-266.75 1300.06 -268.773 1295.62 -268.773 1291.83C-268.773 1287.39 -266.675 1286.37 -260.679 1287.79C-248.087 1290.96 -242.84 1289.29 -220.955 1275.45C-215.783 1272.2 -207.614 1267.37 -202.892 1264.68C-190 1257.56 -183.779 1252.89 -175.46 1244.11C-166.766 1235.01 -166.691 1235.32 -178.458 1234.61C-188.127 1233.98 -198.47 1232.08 -202.742 1230.02C-209.188 1227.1 -213.31 1221.56 -213.31 1216.02C-213.31 1211.9 -212.111 1210.95 -203.566 1208.42C-194.497 1205.81 -176.809 1196.55 -164.967 1188.32C-160.02 1184.92 -146.904 1175.03 -135.811 1166.48C-124.718 1157.85 -108.379 1145.43 -99.4601 1138.78L-83.2708 1126.83L-91.8901 1126.6C-101.484 1126.36 -113.776 1127.94 -121.72 1130.47C-124.494 1131.42 -130.265 1134.11 -134.612 1136.57C-141.882 1140.68 -142.856 1141 -147.428 1141.08C-151.626 1141.08 -153.125 1140.68 -157.921 1138.07C-160.994 1136.49 -164.442 1135.14 -165.716 1135.14C-173.661 1135.06 -184.979 1131.11 -189.176 1126.99C-191.574 1124.62 -193.823 1119.87 -193.823 1117.18C-193.823 1111.96 -190.225 1109.58 -180.257 1108C-174.111 1107.05 -171.862 1106.18 -163.093 1101.51C-154.249 1096.84 -152.075 1095.26 -145.105 1088.53C-140.758 1084.26 -133.712 1077.61 -129.365 1073.66L-121.496 1066.45L-119.922 1059.49C-116.699 1045.09 -110.103 1031.48 -103.208 1024.99C-101.259 1023.09 -95.7875 1019.45 -91.1406 1016.84C-85.5943 1013.75 -81.0223 1010.51 -78.0992 1007.58L-73.5273 1002.99L-77.1998 1004.33C-81.6219 1005.84 -96.612 1005.36 -103.133 1003.54L-107.255 1002.36L-112.352 1005.52C-119.247 1009.72 -127.342 1013.59 -134.012 1015.81C-138.734 1017.39 -141.133 1017.63 -151.476 1017.63C-165.267 1017.63 -169.689 1016.52 -173.961 1012.01C-180.407 1005.28 -178.833 997.133 -170.738 994.838C-168.939 994.363 -167.14 993.256 -166.766 992.464C-166.316 991.673 -162.194 989.141 -157.547 986.767C-149.902 982.889 -148.927 982.177 -146.829 978.616C-145.255 975.925 -142.107 972.76 -136.935 968.645C-132.813 965.321 -129.365 962.235 -129.365 961.84C-129.365 960.573 -118.048 948.466 -113.401 944.747C-110.853 942.768 -105.831 939.524 -102.308 937.625C-95.2629 933.905 -85.7442 926.704 -81.0223 921.481L-78.0243 918.158L-81.0223 919.503C-100.285 928.129 -105.681 929.632 -114.75 929.237C-120.446 928.999 -122.17 928.604 -124.868 926.863C-126.742 925.755 -129.59 924.409 -131.239 923.935C-132.888 923.46 -134.612 922.827 -135.062 922.51C-137.76 920.532 -138.584 912.381 -136.261 910.165C-135.586 909.532 -133.563 908.583 -131.764 908.108C-130.04 907.554 -127.417 906.13 -126.068 904.784C-124.643 903.518 -120.146 900.907 -116.099 899.008C-99.685 891.49 -92.04 883.893 -87.618 870.994C-84.6949 862.527 -83.2708 863.239 -104.032 862.685C-123.744 862.131 -128.916 861.419 -131.239 858.966C-132.588 857.542 -132.738 856.276 -132.738 848.6V839.816L-130.34 837.6C-128.691 836.017 -126.817 835.147 -124.344 834.83C-116.174 833.722 -115.874 833.564 -111.002 828.895C-107.405 825.572 -104.632 823.672 -100.659 822.09C-96.0124 820.191 -94.2136 818.845 -87.7678 812.277C-82.5213 806.975 -77.9493 803.256 -72.7778 800.012C-64.0085 794.551 -59.1367 789.487 -54.1151 780.545C-50.5174 774.214 -50.5174 774.135 -52.0914 773.027C-54.1151 771.523 -55.9139 767.804 -55.9139 765.272V763.373L-71.8034 763.056C-86.7935 762.819 -87.9927 762.74 -91.3655 760.92C-93.3142 759.97 -95.8625 757.833 -96.9868 756.251C-98.7856 753.798 -99.0104 752.769 -99.0104 747.625C-99.0104 741.848 -98.9355 741.69 -96.3122 739.079C-94.0637 736.942 -92.7146 736.309 -89.1919 735.913C-77.1249 734.489 -71.0539 731.165 -62.2847 721.511C-58.5372 717.396 -52.4662 711.461 -48.7936 708.375C-45.0461 705.368 -40.3991 701.253 -38.4504 699.275C-36.4268 697.375 -32.0797 694.448 -28.557 692.786C-21.7365 689.383 -17.989 686.297 -14.7661 681.391C-12.0679 677.196 -6.97119 666.672 -7.4209 666.197C-7.5708 665.959 -10.9436 667.305 -14.7661 669.125C-24.9594 673.873 -30.4307 675.93 -38.2256 678.067C-41.9731 679.175 -50.2926 682.498 -56.6634 685.505C-69.5549 691.599 -71.6535 692.39 -77.6495 693.577C-86.4187 695.318 -92.6396 692.153 -92.6396 685.901C-92.6396 680.916 -90.1663 677.592 -77.4247 665.722C-70.829 659.629 -66.332 656.384 -58.4622 652.19C-55.4642 650.608 -51.3419 647.601 -49.3183 645.464C-44.5214 640.558 -40.624 634.227 -41.6733 633.119C-42.5727 632.169 -49.618 632.09 -57.9375 632.961C-68.5056 634.148 -73.902 630.508 -72.9276 622.911C-72.403 618.796 -69.7797 616.026 -62.2847 611.516C-58.9869 609.616 -52.0165 604.789 -46.8449 600.912C-41.5984 597.034 -34.7029 592.365 -31.48 590.545C-28.1072 588.646 -22.8607 584.689 -19.338 581.287C-15.9653 577.963 -10.5688 573.373 -7.34598 571.078C1.72302 564.51 10.1924 556.439 19.7861 545.202C29.2299 534.202 39.2733 521.62 38.9734 521.303C38.8235 521.145 35.5257 522.49 31.5533 524.231C23.5336 527.792 21.435 527.951 11.6165 526.289C8.09384 525.656 2.39761 524.706 -1.05011 524.311C-4.42288 523.836 -7.87064 523.124 -8.6951 522.649C-12.2178 520.67 -14.3913 510.779 -12.2177 506.347C-10.1941 502.232 -3.22369 496.139 8.99323 487.592C15.5889 483.003 22.4094 477.622 24.2082 475.564C26.3068 473.19 29.08 468.284 31.8531 461.953C35.7505 453.328 36.8748 451.508 40.9221 447.551C52.6894 436.235 56.8116 431.724 60.0345 426.739C61.9832 423.811 63.3323 421.2 63.1075 420.962C62.8826 420.725 60.784 421.041 58.3107 421.754C41.6717 426.343 30.1293 415.897 36.65 402.207C39.648 395.956 44.8196 389.388 58.1608 374.985L70.7524 361.454L64.7564 361.849C57.9359 362.245 55.1627 361.375 52.3896 357.893C50.1411 355.044 49.7663 348.871 51.7899 345.706C53.3639 343.095 60.0345 338.188 70.6025 331.62C85.6676 322.362 93.1626 316.348 96.1606 311.046C96.9102 309.7 98.1093 305.744 98.8589 302.262C99.6084 298.384 101.557 292.924 103.881 288.018C106.204 283.191 108.378 277.097 109.502 272.27C111.6 263.249 112.8 260.559 118.721 251.221C127.715 237.056 129.064 232.624 129.963 214.028Z" fill="url(#paint3_linear_248_3498)"/>
<path d="M313.963 529.767C315.237 504.445 320.184 482.287 326.255 474.532C327.454 473.187 329.028 472 329.853 472C333.825 472 338.847 482.604 342.145 498.114C344.318 508.639 345.218 516.235 345.817 530.163C346.567 547.572 347.991 552.162 357.36 567.356C363.955 578.118 364.255 578.751 366.803 589.434C367.853 593.945 369.876 599.563 371.525 602.887C374.673 608.822 376.322 613.728 377.671 620.692C379.32 629.475 384.941 634.777 407.651 648.942C413.198 652.345 419.494 657.014 421.667 659.23C425.265 662.87 425.64 663.503 425.64 666.747C425.64 674.582 420.993 678.063 411.249 677.589L405.403 677.351L413.872 686.452C432.535 706.472 438.906 715.019 440.78 722.22C441.604 725.544 441.529 726.414 440.18 729.738C437.032 737.809 426.239 740.895 415.296 736.86C411.399 735.435 411.399 735.673 415.821 742.478C419.194 747.78 424.141 753.24 432.91 761.47C438.831 767.01 439.281 767.722 444.002 777.772C449.998 790.908 452.022 793.123 467.537 803.886C484.326 815.518 489.347 820.82 489.347 826.834C489.347 830 486.574 837.122 484.85 838.23C484.026 838.784 480.503 839.575 477.131 840.05C473.758 840.445 468.061 841.395 464.539 842.028C455.695 843.532 451.872 843.453 447.6 841.474C441.154 838.546 436.882 836.805 436.882 837.201C436.882 837.438 440.33 841.949 444.527 847.251C455.845 861.653 473.383 879.854 481.628 885.71C485.45 888.479 491.371 893.465 494.819 896.788C498.641 900.587 503.288 904.148 506.661 905.968C509.734 907.709 516.929 912.457 522.7 916.73C528.472 920.924 535.217 925.593 537.691 927.017C548.109 933.111 550.807 937.463 548.109 943.398C545.785 948.304 542.862 949.412 534.318 948.7C524.274 947.83 518.728 947.909 517.679 949.017C517.004 949.729 517.529 950.995 519.702 954.318C523.675 960.491 528.771 965.002 535.967 968.958C543.911 973.311 547.884 976.397 557.103 985.101C564.823 992.461 568.795 998 568.795 1001.17C568.795 1006.7 564.598 1009.79 557.178 1009.63C551.481 1009.55 547.434 1008.13 531.994 1000.93C525.099 997.763 517.004 994.518 514.006 993.806C508.01 992.382 498.641 988.742 488.823 983.914C485.375 982.253 482.602 981.066 482.602 981.303C482.602 982.49 488.898 994.597 491.371 998C495.119 1003.22 497.067 1004.81 503.888 1008.21C506.961 1009.71 511.158 1012.4 513.107 1014.22C515.055 1016.04 520.452 1020.63 524.949 1024.35C529.521 1028.15 535.367 1033.85 537.915 1036.93C545.71 1046.11 551.631 1049.52 563.099 1051.34C569.769 1052.36 572.992 1054.26 574.491 1057.98C577.339 1065.26 574.416 1072.62 566.921 1076.82C564.223 1078.32 562.499 1078.56 548.034 1078.8L532.144 1079.11L531.695 1082.2C531.395 1084.1 530.345 1086.23 528.996 1087.66L526.748 1089.95L528.397 1093.36C532.669 1102.38 539.265 1110.21 546.01 1114.17C553.88 1118.84 557.777 1121.92 565.047 1129.2C569.17 1133.32 572.992 1136.72 573.517 1136.72C576.14 1136.72 585.209 1142.26 587.458 1145.27C590.006 1148.75 593.154 1150.17 598.026 1150.17C599.525 1150.17 602.223 1150.97 604.022 1151.91C608.069 1154.05 609.193 1156.82 609.193 1164.42C609.193 1170.91 607.919 1174.78 605.521 1176.05C602.823 1177.4 587.608 1178.66 573.442 1178.66H561.15L561.675 1181.19C562.499 1185.07 565.047 1191.24 567.671 1195.68C572.468 1203.59 579.963 1209.37 593.529 1215.46C597.051 1217.04 600.949 1219.34 602.148 1220.6C603.422 1221.79 605.746 1223.21 607.395 1223.69C612.266 1225.03 613.166 1226.14 613.241 1230.65C613.316 1235.95 611.742 1238.49 607.619 1239.59C605.82 1240.07 603.722 1240.86 602.897 1241.34C598.176 1244.26 596.452 1244.74 590.456 1244.98C582.811 1245.37 578.314 1244.26 565.947 1239.12C561.15 1237.14 556.653 1235.32 556.053 1235.08C554.255 1234.37 561.3 1241.81 566.097 1245.61C568.495 1247.51 573.742 1250.91 577.714 1253.05C586.933 1258.03 595.852 1265.55 602.148 1273.54C604.846 1277.02 609.343 1281.61 612.191 1283.83C617.513 1288.02 622.684 1293.48 624.258 1296.57C624.783 1297.68 628.081 1299.82 632.953 1302.19C637.225 1304.33 641.497 1306.86 642.396 1307.89C643.371 1308.92 645.469 1310.18 647.118 1310.74C651.765 1312.4 653.489 1314.46 653.489 1318.49C653.489 1324.43 650.716 1328.38 644.12 1331.55C640.673 1333.21 639.323 1333.37 627.631 1333.37C615.264 1333.37 614.665 1333.29 607.994 1330.84C601.099 1328.3 591.205 1323.4 585.959 1319.92C583.26 1318.1 583.111 1318.1 579.213 1319.2C572.992 1321.1 557.253 1321.58 553.055 1319.99C551.257 1319.36 549.608 1318.89 549.458 1319.04C548.708 1319.92 558.527 1327.67 564.523 1330.99C578.763 1338.91 583.935 1344.21 589.781 1357.03C592.554 1363.28 596.002 1374.04 596.901 1379.74C597.351 1382.19 598.625 1383.7 604.996 1389.39C609.193 1393.11 616.389 1399.76 620.886 1404.19C628.306 1411.47 630.104 1412.74 638.949 1417.33C645.694 1420.89 650.266 1422.71 653.564 1423.26C669.154 1425.88 672.227 1428.96 668.179 1437.82C664.807 1444.95 656.712 1449.3 644.195 1450.49C639.623 1450.96 637.525 1451.59 634.826 1453.33C632.878 1454.6 629.43 1456.02 627.031 1456.58C621.56 1457.77 617.588 1456.74 610.617 1452.38C604.996 1448.82 598.101 1446.05 589.781 1444.15C583.335 1442.65 558.227 1441.54 559.426 1442.73C559.876 1443.21 565.272 1447.24 571.418 1451.67C581.911 1459.35 600.424 1473.43 625.533 1492.9C648.692 1510.86 669.304 1522.34 684.444 1525.66C693.363 1527.64 689.54 1540.78 678.597 1545.92C674.775 1547.66 664.507 1549.56 653.639 1550.43C648.992 1550.83 645.02 1551.38 644.795 1551.62C644.12 1552.33 650.266 1559.69 655.738 1564.6C661.734 1570.06 670.728 1576.31 678.223 1580.26C681.296 1581.85 689.915 1586.99 697.26 1591.58C704.68 1596.17 713.15 1601 715.998 1602.26C722.668 1605.19 729.189 1605.9 734.136 1604.08C743.505 1600.68 747.477 1604.72 743.355 1613.66C741.256 1618.25 738.408 1620.54 729.264 1625.21C724.917 1627.35 720.045 1630.51 718.396 1632.1C714.499 1635.9 711.276 1636.77 701.008 1636.92C690.74 1637.16 686.917 1635.9 672.976 1627.74C659.56 1619.91 657.237 1619.91 657.237 1627.98C657.237 1630.28 656.937 1632.89 656.487 1633.68C654.688 1637.24 639.173 1637.87 630.704 1634.63C628.231 1633.68 622.385 1630.67 617.588 1627.82C608.519 1622.6 599.899 1618.41 596.227 1617.38L594.053 1616.82L596.901 1622.28C604.471 1636.77 615.489 1651.25 625.907 1660.43C634.452 1667.94 640.298 1671.98 650.491 1677.28C663.982 1684.32 674.025 1687.73 688.941 1690.26C692.988 1690.89 697.26 1692 698.459 1692.63C702.357 1694.77 703.931 1703.08 701.682 1709.33C701.232 1710.52 706.254 1712.26 715.998 1714.16C723.118 1715.5 745.004 1715.98 765.54 1715.19C776.558 1714.79 779.631 1715.66 780.005 1719.14C780.605 1724.45 765.615 1738.14 750.175 1746.37C733.536 1755.31 729.264 1756.65 700.858 1761.56C686.992 1764.01 675.45 1766.15 675.3 1766.31C675.075 1766.54 676.948 1768.92 679.422 1771.61C688.116 1781.03 691.714 1787.36 691.714 1793.05C691.714 1796.06 691.414 1796.85 689.69 1798.04C686.542 1800.26 669.379 1799.86 653.114 1797.25C646.144 1796.14 636.475 1794.8 631.753 1794.32C608.294 1791.87 593.529 1787.83 581.986 1780.71L578.389 1778.41L582.286 1783C592.105 1794.56 592.105 1802.31 582.361 1804.53C570.444 1807.22 535.742 1804.21 515.055 1798.67C510.783 1797.56 508.31 1797.25 508.61 1797.8C508.91 1798.28 510.184 1800.41 511.458 1802.63C514.906 1808.49 515.58 1810.54 515.58 1815.05C515.58 1818.61 515.28 1819.33 512.957 1821.7C511.458 1823.13 509.06 1824.63 507.486 1824.95C503.963 1825.74 460.866 1825.5 450.148 1824.63C443.103 1824.07 442.129 1824.07 442.578 1825.18C444.602 1830.01 445.202 1833.18 444.602 1835.23C443.553 1838.56 440.255 1839.11 428.038 1838C408.851 1836.34 388.089 1831.75 375.723 1826.45C372.05 1824.95 369.052 1823.76 368.977 1823.84C368.752 1824.15 371.825 1895.22 372.05 1895.45L287.656 1894.9C288.255 1893.87 291.029 1824.47 290.504 1823.92C290.279 1823.68 288.405 1824.39 286.382 1825.5C278.062 1829.93 257.001 1835.07 237.514 1837.45C224.397 1839.03 217.577 1838.79 216.078 1836.66C214.579 1834.52 214.804 1830.8 216.528 1827.16C217.352 1825.5 217.952 1824.07 217.802 1824C217.727 1823.92 213.979 1824.15 209.407 1824.63C195.916 1825.74 154.394 1825.74 151.246 1824.55C147.423 1823.13 144.5 1819.64 144.051 1815.84C143.601 1812.44 145.625 1806.74 149.372 1800.97C150.421 1799.31 151.171 1797.8 151.021 1797.64C150.871 1797.49 146.824 1798.28 142.027 1799.46C128.161 1802.71 113.771 1804.61 99.2302 1805.16C76.5951 1805.95 70.9738 1804.45 70.5241 1797.72C70.2243 1793.45 72.173 1789.41 77.5695 1783.24L81.8417 1778.41L76.2204 1781.66C65.1277 1787.91 52.2362 1791.47 31.4 1793.92C25.4039 1794.56 14.4612 1796.14 7.04108 1797.25C-9.89773 1799.94 -26.3119 1800.26 -29.5348 1798.04C-35.0061 1794.24 -31.6334 1784.98 -20.016 1771.85C-17.3178 1768.76 -15.2192 1766.23 -15.2942 1766.15C-15.3691 1766.07 -26.2369 1764.17 -39.4282 1761.88C-66.4854 1757.29 -73.4557 1755.23 -88.221 1747.63C-103.361 1739.88 -120 1725.4 -120 1720.01C-120 1718.27 -119.475 1717.24 -117.976 1716.22C-116.252 1714.95 -114.679 1714.87 -106.134 1715.19C-75.1796 1716.37 -57.6412 1715.35 -45.2744 1711.55C-41.5268 1710.44 -41.3769 1710.28 -42.0515 1708.38C-43.1008 1705.45 -42.9509 1699.68 -41.7517 1696.59C-40.2527 1692.95 -38.0791 1691.92 -25.8622 1689.55C-20.0161 1688.44 -12.0713 1686.38 -8.24883 1685.04C-0.379021 1682.27 13.9365 1675.3 19.7827 1671.51C36.1968 1660.51 52.536 1642.07 62.2046 1623.63C63.9285 1620.39 65.1277 1617.62 64.9028 1617.38C64.1533 1616.59 52.4611 1621.97 43.3921 1627.27C38.2205 1630.28 31.325 1633.76 28.0272 1634.87C22.7807 1636.77 21.1318 1637 14.4612 1636.69C4.19296 1636.29 2.91881 1635.42 2.91881 1628.69C2.91881 1619.28 0.370491 1619.44 -17.093 1629.96C-19.6413 1631.46 -23.9884 1633.68 -26.8365 1634.87C-31.4085 1636.84 -32.8326 1637.08 -40.1777 1636.92C-52.3947 1636.84 -55.5426 1635.97 -59.2901 1631.7C-60.3394 1630.51 -64.8364 1627.59 -69.4084 1625.21C-73.9054 1622.84 -78.6273 1619.91 -79.7516 1618.72C-82.7496 1615.8 -84.7733 1611.36 -84.7733 1607.57C-84.7733 1603.13 -82.6747 1602.11 -76.6786 1603.53C-64.0869 1606.7 -58.8404 1605.03 -36.9549 1591.18C-31.7833 1587.94 -23.6137 1583.11 -18.8918 1580.42C-6.0003 1573.3 0.220581 1568.63 8.54008 1559.85C17.2343 1550.75 17.3093 1551.06 5.54208 1550.35C-4.12653 1549.72 -14.4697 1547.82 -18.7419 1545.76C-25.1876 1542.83 -29.3099 1537.29 -29.3099 1531.76C-29.3099 1527.64 -28.1107 1526.69 -19.5664 1524.16C-10.4973 1521.55 7.19098 1512.29 19.0332 1504.06C23.9799 1500.66 37.0962 1490.76 48.1889 1482.22C59.2816 1473.59 75.6208 1461.17 84.5399 1454.52L100.729 1442.57L92.1099 1442.33C82.5162 1442.1 70.2243 1443.68 62.2796 1446.21C59.5064 1447.16 53.7352 1449.85 49.3881 1452.31C42.1179 1456.42 41.1436 1456.74 36.5716 1456.82C32.3744 1456.82 30.8753 1456.42 26.0785 1453.81C23.0055 1452.23 19.5578 1450.88 18.2836 1450.88C10.3389 1450.8 -0.97863 1446.85 -5.17586 1442.73C-7.57427 1440.36 -9.82278 1435.61 -9.82278 1432.92C-9.82278 1427.7 -6.22515 1425.32 3.74326 1423.74C9.88921 1422.79 12.1377 1421.92 20.9069 1417.25C29.7511 1412.58 31.9246 1411 38.895 1404.27C43.2422 1400 50.2875 1393.35 54.6346 1389.39L62.5044 1382.19L64.0784 1375.23C67.3013 1360.83 73.8969 1347.22 80.7924 1340.73C82.7411 1338.83 88.2125 1335.19 92.8594 1332.58C98.4057 1329.49 102.978 1326.25 105.901 1323.32L110.473 1318.73L106.8 1320.07C102.378 1321.58 87.388 1321.1 80.8673 1319.28L76.745 1318.1L71.6484 1321.26C64.753 1325.45 56.6583 1329.33 49.9877 1331.55C45.2658 1333.13 42.8674 1333.37 32.5242 1333.37C18.7334 1333.37 14.3113 1332.26 10.0391 1327.75C3.59335 1321.02 5.16733 1312.87 13.262 1310.58C15.0608 1310.1 16.8596 1308.99 17.2343 1308.2C17.6841 1307.41 21.8063 1304.88 26.4532 1302.51C34.0982 1298.63 35.0726 1297.92 37.1712 1294.36C38.7451 1291.66 41.8931 1288.5 47.0646 1284.38C51.1869 1281.06 54.6346 1277.97 54.6346 1277.58C54.6346 1276.31 65.9522 1264.21 70.5991 1260.49C73.1474 1258.51 78.1691 1255.26 81.6918 1253.36C88.7371 1249.64 98.2558 1242.44 102.978 1237.22L105.976 1233.9L102.978 1235.24C83.7154 1243.87 78.319 1245.37 69.25 1244.98C63.5537 1244.74 61.8299 1244.34 59.1317 1242.6C57.2579 1241.49 54.4098 1240.15 52.7609 1239.67C51.112 1239.2 49.3881 1238.57 48.9384 1238.25C46.2402 1236.27 45.4157 1228.12 47.7392 1225.9C48.4138 1225.27 50.4374 1224.32 52.2362 1223.85C53.9601 1223.29 56.5834 1221.87 57.9325 1220.52C59.3565 1219.26 63.8535 1216.65 67.9009 1214.75C84.315 1207.23 91.96 1199.63 96.382 1186.73C99.3051 1178.27 100.729 1178.98 79.9679 1178.42C60.2559 1177.87 55.0843 1177.16 52.7609 1174.71C51.4118 1173.28 51.2619 1172.01 51.2619 1164.34V1155.55L53.6603 1153.34C55.3092 1151.76 57.183 1150.89 59.6563 1150.57C67.8259 1149.46 68.1257 1149.3 72.9975 1144.63C76.5951 1141.31 79.3683 1139.41 83.3407 1137.83C87.9876 1135.93 89.7864 1134.58 96.2322 1128.02C101.479 1122.71 106.051 1119 111.222 1115.75C119.991 1110.29 124.863 1105.23 129.885 1096.28C133.483 1089.95 133.483 1089.87 131.909 1088.77C129.885 1087.26 128.086 1083.54 128.086 1081.01V1079.11L112.197 1078.8C97.2065 1078.56 96.0073 1078.48 92.6345 1076.66C90.6858 1075.71 88.1375 1073.57 87.0132 1071.99C85.2144 1069.54 84.9896 1068.51 84.9896 1063.36C84.9896 1057.59 85.0645 1057.43 87.6878 1054.82C89.9363 1052.68 91.2854 1052.05 94.8081 1051.65C106.875 1050.23 112.946 1046.9 121.715 1037.25C125.463 1033.14 131.534 1027.2 135.206 1024.11C138.954 1021.11 143.601 1016.99 145.55 1015.01C147.573 1013.11 151.92 1010.19 155.443 1008.52C162.264 1005.12 166.011 1002.04 169.234 997.13C171.932 992.936 177.029 982.411 176.579 981.936C176.429 981.699 173.056 983.044 169.234 984.864C159.041 989.612 153.569 991.669 145.774 993.806C142.027 994.914 133.707 998.238 127.337 1001.24C114.445 1007.34 112.346 1008.13 106.35 1009.32C97.5813 1011.06 91.3604 1007.89 91.3604 1001.64C91.3604 996.655 93.8337 993.331 106.575 981.461C113.171 975.368 117.668 972.124 125.538 967.929C128.536 966.347 132.658 963.34 134.682 961.203C139.479 956.297 143.376 949.966 142.327 948.858C141.427 947.909 134.382 947.83 126.062 948.7C115.494 949.887 110.098 946.247 111.072 938.65C111.597 934.535 114.22 931.765 121.715 927.255C125.013 925.356 131.984 920.528 137.155 916.651C142.402 912.773 149.297 908.105 152.52 906.284C155.893 904.385 161.139 900.429 164.662 897.026C168.035 893.702 173.431 889.112 176.654 886.818C185.723 880.25 194.192 872.178 203.786 860.941C213.23 849.942 223.273 837.359 222.973 837.043C222.824 836.884 219.526 838.23 215.553 839.971C207.534 843.532 205.435 843.69 195.617 842.028C192.094 841.395 186.398 840.445 182.95 840.05C179.577 839.575 176.129 838.863 175.305 838.388C171.782 836.41 169.609 826.518 171.782 822.086C173.806 817.971 180.776 811.878 192.993 803.332C199.589 798.742 206.409 793.361 208.208 791.304C210.307 788.93 213.08 784.023 215.853 777.693C219.751 769.067 220.875 767.247 224.922 763.29C236.689 751.974 240.812 747.463 244.035 742.478C245.983 739.55 247.332 736.939 247.107 736.701C246.883 736.464 244.784 736.781 242.311 737.493C225.672 742.083 214.129 731.637 220.65 717.947C223.648 711.695 228.82 705.127 242.161 690.725L254.752 677.193L248.756 677.589C241.936 677.984 239.163 677.114 236.39 673.632C234.141 670.783 233.766 664.611 235.79 661.445C237.364 658.834 244.035 653.928 254.603 647.36C269.668 638.101 277.163 632.087 280.161 626.785C280.91 625.44 282.109 621.483 282.859 618.001C283.608 614.124 285.557 608.663 287.881 603.757C290.204 598.93 292.378 592.837 293.502 588.01C295.6 578.988 296.8 576.298 302.721 566.96C311.715 552.795 313.064 548.364 313.963 529.767Z" fill="url(#paint4_linear_248_3498)"/>
<defs>
<linearGradient id="paint0_linear_248_3498" x1="3820.89" y1="1268.03" x2="3820.89" y2="0" gradientUnits="userSpaceOnUse">
<stop stop-color="#C3E1DD" stop-opacity="0"/>
<stop offset="0.23" stop-color="#ACD5D0"/>
</linearGradient>
<linearGradient id="paint1_linear_248_3498" x1="3533.24" y1="1631.52" x2="3533.24" y2="392" gradientUnits="userSpaceOnUse">
<stop stop-color="#C3E1DC" stop-opacity="0"/>
<stop offset="0.485" stop-color="#C3E1DC"/>
</linearGradient>
<linearGradient id="paint2_linear_248_3498" x1="3925.24" y1="1846.52" x2="3925.24" y2="607" gradientUnits="userSpaceOnUse">
<stop stop-color="#C3E1DC" stop-opacity="0"/>
<stop offset="0.485" stop-color="#C3E1DC"/>
</linearGradient>
<linearGradient id="paint3_linear_248_3498" x1="146.011" y1="1579.71" x2="146.011" y2="156.26" gradientUnits="userSpaceOnUse">
<stop stop-color="#C3E1DE" stop-opacity="0"/>
<stop offset="0.185" stop-color="#C3E1DE"/>
</linearGradient>
<linearGradient id="paint4_linear_248_3498" x1="330.011" y1="1895.45" x2="330.011" y2="472" gradientUnits="userSpaceOnUse">
<stop stop-color="#ADD7D1" stop-opacity="0"/>
<stop offset="0.228333" stop-color="#ADD7D1"/>
</linearGradient>
</defs>
</svg>
