<svg width="3940" height="1799" viewBox="0 0 3940 1799" fill="none" xmlns="http://www.w3.org/2000/svg">
<rect x="3459.75" y="1288" width="482.859" height="39.745" rx="19.8725" fill="white"/>
<rect x="3344" y="1429.45" width="628.378" height="42.0829" rx="21.0414" fill="white"/>
<rect x="3576.61" y="1352.29" width="529.16" height="39.745" rx="19.8725" fill="white"/>
<path fill-rule="evenodd" clip-rule="evenodd" d="M3794.19 1352.29H3917.56C3910.78 1352.29 3905.28 1346.8 3905.28 1340.02C3905.28 1333.24 3910.78 1327.74 3917.56 1327.74H3794.19C3800.97 1327.74 3806.46 1333.24 3806.46 1340.02C3806.46 1346.8 3800.97 1352.29 3794.19 1352.29Z" fill="white"/>
<path fill-rule="evenodd" clip-rule="evenodd" d="M3612.96 1431.78H3759.49C3748.52 1431.78 3739.62 1422.89 3739.62 1411.91C3739.62 1400.94 3748.52 1392.04 3759.49 1392.04H3612.96C3623.94 1392.04 3632.83 1400.94 3632.83 1411.91C3632.83 1422.89 3623.94 1431.78 3612.96 1431.78Z" fill="white"/>
<rect x="-285.246" width="482.859" height="39.745" rx="19.8725" fill="white"/>
<rect x="-401" y="141.445" width="628.378" height="42.0829" rx="21.0414" fill="white"/>
<rect x="-168.39" y="64.2935" width="529.16" height="39.745" rx="19.8725" fill="white"/>
<path fill-rule="evenodd" clip-rule="evenodd" d="M49.1898 64.2932H172.557C165.778 64.2932 160.283 58.7979 160.283 52.019C160.283 45.2402 165.778 39.7449 172.557 39.7449H49.1898C55.9687 39.7449 61.464 45.2402 61.464 52.019C61.464 58.7979 55.9687 64.2932 49.1898 64.2932Z" fill="white"/>
<path fill-rule="evenodd" clip-rule="evenodd" d="M-132.039 143.783H14.4913C3.51604 143.783 -5.38116 134.886 -5.38116 123.911C-5.38116 112.936 3.51605 104.038 14.4913 104.038H-132.039C-121.064 104.038 -112.167 112.936 -112.167 123.911C-112.167 134.886 -121.064 143.783 -132.039 143.783Z" fill="white"/>
<rect x="247.221" y="141.445" width="113.549" height="33.9001" rx="16.9501" fill="white"/>
<rect x="2674.17" y="1716" width="95.9103" height="24.5484" rx="12.2742" fill="white"/>
<rect x="2828.51" y="1716" width="308.677" height="24.5484" rx="12.2742" fill="white"/>
<rect x="2597" y="1767.43" width="726.493" height="31.5622" rx="15.7811" fill="white"/>
<path fill-rule="evenodd" clip-rule="evenodd" d="M2982.08 1767.43H3099.43C3092 1767.43 3085.98 1761.42 3085.98 1753.99C3085.98 1746.57 3092 1740.55 3099.43 1740.55H2982.08C2989.51 1740.55 2995.52 1746.57 2995.52 1753.99C2995.52 1761.42 2989.51 1767.43 2982.08 1767.43Z" fill="white"/>
<rect x="1969.17" y="657" width="95.9103" height="24.5484" rx="12.2742" fill="white"/>
<rect x="2123.51" y="657" width="308.677" height="24.5484" rx="12.2742" fill="white"/>
<rect x="1892" y="708.435" width="726.493" height="31.5622" rx="15.7811" fill="white"/>
<path fill-rule="evenodd" clip-rule="evenodd" d="M2277.08 708.435H2394.43C2387 708.435 2380.98 702.416 2380.98 694.991C2380.98 687.567 2387 681.548 2394.43 681.548H2277.08C2284.51 681.548 2290.52 687.567 2290.52 694.991C2290.52 702.416 2284.51 708.435 2277.08 708.435Z" fill="white"/>
<rect x="3415" y="782" width="95.9103" height="24.5484" rx="12.2742" fill="white"/>
<rect x="3082.51" y="782" width="308.677" height="24.5484" rx="12.2742" fill="white"/>
<rect x="3214" y="884" width="308.677" height="24.5484" rx="12.2742" fill="white"/>
<rect x="2851" y="833.435" width="726.493" height="31.5622" rx="15.7811" fill="white"/>
<path fill-rule="evenodd" clip-rule="evenodd" d="M3236.08 833.435H3353.43C3346 833.435 3339.98 827.416 3339.98 819.991C3339.98 812.567 3346 806.548 3353.43 806.548H3236.08C3243.51 806.548 3249.52 812.567 3249.52 819.991C3249.52 827.416 3243.51 833.435 3236.08 833.435Z" fill="white"/>
<path fill-rule="evenodd" clip-rule="evenodd" d="M3250 883.886H3359.35C3354.13 883.886 3349.9 879.658 3349.9 874.443C3349.9 869.228 3354.13 865 3359.35 865H3250C3255.22 865 3259.44 869.228 3259.44 874.443C3259.44 879.658 3255.22 883.886 3250 883.886Z" fill="white"/>
<rect x="1846" y="293" width="95.9103" height="24.5484" rx="12.2742" fill="white"/>
<rect x="1513.51" y="293" width="308.677" height="24.5484" rx="12.2742" fill="white"/>
<rect x="1645" y="395" width="308.677" height="24.5484" rx="12.2742" fill="white"/>
<rect x="1282" y="344.435" width="726.493" height="31.5622" rx="15.7811" fill="white"/>
<path fill-rule="evenodd" clip-rule="evenodd" d="M1667.08 344.435H1784.43C1777 344.435 1770.98 338.416 1770.98 330.991C1770.98 323.567 1777 317.548 1784.43 317.548H1667.08C1674.51 317.548 1680.52 323.567 1680.52 330.991C1680.52 338.416 1674.51 344.435 1667.08 344.435Z" fill="white"/>
<path fill-rule="evenodd" clip-rule="evenodd" d="M1681 394.886H1790.35C1785.13 394.886 1780.9 390.658 1780.9 385.443C1780.9 380.228 1785.13 376 1790.35 376H1681C1686.22 376 1690.44 380.228 1690.44 385.443C1690.44 390.658 1686.22 394.886 1681 394.886Z" fill="white"/>
<rect x="3709.51" y="144" width="308.677" height="24.5484" rx="12.2742" fill="white"/>
<rect x="3841" y="246" width="308.677" height="24.5484" rx="12.2742" fill="white"/>
<rect x="3478" y="195.435" width="726.493" height="31.5622" rx="15.7811" fill="white"/>
<path fill-rule="evenodd" clip-rule="evenodd" d="M3863.08 195.435H3980.43C3973 195.435 3966.98 189.416 3966.98 181.991C3966.98 174.567 3973 168.548 3980.43 168.548H3863.08C3870.51 168.548 3876.52 174.567 3876.52 181.991C3876.52 189.416 3870.51 195.435 3863.08 195.435Z" fill="white"/>
<path fill-rule="evenodd" clip-rule="evenodd" d="M3877 245.886H3986.35C3981.13 245.886 3976.9 241.658 3976.9 236.443C3976.9 231.228 3981.13 227 3986.35 227H3877C3882.22 227 3886.44 231.228 3886.44 236.443C3886.44 241.658 3882.22 245.886 3877 245.886Z" fill="white"/>
<rect x="845" y="1184" width="95.9103" height="24.5484" rx="12.2742" fill="white"/>
<rect x="512.508" y="1184" width="308.677" height="24.5484" rx="12.2742" fill="white"/>
<rect x="437" y="1286" width="308.677" height="24.5484" rx="12.2742" fill="white"/>
<rect x="281" y="1235.43" width="726.493" height="31.5622" rx="15.7811" fill="white"/>
<path fill-rule="evenodd" clip-rule="evenodd" d="M666.081 1235.43H783.427C776.002 1235.43 769.984 1229.42 769.984 1221.99C769.984 1214.57 776.002 1208.55 783.427 1208.55H666.081C673.505 1208.55 679.524 1214.57 679.524 1221.99C679.524 1229.42 673.505 1235.43 666.081 1235.43Z" fill="white"/>
<path fill-rule="evenodd" clip-rule="evenodd" d="M473 1285.89H582.346C577.131 1285.89 572.903 1281.66 572.903 1276.44C572.903 1271.23 577.131 1267 582.346 1267H473C478.215 1267 482.443 1271.23 482.443 1276.44C482.443 1281.66 478.215 1285.89 473 1285.89Z" fill="white"/>
<rect x="659" y="543" width="95.9103" height="24.5484" rx="12.2742" fill="white"/>
<rect x="326.508" y="543" width="308.677" height="24.5484" rx="12.2742" fill="white"/>
<rect x="251" y="645" width="308.677" height="24.5484" rx="12.2742" fill="white"/>
<rect x="95" y="594.435" width="726.493" height="31.5622" rx="15.7811" fill="white"/>
<path fill-rule="evenodd" clip-rule="evenodd" d="M480.081 594.435H597.427C590.002 594.435 583.984 588.416 583.984 580.991C583.984 573.567 590.002 567.548 597.427 567.548H480.081C487.505 567.548 493.524 573.567 493.524 580.991C493.524 588.416 487.505 594.435 480.081 594.435Z" fill="white"/>
<path fill-rule="evenodd" clip-rule="evenodd" d="M287 644.886H396.346C391.131 644.886 386.903 640.658 386.903 635.443C386.903 630.228 391.131 626 396.346 626H287C292.215 626 296.443 630.228 296.443 635.443C296.443 640.658 292.215 644.886 287 644.886Z" fill="white"/>
<rect x="243" y="1663" width="95.9103" height="24.5484" rx="12.2742" fill="white"/>
<rect x="-89.4924" y="1663" width="308.677" height="24.5484" rx="12.2742" fill="white"/>
<rect x="-165" y="1765" width="308.677" height="24.5484" rx="12.2742" fill="white"/>
<rect x="-321" y="1714.43" width="726.493" height="31.5622" rx="15.7811" fill="white"/>
<path fill-rule="evenodd" clip-rule="evenodd" d="M64.0806 1714.43H181.427C174.002 1714.43 167.984 1708.42 167.984 1700.99C167.984 1693.57 174.002 1687.55 181.427 1687.55H64.0806C71.505 1687.55 77.5237 1693.57 77.5237 1700.99C77.5237 1708.42 71.505 1714.43 64.0806 1714.43Z" fill="white"/>
<rect x="3506" y="1085" width="726.493" height="31.5622" rx="15.7811" fill="white"/>
</svg>
