<svg width="3940" height="329" viewBox="0 0 3940 329" fill="none" xmlns="http://www.w3.org/2000/svg">
<rect x="2005.17" y="220" width="95.9103" height="24.5484" rx="12.2742" fill="white" fill-opacity="0.78"/>
<rect x="2159.51" y="220" width="308.677" height="24.5484" rx="12.2742" fill="white" fill-opacity="0.78"/>
<rect x="1928" y="271.435" width="726.493" height="31.5622" rx="15.7811" fill="white" fill-opacity="0.78"/>
<path fill-rule="evenodd" clip-rule="evenodd" d="M2313.08 271.435H2430.43C2423 271.435 2416.98 265.416 2416.98 257.992C2416.98 250.567 2423 244.548 2430.43 244.548H2313.08C2320.51 244.548 2326.52 250.567 2326.52 257.992C2326.52 265.416 2320.51 271.435 2313.08 271.435Z" fill="white" fill-opacity="0.78"/>
<rect x="3804.17" y="205" width="95.9103" height="24.5484" rx="12.2742" fill="white" fill-opacity="0.78"/>
<rect x="3727" y="256.435" width="726.493" height="31.5622" rx="15.7811" fill="white" fill-opacity="0.78"/>
<rect x="1369" width="95.9103" height="24.5484" rx="12.2742" fill="white" fill-opacity="0.78"/>
<rect x="1036.51" y="0.00012207" width="308.677" height="24.5484" rx="12.2742" fill="white" fill-opacity="0.78"/>
<rect x="1168" y="102" width="308.677" height="24.5484" rx="12.2742" fill="white" fill-opacity="0.78"/>
<rect x="805" y="51.4348" width="726.493" height="31.5622" rx="15.7811" fill="white" fill-opacity="0.78"/>
<path fill-rule="evenodd" clip-rule="evenodd" d="M1190.08 51.4348H1307.43C1300 51.4348 1293.98 45.4161 1293.98 37.9916C1293.98 30.5672 1300 24.5485 1307.43 24.5485H1190.08C1197.51 24.5485 1203.52 30.5672 1203.52 37.9916C1203.52 45.4161 1197.51 51.4348 1190.08 51.4348Z" fill="white" fill-opacity="0.78"/>
<path fill-rule="evenodd" clip-rule="evenodd" d="M1204 101.886H1313.35C1308.13 101.886 1303.9 97.6585 1303.9 92.4431C1303.9 87.2278 1308.13 83 1313.35 83H1204C1209.22 83 1213.44 87.2278 1213.44 92.4431C1213.44 97.6585 1209.22 101.886 1204 101.886Z" fill="white" fill-opacity="0.78"/>
<rect x="3524" y="20" width="95.9103" height="24.5484" rx="12.2742" fill="white" fill-opacity="0.78"/>
<rect x="3191.51" y="20.0001" width="308.677" height="24.5484" rx="12.2742" fill="white" fill-opacity="0.78"/>
<rect x="3323" y="122" width="308.677" height="24.5484" rx="12.2742" fill="white" fill-opacity="0.78"/>
<rect x="2960" y="71.4348" width="726.493" height="31.5622" rx="15.7811" fill="white" fill-opacity="0.78"/>
<path fill-rule="evenodd" clip-rule="evenodd" d="M3345.08 71.4348H3462.43C3455 71.4348 3448.98 65.4161 3448.98 57.9916C3448.98 50.5672 3455 44.5485 3462.43 44.5485H3345.08C3352.51 44.5485 3358.52 50.5672 3358.52 57.9916C3358.52 65.4161 3352.51 71.4348 3345.08 71.4348Z" fill="white" fill-opacity="0.78"/>
<path fill-rule="evenodd" clip-rule="evenodd" d="M3359 121.886H3468.35C3463.13 121.886 3458.9 117.658 3458.9 112.443C3458.9 107.228 3463.13 103 3468.35 103H3359C3364.22 103 3368.44 107.228 3368.44 112.443C3368.44 117.658 3364.22 121.886 3359 121.886Z" fill="white" fill-opacity="0.78"/>
<rect x="-131.492" y="246" width="308.677" height="24.5484" rx="12.2742" fill="white" fill-opacity="0.78"/>
<rect x="-363" y="297.435" width="726.493" height="31.5622" rx="15.7811" fill="white" fill-opacity="0.78"/>
<path fill-rule="evenodd" clip-rule="evenodd" d="M22.0806 297.435H139.427C132.002 297.435 125.984 291.416 125.984 283.992C125.984 276.567 132.002 270.548 139.427 270.548H22.0806C29.505 270.548 35.5237 276.567 35.5237 283.992C35.5237 291.416 29.505 297.435 22.0806 297.435Z" fill="white" fill-opacity="0.78"/>
</svg>
