<svg width="727" height="84" viewBox="0 0 727 84" fill="none" xmlns="http://www.w3.org/2000/svg">
<path fill-rule="evenodd" clip-rule="evenodd" d="M89.9506 0.169922C83.1717 0.169922 77.6764 5.66526 77.6764 12.4441C77.6764 19.2229 83.1717 24.7183 89.9506 24.7183H161.313C168.091 24.7183 173.587 19.2229 173.587 12.4441C173.587 5.66526 168.091 0.169922 161.313 0.169922H89.9506ZM244.289 0.169922C237.51 0.169922 232.015 5.66526 232.015 12.4441C232.015 19.2229 237.51 24.7183 244.289 24.7183H385.607C393.023 24.7286 399.031 30.7434 399.031 38.1614C399.031 45.5859 393.012 51.6046 385.588 51.6046H502.934C495.51 51.6046 489.491 45.5859 489.491 38.1614C489.491 30.7434 495.499 24.7286 502.915 24.7183H528.417C535.196 24.7183 540.692 19.2229 540.692 12.4441C540.692 5.66526 535.196 0.169922 528.417 0.169922H244.289ZM0.50708 67.3858C0.50708 58.6702 7.57252 51.6047 16.2882 51.6047H711.219C719.935 51.6047 727 58.6702 727 67.3858C727 76.1015 719.935 83.1669 711.219 83.1669H16.2881C7.57249 83.1669 0.50708 76.1015 0.50708 67.3858Z" fill="white"/>
</svg>
