<svg width="762" height="179" viewBox="0 0 762 179" fill="none" xmlns="http://www.w3.org/2000/svg">
<path fill-rule="evenodd" clip-rule="evenodd" d="M115 19.8725C115 8.89721 123.897 0 134.872 0H577.986C588.962 0 597.859 8.89721 597.859 19.8725C597.859 30.8477 588.962 39.745 577.986 39.745H563.39C562.06 41.7069 561.283 44.0741 561.283 46.6228C561.283 53.3951 566.768 58.8864 573.538 58.897H741.898C752.873 58.897 761.77 67.7942 761.77 78.7694C761.77 89.7447 752.873 98.6419 741.898 98.6419H415.436C404.486 98.6719 395.619 107.558 395.619 118.514C395.619 126.105 399.875 132.702 406.131 136.049H607.336C618.957 136.049 628.378 145.469 628.378 157.09C628.378 168.711 618.957 178.132 607.336 178.132H21.0415C9.42062 178.132 0 168.711 0 157.09C0 145.469 9.42058 136.049 21.0414 136.049H278.321C284.577 132.702 288.833 126.105 288.833 118.514C288.833 107.558 279.966 98.6719 269.016 98.6419H252.483C241.507 98.6419 232.61 89.7447 232.61 78.7694C232.61 67.7942 241.507 58.897 252.483 58.897H450.209C456.979 58.8864 462.464 53.3951 462.464 46.6228C462.464 44.0741 461.687 41.7069 460.357 39.745H134.872C123.897 39.745 115 30.8477 115 19.8725ZM665.172 136.049C655.81 136.049 648.221 143.638 648.221 152.999C648.221 162.36 655.81 169.949 665.171 169.949H744.82C754.182 169.949 761.77 162.36 761.77 152.999C761.77 143.638 754.182 136.049 744.82 136.049H665.172Z" fill="white"/>
</svg>
