<svg width="844" height="133" viewBox="0 0 844 133" fill="none" xmlns="http://www.w3.org/2000/svg">
<path fill-rule="evenodd" clip-rule="evenodd" d="M813.942 8.50479C813.942 4.30837 817.344 0.906494 821.541 0.906494H836.109C840.306 0.906494 843.708 4.30837 843.708 8.50479C843.708 12.7012 840.306 16.1031 836.109 16.1031H821.541C817.344 16.1031 813.942 12.7012 813.942 8.50479ZM559.284 37.729C559.284 30.9502 564.779 25.4548 571.558 25.4548H748.752C755.531 25.4548 761.026 30.9502 761.026 37.729C761.026 44.5079 755.531 50.0032 748.752 50.0032H571.558C564.779 50.0032 559.284 44.5079 559.284 37.729ZM735.671 64.6153C735.671 59.7733 739.596 55.848 744.438 55.848H789.741C794.583 55.848 798.508 59.7733 798.508 64.6153C798.508 69.4573 794.583 73.3826 789.741 73.3826H744.438C739.596 73.3826 735.671 69.4573 735.671 64.6153ZM782.571 25.4548C776.761 25.4548 772.05 30.1651 772.05 35.9756C772.05 41.786 776.761 46.4963 782.571 46.4963H824.367C830.178 46.4963 834.888 41.786 834.888 35.9756C834.888 30.1651 830.178 25.4548 824.367 25.4548H782.571ZM260.913 23.1169C260.913 16.6609 255.68 11.4272 249.224 11.4272H80.3157C73.8597 11.4272 68.626 16.6609 68.626 23.1169C68.626 29.573 73.8597 34.8066 80.3157 34.8066H148.98C153.932 36.9721 157.393 41.9146 157.393 47.6653C157.393 55.3962 151.139 61.6664 143.414 61.6929H141.062C140.615 61.6913 140.173 61.6689 139.737 61.6265V61.693L131.025 61.6929C122.955 61.6929 116.413 68.2349 116.413 76.305C116.413 84.375 122.955 90.9171 131.025 90.9171H676.388C684.458 90.9171 691 84.375 691 76.305C691 68.2349 684.458 61.6929 676.388 61.6929H227.869C220.144 61.6664 213.89 55.3962 213.89 47.6653C213.89 41.9146 217.351 36.9721 222.303 34.8066H249.224C255.68 34.8066 260.913 29.573 260.913 23.1169ZM555.751 101.438C564.466 101.438 571.532 108.503 571.532 117.219C571.532 125.935 564.466 133 555.751 133H367.718C359.003 133 351.937 125.935 351.937 117.219C351.937 108.503 359.003 101.438 367.718 101.438H555.751ZM53.8347 23.7014C53.8347 18.8593 49.9094 14.9341 45.0674 14.9341H9.12555C4.28351 14.9341 0.358276 18.8593 0.358276 23.7014C0.358276 28.5434 4.28351 32.4686 9.12555 32.4686H45.0674C49.9094 32.4686 53.8347 28.5434 53.8347 23.7014ZM423.498 101.438C426.403 101.438 428.758 99.0827 428.758 96.1775C428.758 93.2723 426.403 90.9171 423.498 90.9171H490.516C487.611 90.9171 485.256 93.2723 485.256 96.1775C485.256 99.0827 487.611 101.438 490.516 101.438H423.498Z" fill="white"/>
</svg>
