<svg width="73" height="67" viewBox="0 0 73 67" fill="none" xmlns="http://www.w3.org/2000/svg">
<mask id="mask0_76_4789" style="mask-type:luminance" maskUnits="userSpaceOnUse" x="0" y="0" width="73" height="67">
<path d="M72.0713 0.571533H0.928467V66.0642H72.0713V0.571533Z" fill="white"/>
</mask>
<g mask="url(#mask0_76_4789)">
<path fill-rule="evenodd" clip-rule="evenodd" d="M36.3938 0.571533C16.7824 0.571533 0.928467 15.5803 0.928467 34.148C0.928467 48.9903 11.0867 61.5542 25.1787 66.0007C26.9407 66.335 27.586 65.2784 27.586 64.3895C27.586 63.6111 27.5279 60.943 27.5279 58.1628C17.6623 60.1644 15.6078 54.1603 15.6078 54.1603C14.0224 50.269 11.6732 49.2689 11.6732 49.2689C8.44421 47.2119 11.9084 47.2119 11.9084 47.2119C15.4903 47.4342 17.3697 50.6584 17.3697 50.6584C20.5399 55.7724 25.6485 54.3275 27.7037 53.4377C27.9968 51.2696 28.9371 49.7689 29.9352 48.9352C22.0666 48.1568 13.7879 45.2661 13.7879 32.3688C13.7879 28.7 15.1963 25.6981 17.4278 23.3637C17.0757 22.53 15.8423 19.0828 17.7806 14.469C17.7806 14.469 20.7752 13.5793 27.5273 17.9155C30.4181 17.1805 33.3993 16.8066 36.3938 16.8035C39.3886 16.8035 42.4409 17.193 45.26 17.9155C52.0126 13.5793 55.0071 14.469 55.0071 14.469C56.9455 19.0828 55.7114 22.53 55.3593 23.3637C57.6498 25.6981 59 28.7 59 32.3688C59 45.2661 50.7214 48.1008 42.794 48.9352C44.0861 49.9912 45.201 51.9922 45.201 55.161C45.201 59.6638 45.1432 63.2774 45.1432 64.3886C45.1432 65.2784 45.7891 66.335 47.5502 66.0016C61.6424 61.5533 71.8007 48.9903 71.8007 34.148C71.8585 15.5803 55.9465 0.571533 36.3938 0.571533Z" fill="#03A5B2"/>
</g>
</svg>
