<svg width="47" height="64" viewBox="0 0 47 64" fill="none" xmlns="http://www.w3.org/2000/svg">
<path fill-rule="evenodd" clip-rule="evenodd" d="M38.4823 19.2868C38.4823 10.7987 31.7155 3.91772 23.3682 3.91772C15.0208 3.91772 8.25397 10.7987 8.25397 19.2868H38.4823Z" fill="#80D25B"/>
<path fill-rule="evenodd" clip-rule="evenodd" d="M29.7382 9.40503H31.8088V11.6006H29.7382V9.40503Z" fill="#80D25B"/>
<path fill-rule="evenodd" clip-rule="evenodd" d="M15.2438 9.40503H17.3144V11.6006H15.2438V9.40503Z" fill="#80D25B"/>
<path d="M19.1631 6.36192L16.0572 0.872965C15.6159 0.0931262 14.662 -0.159748 13.9266 0.308156C13.1911 0.776059 12.9526 1.78755 13.3939 2.56739L16.4998 8.05635C16.9411 8.83619 17.895 9.08907 18.6304 8.62116C19.3658 8.15326 19.6043 7.14176 19.1631 6.36192ZM30.5513 8.05635L33.6572 2.56739C34.0984 1.78755 33.86 0.776059 33.1245 0.308156C32.3891 -0.159748 31.4352 0.0931262 30.9939 0.872965L27.888 6.36192C27.4468 7.14176 27.6852 8.15326 28.4207 8.62116C29.1561 9.08907 30.11 8.83619 30.5513 8.05635Z" fill="#80D25B"/>
<path fill-rule="evenodd" clip-rule="evenodd" d="M14.744 52.2197H12.5012C10.3092 52.2197 8.53221 50.3431 8.53221 48.0101V21.4814H38.421V48.0101C38.421 50.335 36.6408 52.2197 34.452 52.2197H32.3724V59.8868C32.3724 61.7153 30.972 63.1976 29.2523 63.1976C27.5291 63.1976 26.1322 61.7229 26.1322 59.8868V52.2197H20.9842V59.8868C20.9842 61.7153 19.5837 63.1976 17.8641 63.1976C16.1409 63.1976 14.744 61.7229 14.744 59.8868V52.2197ZM40.5527 25.8114C40.5527 24.0263 41.9204 22.5792 43.5998 22.5792C45.2828 22.5792 46.647 24.0177 46.647 25.8114V43.4986C46.647 45.2836 45.2793 46.7307 43.5998 46.7307C41.9169 46.7307 40.5527 45.2922 40.5527 43.4986V25.8114ZM0.176208 25.8114C0.176208 24.0263 1.5439 22.5792 3.22339 22.5792C4.9063 22.5792 6.27057 24.0177 6.27057 25.8114V43.4986C6.27057 45.2836 4.90288 46.7307 3.22339 46.7307C1.54048 46.7307 0.176208 45.2922 0.176208 43.4986V25.8114Z" fill="#80D25B"/>
</svg>
