<svg width="3940" height="492" viewBox="0 0 3940 492" fill="none" xmlns="http://www.w3.org/2000/svg">
<path fill-rule="evenodd" clip-rule="evenodd" d="M1411.78 0H1347.15C1357.26 0 1365.46 8.19799 1365.46 18.3107C1365.46 28.4235 1357.26 36.6214 1347.15 36.6214H1270.99C1260.87 36.6214 1252.68 28.4235 1252.68 18.3107C1252.68 8.19799 1260.87 0 1270.99 0H0V228.549H316.103C314.786 226.652 314.015 224.349 314.015 221.865C314.015 215.382 319.27 210.127 325.752 210.127H553.993C560.476 210.127 565.731 215.382 565.731 221.865C565.731 224.349 564.959 226.652 563.642 228.549H1009.55C1012.38 225.347 1016.52 223.329 1021.13 223.329H1113.84C1118.45 223.329 1122.59 225.347 1125.42 228.549H1208.47C1211.3 225.347 1215.44 223.329 1220.05 223.329H1403.12C1412.38 223.23 1419.86 215.69 1419.86 206.404C1419.86 197.056 1412.28 189.478 1402.94 189.478H1553.38C1544.03 189.478 1536.45 197.056 1536.45 206.404C1536.45 215.69 1543.93 223.23 1553.19 223.329H1586.99C1591.6 223.329 1595.74 225.347 1598.57 228.549H2653.6C2656.81 223.255 2662.63 219.716 2669.27 219.716H2995.64C3002.28 219.716 3008.1 223.255 3011.31 228.549H3940V212.891V0H1738.15C1748.26 0 1756.46 8.19799 1756.46 18.3107C1756.46 28.4235 1748.26 36.6214 1738.15 36.6214H1411.78C1401.67 36.6214 1393.47 28.4235 1393.47 18.3107C1393.47 8.19799 1401.67 0 1411.78 0ZM3940 212.891C3940 221.226 3933.24 227.982 3924.91 227.982H3362.66C3354.32 227.982 3347.57 221.226 3347.57 212.891C3347.57 204.556 3354.32 197.8 3362.66 197.8H3659.93C3666.92 197.677 3672.55 191.969 3672.55 184.946C3672.55 177.846 3666.8 172.091 3659.7 172.091H3759.17C3752.07 172.091 3746.32 177.846 3746.32 184.946C3746.32 191.969 3751.95 197.677 3758.95 197.8H3924.91C3933.24 197.8 3940 204.556 3940 212.891ZM906.217 169.609C906.217 180.582 915.113 189.478 926.086 189.478H1822.7C1833.68 189.478 1842.57 180.582 1842.57 169.609C1842.57 158.636 1833.68 149.74 1822.7 149.74H1554.83C1550.95 147.23 1548.39 142.868 1548.39 137.907C1548.39 130.126 1554.7 123.819 1562.48 123.819H1427.93C1435.71 123.819 1442.01 130.126 1442.01 137.907C1442.01 142.868 1439.45 147.23 1435.57 149.74H926.086C915.113 149.74 906.217 158.636 906.217 169.609ZM3410.5 160.35C3410.5 153.868 3415.75 148.612 3422.24 148.612H3476.97C3483.45 148.612 3488.71 153.868 3488.71 160.35C3488.71 166.833 3483.45 172.088 3476.97 172.088H3422.24C3415.75 172.088 3410.5 166.833 3410.5 160.35ZM3548.09 148.612C3541.61 148.612 3536.36 153.868 3536.36 160.35C3536.36 166.833 3541.61 172.088 3548.09 172.088H3776.33C3782.82 172.088 3788.07 166.833 3788.07 160.35C3788.07 153.868 3782.82 148.612 3776.33 148.612H3548.09ZM477.924 124.323C477.924 117.841 483.179 112.586 489.661 112.586H544.398C550.88 112.586 556.136 117.841 556.136 124.323C556.136 130.806 550.88 136.061 544.398 136.061H489.661C483.179 136.061 477.924 130.806 477.924 124.323ZM218.525 112.586C212.042 112.586 206.787 117.841 206.787 124.323C206.787 130.806 212.042 136.061 218.525 136.061H446.765C453.248 136.061 458.503 130.806 458.503 124.323C458.503 117.841 453.248 112.586 446.765 112.586H218.525ZM33.0913 161.773C24.7566 161.773 18 168.529 18 176.864C18 185.199 24.7566 191.955 33.0913 191.955H595.34C603.675 191.955 610.432 185.199 610.432 176.864C610.432 168.529 603.675 161.773 595.34 161.773H33.0913ZM330.128 161.772H429.606C422.506 161.772 416.75 156.017 416.75 148.917C416.75 141.817 422.506 136.061 429.606 136.061H330.128C337.228 136.061 342.983 141.817 342.983 148.917C342.983 156.017 337.228 161.772 330.128 161.772ZM2005.16 76.7298C2018.16 76.7298 2028.7 87.27 2028.7 100.272C2028.7 113.274 2018.16 123.814 2005.16 123.814H1197.92C1184.92 123.814 1174.38 113.274 1174.38 100.272C1174.38 87.27 1184.92 76.7298 1197.92 76.7298H1433.88C1444.84 76.5916 1453.68 67.6665 1453.68 56.6768C1453.68 45.6009 1444.7 36.6222 1433.62 36.6222H1580.11C1569.03 36.6222 1560.06 45.6009 1560.06 56.6768C1560.06 67.6665 1568.89 76.5916 1579.85 76.7298H2005.16ZM2887.33 85.8624C2887.33 75.7497 2895.52 67.5517 2905.64 67.5517H2981.8C2991.91 67.5517 3000.11 75.7497 3000.11 85.8624C3000.11 95.9752 2991.92 104.173 2981.8 104.173H2905.64C2895.52 104.173 2887.33 95.9752 2887.33 85.8624ZM2514.64 67.5517C2504.53 67.5517 2496.33 75.7497 2496.33 85.8624C2496.33 95.9752 2504.53 104.173 2514.64 104.173H2841.01C2851.12 104.173 2859.32 95.9752 2859.32 85.8624C2859.32 75.7497 2851.12 67.5517 2841.01 67.5517H2514.64ZM2247.63 144.281C2234.63 144.281 2224.09 154.822 2224.09 167.824C2224.09 180.826 2234.63 191.366 2247.63 191.366H3054.87C3067.87 191.366 3078.41 180.826 3078.41 167.824C3078.41 154.822 3067.87 144.281 3054.87 144.281H2818.84C2807.92 144.109 2799.11 135.197 2799.11 124.229C2799.11 113.154 2808.09 104.175 2819.17 104.175H2672.68C2683.76 104.175 2692.73 113.154 2692.73 124.229C2692.73 135.197 2683.93 144.109 2673 144.281H2247.63ZM424.839 200.987C424.839 205.975 428.882 210.018 433.87 210.018H342.042C347.029 210.018 351.072 205.975 351.072 200.987C351.072 196 347.029 191.957 342.042 191.957H433.87C428.882 191.957 424.839 196 424.839 200.987ZM2824.86 219.547H2690.31C2698.09 219.547 2704.4 213.24 2704.4 205.459C2704.4 197.679 2698.09 191.372 2690.31 191.372H2824.86C2817.08 191.372 2810.78 197.679 2810.78 205.459C2810.78 213.24 2817.08 219.547 2824.86 219.547Z" fill="#EAEFF0"/>
<rect y="228.55" width="3940" height="263.451" fill="#D6E4E9"/>
<rect width="123.616" height="30.9076" rx="15.4538" transform="matrix(1 0 0 -1 1005.68 254.236)" fill="#D6E4E9"/>
<rect width="397.844" height="30.9076" rx="15.4538" transform="matrix(1 0 0 -1 1204.6 254.236)" fill="#D6E4E9"/>
<rect width="936.354" height="39.7383" rx="19.8692" transform="matrix(1 0 0 -1 906.217 189.479)" fill="#D6E4E9"/>
<path fill-rule="evenodd" clip-rule="evenodd" d="M1402.94 189.479H1553.38C1544.03 189.479 1536.45 197.057 1536.45 206.405C1536.45 215.752 1544.03 223.33 1553.38 223.33H1402.94C1412.28 223.33 1419.86 215.752 1419.86 206.405C1419.86 197.057 1412.28 189.479 1402.94 189.479Z" fill="#D6E4E9"/>
<rect x="3410.5" y="148.612" width="78.2118" height="23.4753" rx="11.7377" fill="#D6E4E9"/>
<rect x="3536.36" y="148.612" width="251.716" height="23.4753" rx="11.7377" fill="#D6E4E9"/>
<rect x="3347.57" y="197.8" width="592.432" height="30.1825" rx="15.0913" fill="#D6E4E9"/>
<path fill-rule="evenodd" clip-rule="evenodd" d="M3659.7 197.802H3759.17C3752.07 197.802 3746.32 192.046 3746.32 184.946C3746.32 177.846 3752.07 172.091 3759.17 172.091H3659.7C3666.8 172.091 3672.55 177.846 3672.55 184.946C3672.55 192.046 3666.8 197.802 3659.7 197.802Z" fill="#D6E4E9"/>
<rect x="477.924" y="112.586" width="78.2118" height="23.4753" rx="11.7377" fill="#D6E4E9"/>
<rect x="206.787" y="112.586" width="251.716" height="23.4753" rx="11.7377" fill="#D6E4E9"/>
<rect x="314.015" y="210.127" width="251.716" height="23.4753" rx="11.7377" fill="#D6E4E9"/>
<rect x="18" y="161.772" width="592.432" height="30.1825" rx="15.0913" fill="#D6E4E9"/>
<path fill-rule="evenodd" clip-rule="evenodd" d="M330.128 161.773H429.606C422.506 161.773 416.75 156.017 416.75 148.917C416.75 141.817 422.506 136.062 429.606 136.062H330.128C337.228 136.062 342.983 141.817 342.983 148.917C342.983 156.017 337.228 161.773 330.128 161.773Z" fill="#D6E4E9"/>
<path fill-rule="evenodd" clip-rule="evenodd" d="M342.042 210.018H433.87C428.882 210.018 424.839 205.975 424.839 200.987C424.839 196 428.882 191.957 433.87 191.957H342.042C347.029 191.957 351.072 196 351.072 200.987C351.072 205.975 347.029 210.018 342.042 210.018Z" fill="#D6E4E9"/>
<rect width="112.786" height="36.6214" rx="18.3107" transform="matrix(-1 0 0 1 1365.46 0)" fill="#D6E4E9"/>
<rect width="362.99" height="36.6214" rx="18.3107" transform="matrix(-1 0 0 1 1756.46 0)" fill="#D6E4E9"/>
<rect width="362.99" height="36.6214" rx="18.3107" transform="matrix(-1 0 0 1 1601.83 152.165)" fill="#D6E4E9"/>
<rect width="854.323" height="47.0847" rx="23.5424" transform="matrix(-1 0 0 1 2028.7 76.7295)" fill="#D6E4E9"/>
<path fill-rule="evenodd" clip-rule="evenodd" d="M1580.11 76.7313H1433.62C1444.7 76.7313 1453.68 67.7525 1453.68 56.6767C1453.68 45.6008 1444.7 36.6221 1433.62 36.6221H1580.11C1569.03 36.6221 1560.06 45.6008 1560.06 56.6767C1560.06 67.7525 1569.03 76.7313 1580.11 76.7313Z" fill="#D6E4E9"/>
<path fill-rule="evenodd" clip-rule="evenodd" d="M1562.48 151.994H1427.93C1435.71 151.994 1442.01 145.687 1442.01 137.907C1442.01 130.126 1435.71 123.819 1427.93 123.819H1562.48C1554.7 123.819 1548.39 130.126 1548.39 137.907C1548.39 145.687 1554.7 151.994 1562.48 151.994Z" fill="#D6E4E9"/>
<rect x="2887.33" y="67.5518" width="112.786" height="36.6214" rx="18.3107" fill="#D6E4E9"/>
<rect x="2496.33" y="67.5518" width="362.99" height="36.6214" rx="18.3107" fill="#D6E4E9"/>
<rect x="2650.96" y="219.717" width="362.99" height="36.6214" rx="18.3107" fill="#D6E4E9"/>
<rect x="2224.09" y="144.281" width="854.323" height="47.0847" rx="23.5424" fill="#D6E4E9"/>
<path fill-rule="evenodd" clip-rule="evenodd" d="M2672.68 144.284H2819.17C2808.09 144.284 2799.11 135.305 2799.11 124.229C2799.11 113.154 2808.09 104.175 2819.17 104.175H2672.68C2683.76 104.175 2692.73 113.154 2692.73 124.229C2692.73 135.305 2683.76 144.284 2672.68 144.284Z" fill="#D6E4E9"/>
<path fill-rule="evenodd" clip-rule="evenodd" d="M2690.31 219.547H2824.86C2817.08 219.547 2810.78 213.24 2810.78 205.459C2810.78 197.679 2817.08 191.372 2824.86 191.372H2690.31C2698.09 191.372 2704.4 197.679 2704.4 205.459C2704.4 213.24 2698.09 219.547 2690.31 219.547Z" fill="#D6E4E9"/>
</svg>
