<svg width="3940" height="2711" viewBox="0 0 3940 2711" fill="none" xmlns="http://www.w3.org/2000/svg">
<g clip-path="url(#clip0_243_4161)">
<path d="M3934 0H0V2264H3934V0Z" fill="#586C6E"/>
<path fill-rule="evenodd" clip-rule="evenodd" d="M0 2264H438.36C456.063 2176.21 468.427 2098.36 467.865 2090.97C461.964 1968.76 475.452 1932.72 574.645 1846.78C651.077 1780.47 720.484 1846.55 805.908 1799.65C953.152 1718.56 1001.77 1671.43 1072.3 1599.35C1205.49 1462.59 1466.54 1497.24 1495.2 1405.3C1519.09 1329.06 1726.74 1122.99 1814.7 1084.64C1933.28 1032.89 1968.97 973.058 2028.26 940.022C2104.97 897.052 2128.86 911.144 2220.46 911.144C2397.21 911.144 2356.75 1015.8 2481.23 1119.99C2658.54 1268.76 2718.11 1232.03 2771.22 1391.2C2824.61 1551.07 2851.59 1444.57 2953.87 1561.7C3077.23 1703.08 3066.27 1739.35 3032.83 1897.37C2978.6 2152.88 3300.63 2254.76 3299.22 2264H3934V0H0V2264Z" fill="#677D7F"/>
<path fill-rule="evenodd" clip-rule="evenodd" d="M0 2020.97C142.467 2036.91 306.571 2021.66 427.401 2025.12C437.236 2025.36 452.972 2020.27 468.146 2012.19C470.956 1982.85 477.7 1959.51 491.188 1936.64C466.741 1898.29 428.244 1743.74 458.592 1694.77C486.411 1649.95 500.18 1647.41 539.239 1615.29C587.29 1575.79 590.1 1517.57 634.498 1477.14C700.533 1416.85 891.051 1414.54 1009.07 1305.5C1027.62 1288.4 1115.29 1232.96 1129.62 1217.94C1152.66 1193.91 1190.03 1169.43 1217.85 1141.24C1254.66 1104.05 1318.73 1059.69 1371.28 1040.28C1467.94 1004.71 1648.91 937.481 1725.34 882.036C1771.42 848.538 1927.66 769.991 1988.64 767.219C2070.69 763.753 2199.67 755.206 2263.17 805.568C2346.63 872.102 2407.33 855.237 2443.29 971.672C2455.94 1012.33 2636.62 1110.52 2690.57 1121.83C2710.81 1126.22 2770.1 1141.47 2776.28 1156.03C2792.02 1193.68 2843.16 1224.87 2856.65 1286.55C2875.47 1373.42 2991.81 1408.07 3070.77 1472.99C3174.18 1558 3546.22 1686.68 3933.44 1799.19V0H0V2020.97Z" fill="#71898A"/>
<path fill-rule="evenodd" clip-rule="evenodd" d="M0 1509.26C134.88 1459.36 353.498 1477.84 486.13 1439.49C771.626 1356.55 953.433 1228.1 1170.36 1067.78C1341.49 941.177 1604.79 906.062 1796.15 779.694C1943.4 682.434 2222.43 630.224 2344.1 799.562C2419.69 904.445 2613.3 1104.28 2777.4 1115.83C2927.74 1126.69 2829.39 1391.2 3340.25 1476.91C3454.61 1496.09 3707.79 1627.31 3875.27 1621.99C3897.19 1621.3 3916.58 1622.23 3934.28 1624.3V0H0V1509.26Z" fill="#7A9294"/>
<path fill-rule="evenodd" clip-rule="evenodd" d="M1000.36 1000.09C978.442 1012.79 860.422 1058.07 835.694 1064.08C809.561 1070.55 798.321 1087.88 780.899 1099.2C757.295 1114.67 726.666 1162.49 711.211 1183.98C645.738 1273.85 713.178 1229.72 583.356 1286.55C580.827 1287.71 579.984 1289.33 578.298 1291.87C541.768 1342.46 630.283 1355.86 673.557 1335.07C723.294 1311.04 764.32 1284.7 815.743 1259.06C861.827 1236.19 901.448 1204.31 934.606 1187.91C935.449 1187.45 1141.7 1048.37 1143.67 1046.75C1191.16 1003.32 1197.62 1013.49 1191.72 956.425C1186.94 912.993 1016.38 990.847 1000.36 1000.09Z" fill="#71888A"/>
<path fill-rule="evenodd" clip-rule="evenodd" d="M0 1623.84C104.532 1582.49 193.609 1545.99 225.924 1532.82C370.358 1473.91 361.085 1463.98 468.708 1388.43C528.28 1346.62 567.058 1255.13 601.059 1201.31C755.328 958.042 859.86 958.966 1158.56 894.973C1311.71 862.168 1312.83 910.913 1354.7 1036.82C1412.03 1209.39 1377.18 1048.83 1397.13 914.61C1433.94 668.804 1487.61 922.233 1497.45 941.639C1505.6 958.042 1502.51 1037.28 1513.47 947.184C1529.76 812.499 1635.42 709.233 1647.5 790.09C1653.4 829.363 1671.67 885.27 1680.38 809.727C1683.75 781.542 1769.46 688.672 1968.69 571.313C2264.02 397.355 2323.03 586.561 2534.9 740.189C2593.07 782.466 2644.21 814.116 2691.98 840.221C2711.65 868.868 2731.04 903.521 2734.69 942.794C2738.35 982.068 2748.74 1003.32 2747.62 1051.6C2746.21 1107.05 2755.77 1197.84 2751.55 1249.82C2759.98 1184.67 2765.6 1155.33 2780.78 1093.42C2787.8 1064.77 2784.71 1027.81 2793.98 990.615C2796.51 980.451 2802.41 941.177 2820.68 950.187C2845.97 962.662 2866.48 952.266 2863.95 1003.09C2863.67 1008.64 2868.45 1119.52 2883.62 1079.1C2890.37 1061.77 2895.14 1018.11 2925.77 1053.22C2955.28 1087.18 2926.9 1177.28 2955.56 1159.95C2962.86 1155.56 2963.15 1020.42 3018.22 1089.72C3042.39 1120.22 2986.19 1131.31 3078.92 1131.31C3088.47 1108.44 3072.74 1080.25 3107.58 1086.03C3164.62 1095.5 3115.73 1317.51 3161.81 1199.69C3163.78 1194.61 3179.8 1101.27 3179.8 1093.42C3179.8 1089.95 3179.52 1086.26 3178.95 1082.1C3484.68 1299.26 3413.87 1577.18 3848.58 1736.81C3868.53 1744.2 3901.69 1761.3 3933.16 1777.01V0H0V1623.84Z" fill="#809B9D"/>
<path fill-rule="evenodd" clip-rule="evenodd" d="M3128.65 2001.85L2821.24 1954.19L2575.65 1953L2060.29 2026.93L621.572 2020.75L0 1960.37V2212L2690 2219.5L3934 2212V1963.82L3524.58 1962.27L3128.65 2001.85Z" fill="#3B9DA8"/>
<path fill-rule="evenodd" clip-rule="evenodd" d="M3128.72 2060.87L2821.24 2028.7L2575.6 2027.9L2060.14 2077.8L621.128 2073.62L569.132 2070.26C580.093 2072.74 590.492 2075.39 600.61 2078.2C700.385 2106.83 933.663 2130.66 1070.54 2133.23C1167.22 2135.07 1275.71 2145.9 1369.3 2132.26C1447.15 2120.87 1677.34 2149.59 1760.25 2159.3C1824.33 2166.84 2412.02 2174.86 2488.19 2166.19C2836.42 2126.41 2927.48 2110.68 3284.42 2110.68C3364.52 2110.68 3477.79 2077.72 3435.63 2040.01L3128.72 2060.87Z" fill="#40A8B3"/>
<path fill-rule="evenodd" clip-rule="evenodd" d="M2571.98 1954.21L2064.73 2043.3C2115.2 2039.44 1910.62 2082 2080.79 2060.68C2097.23 2058.64 2371.93 2000.81 2412.07 1995.99C2529.13 1981.91 2573.25 1967.15 2571.36 1963.81C2570.6 1962.5 2585.89 1952.35 2571.98 1954.21Z" fill="#4EAFBA"/>
<path fill-rule="evenodd" clip-rule="evenodd" d="M0 488.608V1269.92V1952.82H344.225C334.109 1824.37 316.968 1518.73 349.002 1417.31C386.937 1296.95 401.549 1282.16 458.592 1292.56C472.923 1531.9 468.989 1717.41 451.005 1953.05H744.65C744.931 1951.43 723.575 1393.51 724.98 1386.82C782.023 1067.55 672.714 712.698 942.193 712.698C1231.9 712.698 1637.39 628.375 1878.77 399.896C2042.03 244.882 2256.43 492.304 2455.66 487.453C2656.29 482.371 2787.24 710.388 3004.45 723.325C3352.33 744.117 3260.16 1701.7 3185.98 1944.96C3185.14 1947.73 3184.57 1950.27 3184.01 1952.82H3934V1331.83V378.873V0H0V488.608ZM3510.53 1106.82C3521.49 1046.75 3522.33 960.583 3536.39 876.953C3560.83 895.204 3579.94 912.762 3591.74 928.933C3785.07 1193.68 3933.16 1425.16 3753.6 1722.95C3714.54 1787.64 3645.41 1867.11 3580.22 1947.04C3588.93 1915.16 3590.62 1879.35 3583.59 1843.77C3551 1679.29 3478.78 1278.93 3510.53 1106.82Z" fill="#889EA0"/>
<path fill-rule="evenodd" clip-rule="evenodd" d="M1947.89 901.442C1945.08 903.521 1906.58 919.923 1895.06 931.243C1875.96 949.725 1843.64 978.833 1817.51 988.536C1756.81 1010.95 1793.9 1035.66 1800.37 1032.89C1823.97 1023.19 1839.99 1036.36 1889.44 1010.71C1907.71 1001.24 1910.52 1000.55 1927.1 987.612C1940.3 977.216 2017.02 916.227 2017.02 906.062C2017.3 887.811 1959.13 892.894 1947.89 901.442Z" fill="#71888A"/>
<path fill-rule="evenodd" clip-rule="evenodd" d="M2655.17 0H2099.91H1457.55H1309.18H728.914H462.807H0V1509.26V2264H643.209C578.298 2169.05 511.982 2034.83 456.625 1962.98C371.201 1852.32 317.249 1672.36 301.513 1575.79C184.336 855.237 463.369 1145.63 593.753 643.392C626.068 575.703 713.178 559.069 734.534 507.783C759.824 446.331 807.313 360.623 821.082 453.493L886.274 1303.19L945.003 572.7C947.532 541.281 995.583 375.87 1039.98 441.249C1048.13 453.031 1098.43 432.239 1102.64 464.12L1174.58 1018.34C1198.18 808.571 1192 633.92 1235.56 452.338C1258.6 355.54 1256.91 301.02 1341.49 326.663C1394.32 342.834 1399.94 457.651 1424.95 606.891C1490.99 210.229 1552.81 216.697 1808.8 180.658C1838.58 187.358 1870.9 193.364 1906.3 198.216C2182.53 236.796 2204.73 520.72 2257.55 694.678L2315.44 424.616C2341.57 345.144 2334.27 319.732 2354.78 314.65C2378.95 308.412 2408.17 295.244 2409.86 390.193C2411.54 477.75 2482.35 497.618 2484.6 518.179C2513.54 790.09 2524.22 1092.96 2531.25 1058.3C2539.12 1021.11 2601.5 624.448 2649.27 394.814C2672.87 281.614 2692.26 376.794 2727.95 409.368C2752.11 431.315 2802.69 420.919 2807.47 481.909L2887.56 1492.16L3014.57 656.56C3046.04 448.642 3094.65 402.207 3130.62 631.61L3202.56 1086.95L3306.25 523.03C3325.35 450.259 3363.01 530.885 3382.96 549.598C3408.81 573.624 3466.42 554.68 3475.13 613.359L3548.75 1359.56L3616.75 730.949C3640.92 638.078 3688.69 693.754 3704.42 693.292C3790.97 690.982 3783.38 714.315 3794.91 772.301L3934 1727.34V0H3446.46H2655.17Z" fill="#8CA5A7"/>
<path fill-rule="evenodd" clip-rule="evenodd" d="M2655.17 0H2099.91H1831.28C1943.68 76.2367 2034.16 171.186 2260.64 171.186C2361.8 171.186 2420.25 164.949 2519.73 175.113C2622.57 185.509 2605.71 216.235 2704.06 240.723C2717.55 243.958 2737.5 280.228 2740.03 289.7C2768.41 294.551 2824.61 380.953 2946.85 316.498C3007.54 284.617 3087.63 388.576 3245.55 258.743C3298.1 215.542 3361.88 187.127 3433.26 226.169C3482.43 253.198 3413.87 442.173 3577.69 477.981C3578.53 478.212 3742.64 567.617 3788.72 575.472C3835.37 583.327 3881.45 621.214 3934 636.923V0H3446.46H2655.17Z" fill="#8CA5A7"/>
<path fill-rule="evenodd" clip-rule="evenodd" d="M2655.17 0H2099.91H2078.56C2082.21 6.23755 2085.3 12.9371 2088.11 20.0988C2100.19 51.5176 2156.96 100.956 2198.54 99.5698C2226.92 98.6457 2258.12 114.355 2305.04 103.728C2337.08 96.3355 2494.16 91.022 2524.78 105.114C2547.83 115.741 2673.43 143.464 2691.7 162.869C2715.02 187.358 2828.83 198.215 2872.38 213.001C2916.5 228.017 3113.48 182.275 3157.88 152.011C3158.44 151.78 3279.55 114.124 3302.87 103.959C3361.88 78.0849 3387.45 77.8539 3453.77 91.2531C3547.34 109.966 3536.67 238.875 3635.86 302.175C3757.53 379.798 3719.03 422.998 3934 422.998V0H3446.46H2655.17Z" fill="#8CA5A7"/>
<path fill-rule="evenodd" clip-rule="evenodd" d="M462.526 0H0V1509.26V1695.69C20.513 1697.77 41.869 1696.61 64.349 1691.76C121.392 1679.29 201.196 1542.75 140.219 1542.75C118.301 1542.75 110.995 1535.36 105.094 1528.2C50.018 1461.2 88.796 1302.72 148.93 1239.42C208.502 1176.82 158.765 1030.81 279.033 899.132C378.226 790.783 356.589 515.869 371.482 498.542C372.044 498.08 392.557 416.299 424.591 379.336C448.195 352.306 474.328 313.033 517.602 300.789C538.958 294.782 627.473 252.274 671.028 246.268C741.559 236.334 817.148 107.887 891.332 74.6196C904.82 68.8441 974.227 18.2506 1015.53 0H728.914H462.526Z" fill="#8CA5A7"/>
<path fill-rule="evenodd" clip-rule="evenodd" d="M462.526 0H0V39.5045C50.861 38.5804 105.375 45.049 128.979 55.4449C163.261 70.4612 211.031 85.2465 243.065 108.349C281.843 136.302 407.169 174.189 457.749 157.556C522.941 136.071 531.652 136.071 592.91 103.728C629.159 84.5535 687.607 36.0392 738.187 0.23102H728.914H462.526V0Z" fill="#8CA5A7"/>
<path fill-rule="evenodd" clip-rule="evenodd" d="M245.624 378.225C199.54 368.06 155.423 340.8 129.009 334.1C121.422 332.021 76.1813 313.308 50.6103 306.609C50.6103 306.609 6.98663 475.731 5.77509 586.682C4.47476 705.764 50.6103 887.856 50.6103 887.856C80.3963 892.708 101.752 868.45 164.134 889.704C210.78 905.414 221.458 880.464 241.409 849.969C280.187 791.059 288.898 746.01 278.22 676.242C265.575 590.764 283.84 577.827 295.361 501.128C301.543 461.624 304.353 391.162 245.624 378.225Z" fill="#96B1B4"/>
<path fill-rule="evenodd" clip-rule="evenodd" d="M652.763 323.66C548.793 355.309 503.552 435.242 503.552 521.644C503.552 556.759 498.213 567.848 492.312 597.188C488.378 616.593 442.294 657.022 441.732 666.032C438.922 720.553 400.144 765.833 400.144 841.145C400.144 874.643 403.797 859.396 409.417 856.162C434.426 842.763 465.898 803.951 468.427 779.694C470.956 752.896 490.345 724.711 494.56 705.767C509.734 640.158 606.117 552.601 604.431 519.796C601.621 467.123 670.185 359.699 720.765 341.217C773.874 311.184 661.193 321.118 652.763 323.66Z" fill="#9EBCBF"/>
<path fill-rule="evenodd" clip-rule="evenodd" d="M3522.62 1476.45L3105.61 1909.15L2785.55 1952.82L2557.38 2264H3934V1574.87L3726.62 1682.06L3522.62 1476.45Z" fill="#96B1B4"/>
<path fill-rule="evenodd" clip-rule="evenodd" d="M3591.18 1746.98L3560.27 1970.84L3661.43 2176.44L3553.81 2120.54H3380.43L3428.76 2264H3934V1574.87L3734.77 1752.06L3591.18 1746.98Z" fill="#8CA5A7"/>
<path fill-rule="evenodd" clip-rule="evenodd" d="M2785.55 1952.82L2557.38 2264H3196.66L3163.22 2051.92L3351.49 2038.52L3522.62 1476.45L3105.61 1909.15L2785.55 1952.82Z" fill="#9EBCBF"/>
<path fill-rule="evenodd" clip-rule="evenodd" d="M928.143 2075.49L805.908 1799.65L577.455 1767.77L371.201 1459.82L0 1350.55V2264H1187.22L1077.63 2111.53L928.143 2075.49Z" fill="#96B1B4"/>
<path fill-rule="evenodd" clip-rule="evenodd" d="M928.143 2075.49L805.908 1799.65L577.455 1767.77L371.201 1459.82L158.484 1397.21L298.141 1537.67L322.307 1792.03L498.213 2034.83L321.745 2264H1187.22L1077.63 2111.53L928.143 2075.49Z" fill="#9EBCBF"/>
<path fill-rule="evenodd" clip-rule="evenodd" d="M129.26 1716.25L0 1456.35V2263.54L262.454 2264L220.585 1816.28L129.26 1716.25Z" fill="#8CA5A7"/>
<path fill-rule="evenodd" clip-rule="evenodd" d="M232.668 178.348C203.444 147.853 75.027 83.6294 35.687 81.0881C10.116 198.215 96.102 232.175 194.733 295.937C202.882 301.251 352.655 293.165 361.085 283.231C402.673 234.717 256.553 203.298 232.668 178.348Z" fill="#96B1B4"/>
<path fill-rule="evenodd" clip-rule="evenodd" d="M905.944 511.71C870.257 373.791 854.521 425.54 854.521 527.651C854.521 556.99 862.108 612.204 860.984 634.151C859.579 664.415 883.464 904.907 891.613 904.907C891.613 841.838 916.06 739.958 913.531 691.906C909.878 619.135 919.994 566 905.944 511.71Z" fill="#9EBCBF"/>
<path fill-rule="evenodd" clip-rule="evenodd" d="M1174.86 638.54C1167.84 565.769 1172.33 512.634 1158.28 458.344C1122.59 320.425 1113.6 372.174 1119.5 474.285C1121.19 503.624 1130.18 558.838 1130.74 580.785C1131.31 611.049 1163.9 851.541 1170.08 851.541C1166.71 788.704 1179.64 686.593 1174.86 638.54Z" fill="#9EBCBF"/>
<path fill-rule="evenodd" clip-rule="evenodd" d="M703.062 768.836C573.521 826.822 639.275 981.375 607.522 1022.5C541.487 1108.2 643.771 1196.92 624.944 1234.11C605.836 1272 608.084 1362.56 608.084 1407.38C608.084 1435.1 615.671 1486.85 614.547 1504.87C612.861 1539.75 654.73 1575.79 687.045 1567.47C700.814 1564.01 689.293 1480.84 687.326 1466.75C682.549 1434.87 682.83 1427.24 682.83 1394.44C682.83 1362.79 701.095 1195.99 712.054 1174.28C719.36 1159.95 720.203 1042.36 715.988 1026.19C707.277 990.616 733.129 804.413 750.832 780.849C756.733 772.994 756.733 744.81 703.062 768.836Z" fill="#96B1B4"/>
<path fill-rule="evenodd" clip-rule="evenodd" d="M3415.27 964.972C3436.91 889.198 3395.32 786.625 3320.3 739.496C3304.56 729.563 3294.44 784.545 3291.91 801.872C3281.24 872.795 3292.76 946.491 3282.64 1005.86C3262.97 1124.15 3315.8 1305.73 3315.8 1433.02C3315.8 1489.16 3290.79 1607.21 3330.41 1645.33C3338 1652.72 3380.71 1588.27 3386.61 1580.18C3416.12 1540.21 3421.17 1435.33 3421.17 1385.43C3421.17 1339.92 3392.23 1266.22 3390.55 1221.17C3390.26 1210.78 3414.99 966.821 3415.27 964.972Z" fill="#96B1B4"/>
</g>
<path d="M3911.56 2291.86C4303.51 2291.86 3911.56 2235.17 3911.56 2235.17C3911.53 2232.62 3592.4 2222.75 3340.5 2217.27C2450.75 2197.89 575.118 2175.99 407.5 2218.16C192.428 2272.27 -36.5183 2235.17 -36.5183 2235.17C-36.5183 2235.17 -92.5123 2251.42 8.47681 2291.86C109.466 2332.31 231.953 2313.53 179.958 2367.34C127.964 2421.15 582 2411.57 299.5 2440.29C16.9999 2469 492 2494.09 492 2494.09C492 2494.09 810.479 2486.94 620 2533.17C429.52 2579.39 1005.5 2561.62 1016.5 2596.65C1027.5 2631.68 1120.01 2609.8 1232 2623.17C1244.07 2624.61 1007.14 2713.66 1150.5 2695.96C1293.86 2678.26 2139 2736.17 1895.27 2695.96C1651.55 2655.76 2778.48 2660.13 2522 2636.17C2004.55 2587.81 2993.26 2609.64 3210.13 2596.65C3427 2583.67 2530.39 2529.67 3286.5 2494.09C4042.61 2458.52 3264.53 2435.47 3507 2414.17C3749.47 2392.86 3956.55 2370.23 3687.58 2367.34C3418.61 2364.45 3519.6 2291.86 3911.56 2291.86Z" fill="url(#paint0_linear_243_4161)"/>
<defs>
<linearGradient id="paint0_linear_243_4161" x1="1998" y1="2194.27" x2="1971.5" y2="2833.77" gradientUnits="userSpaceOnUse">
<stop offset="0.178333" stop-color="#3B9DA8"/>
<stop offset="0.863333" stop-color="#3B9DA8" stop-opacity="0.15"/>
</linearGradient>
<clipPath id="clip0_243_4161">
<rect width="3934" height="2264" fill="white"/>
</clipPath>
</defs>
</svg>
