<svg width="3854" height="289" viewBox="0 0 3854 289" fill="none" xmlns="http://www.w3.org/2000/svg">
<rect width="76.7443" height="21.564" rx="10.782" transform="matrix(1 0 0 -1 1894.93 95.7456)" fill="#D6E4E9" fill-opacity="0.21"/>
<rect width="246.993" height="21.564" rx="10.782" transform="matrix(1 0 0 -1 2018.43 95.7456)" fill="#D6E4E9" fill-opacity="0.21"/>
<rect width="581.316" height="27.7251" rx="13.8626" transform="matrix(1 0 0 -1 1833.18 50.5642)" fill="#D6E4E9" fill-opacity="0.21"/>
<path fill-rule="evenodd" clip-rule="evenodd" d="M2140.26 50.5642H2236.26C2229.74 50.5642 2224.45 55.8512 2224.45 62.373C2224.45 68.8949 2229.74 74.1819 2236.26 74.1819H2140.26C2146.78 74.1819 2152.07 68.8949 2152.07 62.373C2152.07 55.8512 2146.78 50.5642 2140.26 50.5642Z" fill="#D6E4E9" fill-opacity="0.21"/>
<rect width="76.7443" height="21.564" rx="10.782" transform="matrix(1 0 0 -1 3334.43 108.922)" fill="#D6E4E9" fill-opacity="0.21"/>
<rect width="246.993" height="21.564" rx="10.782" transform="matrix(1 0 0 -1 3457.93 108.922)" fill="#D6E4E9" fill-opacity="0.21"/>
<rect width="581.316" height="27.7251" rx="13.8626" transform="matrix(1 0 0 -1 3272.68 63.7405)" fill="#D6E4E9" fill-opacity="0.21"/>
<path fill-rule="evenodd" clip-rule="evenodd" d="M3579.76 63.7405H3675.76C3669.24 63.7405 3663.95 69.0275 3663.95 75.5493C3663.95 82.0712 3669.24 87.3582 3675.76 87.3582H3579.76C3586.28 87.3582 3591.57 82.0712 3591.57 75.5493C3591.57 69.0275 3586.28 63.7405 3579.76 63.7405Z" fill="#D6E4E9" fill-opacity="0.21"/>
<rect width="76.7443" height="21.564" rx="10.782" transform="matrix(1 0 0 -1 1385.89 289)" fill="#D6E4E9" fill-opacity="0.21"/>
<rect width="246.993" height="21.564" rx="10.782" transform="matrix(1 0 0 -1 1119.84 289)" fill="#D6E4E9" fill-opacity="0.21"/>
<rect width="246.993" height="21.564" rx="10.782" transform="matrix(1 0 0 -1 1225.06 199.4)" fill="#D6E4E9" fill-opacity="0.21"/>
<rect width="581.316" height="27.7251" rx="13.8626" transform="matrix(1 0 0 -1 934.595 243.818)" fill="#D6E4E9" fill-opacity="0.21"/>
<path fill-rule="evenodd" clip-rule="evenodd" d="M1241.67 243.818H1337.67C1331.15 243.818 1325.87 249.105 1325.87 255.627C1325.87 262.149 1331.15 267.436 1337.67 267.436H1241.67C1248.2 267.436 1253.48 262.149 1253.48 255.627C1253.48 249.105 1248.2 243.818 1241.67 243.818Z" fill="#D6E4E9" fill-opacity="0.21"/>
<path fill-rule="evenodd" clip-rule="evenodd" d="M1253.12 199.5H1342.1C1337.52 199.5 1333.8 203.214 1333.8 207.795C1333.8 212.376 1337.52 216.09 1342.1 216.09H1253.12C1257.71 216.09 1261.42 212.376 1261.42 207.795C1261.42 203.214 1257.71 199.5 1253.12 199.5Z" fill="#D6E4E9" fill-opacity="0.21"/>
<rect width="76.7443" height="21.564" rx="10.782" transform="matrix(1 0 0 -1 3110.25 271.432)" fill="#D6E4E9" fill-opacity="0.21"/>
<rect width="246.993" height="21.564" rx="10.782" transform="matrix(1 0 0 -1 2844.2 271.432)" fill="#D6E4E9" fill-opacity="0.21"/>
<rect width="246.993" height="21.564" rx="10.782" transform="matrix(1 0 0 -1 2949.42 181.832)" fill="#D6E4E9" fill-opacity="0.21"/>
<rect width="581.316" height="27.7251" rx="13.8626" transform="matrix(1 0 0 -1 2658.96 226.25)" fill="#D6E4E9" fill-opacity="0.21"/>
<path fill-rule="evenodd" clip-rule="evenodd" d="M2966.03 226.249H3062.03C3055.51 226.249 3050.22 231.536 3050.22 238.058C3050.22 244.58 3055.51 249.867 3062.03 249.867H2966.03C2972.55 249.867 2977.84 244.58 2977.84 238.058C2977.84 231.536 2972.55 226.249 2966.03 226.249Z" fill="#D6E4E9" fill-opacity="0.21"/>
<path fill-rule="evenodd" clip-rule="evenodd" d="M2977.48 181.931H3066.46C3061.87 181.931 3058.16 185.645 3058.16 190.226C3058.16 194.808 3061.87 198.521 3066.46 198.521H2977.48C2982.06 198.521 2985.78 194.808 2985.78 190.226C2985.78 185.645 2982.06 181.931 2977.48 181.931Z" fill="#D6E4E9" fill-opacity="0.21"/>
<rect width="76.7443" height="21.564" rx="10.782" transform="matrix(1 0 0 -1 61.7483 72.9065)" fill="#D6E4E9" fill-opacity="0.21"/>
<rect width="246.993" height="21.564" rx="10.782" transform="matrix(1 0 0 -1 185.245 72.9065)" fill="#D6E4E9" fill-opacity="0.21"/>
<rect width="581.316" height="27.7251" rx="13.8626" transform="matrix(1 0 0 -1 0 27.7249)" fill="#D6E4E9" fill-opacity="0.21"/>
<path fill-rule="evenodd" clip-rule="evenodd" d="M307.078 27.7248H403.078C396.557 27.7248 391.27 33.0118 391.27 39.5337C391.27 46.0555 396.557 51.3425 403.078 51.3425H307.078C313.599 51.3425 318.886 46.0555 318.886 39.5337C318.886 33.0118 313.599 27.7248 307.078 27.7248Z" fill="#D6E4E9" fill-opacity="0.21"/>
</svg>
