<svg width="127" height="155" viewBox="0 0 127 155" fill="none" xmlns="http://www.w3.org/2000/svg">
<path d="M114.796 21.146C109.795 21.146 105.733 17.0794 105.733 12.0834C105.733 7.08515 109.795 3.02051 114.796 3.02051C119.787 3.02051 123.858 7.08515 123.858 12.0834C123.858 17.0797 119.787 21.146 114.796 21.146Z" fill="#E6E9ED"/>
<path d="M114.796 0H108.751H103.282H12.0828C5.40979 0 0 5.41177 0 12.0851V125.921C0 129.787 3.13401 132.921 7 132.921H101.751C105.617 132.921 108.751 129.787 108.751 125.921V30.2126C108.751 26.8742 111.458 24.1679 114.796 24.1679C121.469 24.1679 126.876 18.7581 126.876 12.0851C126.876 5.41177 121.469 0 114.796 0ZM114.796 18.1252C111.46 18.1252 108.751 15.4168 108.751 12.0848C108.751 8.75254 111.46 6.0424 114.796 6.0424C118.123 6.0424 120.832 8.75254 120.832 12.0848C120.832 15.4171 118.123 18.1252 114.796 18.1252Z" fill="#CDE1E9"/>
<path d="M24.1677 0C17.4992 0 12.0917 5.4027 12.0852 12.0695C12.0852 12.074 12.0829 12.0805 12.0829 12.0851V120.836H96.6708V0H24.1677Z" fill="#F5F7FA"/>
<path d="M96.6709 145L84.5858 141.982L72.5013 145V119.043H96.6709V145Z" fill="#DA4453"/>
<path d="M102.707 114.697C102.707 124.707 94.5954 132.823 84.5856 132.823C74.5718 132.823 66.4581 124.707 66.4581 114.697C66.4581 104.688 74.5718 96.5723 84.5856 96.5723C94.5954 96.5723 102.707 104.688 102.707 114.697Z" fill="#ED5564"/>
<path d="M90.6259 114.701C90.6259 118.037 87.9178 120.745 84.5855 120.745C81.249 120.745 78.5451 118.037 78.5451 114.701C78.5451 111.364 81.2487 108.66 84.5855 108.66C87.9178 108.66 90.6259 111.364 90.6259 114.701Z" fill="#F5F7FA"/>
<path d="M81.5635 42.29H27.1879C25.5196 42.29 24.1677 43.6443 24.1677 45.3102C24.1677 46.9808 25.5196 48.3324 27.1879 48.3324H81.5635C83.2318 48.3324 84.5812 46.9805 84.5812 45.3102C84.5814 43.6443 83.2318 42.29 81.5635 42.29Z" fill="#656D78"/>
<path d="M27.1879 30.2072H81.5635C83.2318 30.2072 84.5812 28.8552 84.5812 27.185C84.5812 25.519 83.2315 24.165 81.5635 24.165H27.1879C25.5196 24.165 24.1677 25.519 24.1677 27.185C24.1677 28.8555 25.5196 30.2072 27.1879 30.2072Z" fill="#656D78"/>
<path d="M81.5636 60.415H27.1879C25.5197 60.415 24.1677 61.767 24.1677 63.4352C24.1677 65.1058 25.5197 66.4574 27.1879 66.4574H81.5636C83.2318 66.4574 84.5812 65.1055 84.5812 63.4352C84.5815 61.767 83.2318 60.415 81.5636 60.415Z" fill="#656D78"/>
<path d="M54.3757 78.541H27.1879C25.5197 78.541 24.1677 79.8907 24.1677 81.5589C24.1677 83.2315 25.5197 84.5811 27.1879 84.5811H54.3757C56.044 84.5811 57.396 83.2315 57.396 81.5589C57.396 79.8907 56.044 78.541 54.3757 78.541Z" fill="#656D78"/>
<path d="M71.7452 124.027H96.2976L96.4354 155L84.0617 143.31L71.8831 155L71.7452 124.027Z" fill="#EF4836"/>
<path d="M84.0164 124.028L84.0568 143.315L84.0624 143.31L96.4361 155L96.2981 124.028H84.0164Z" fill="#C0392B"/>
<path d="M71.779 131.589L71.7846 132.846L73.7277 136.39L77.3415 135.904L80.8486 138.981L84.0443 137.307L84.0418 136.167L81.4058 137.548C81.1038 137.706 80.7356 137.662 80.4793 137.437L77.4161 134.75L74.3409 135.163C74.003 135.208 73.6719 135.041 73.5079 134.742L71.779 131.589Z" fill="#CB4637"/>
<path d="M80.9995 95.0004C80.776 95.007 80.5646 95.1041 80.414 95.2694L78.3233 97.5624L74.2493 97.4725C73.9083 97.465 73.598 97.6681 73.4683 97.9835L72.2882 100.853L68.4291 102.162C68.1062 102.272 67.8841 102.569 67.87 102.909L67.7425 106.01L64.5637 108.56C64.2979 108.773 64.1906 109.128 64.294 109.453L65.2346 112.41L63.1199 115.893C62.9429 116.185 62.9634 116.555 63.1716 116.825L65.0669 119.282L64.271 123.278C64.2044 123.613 64.3504 123.954 64.6384 124.136L67.2597 125.797L67.8789 129.824C67.9306 130.161 68.1845 130.432 68.5175 130.505L71.5485 131.169L73.5077 134.742C73.6717 135.041 74.0028 135.208 74.3407 135.163L77.416 134.75L80.4792 137.437C80.7355 137.662 81.1037 137.706 81.4057 137.548L84.1544 136.108L87.9521 137.586C88.2698 137.71 88.6309 137.625 88.8608 137.373L90.9512 135.08L95.0254 135.17C95.3663 135.177 95.6765 134.974 95.8062 134.659L96.9863 131.789L100.845 130.48C101.168 130.371 101.39 130.074 101.405 129.733L101.532 126.633L104.711 124.083C104.977 123.869 105.084 123.514 104.981 123.189L104.04 120.233L106.155 116.749C106.332 116.457 106.311 116.087 106.103 115.817L104.208 113.361L105.004 109.364C105.07 109.03 104.924 108.689 104.636 108.506L102.015 106.846L101.396 102.818C101.344 102.481 101.09 102.21 100.757 102.137L97.726 101.474L95.7668 97.9004C95.6029 97.6015 95.2719 97.4341 94.934 97.4795L91.8586 97.8926L88.7953 95.2049C88.6492 95.0766 88.4623 95.0042 88.2679 95.0002C88.1291 94.9975 87.9918 95.0297 87.8688 95.0942L85.1203 96.5342L81.3225 95.0562C81.2196 95.0161 81.1097 94.9971 80.9995 95.0004Z" fill="#FFB61C"/>
<path d="M84.6373 100.514C75.9206 100.514 68.8307 107.604 68.8307 116.321C68.8307 125.038 75.9206 132.128 84.6373 132.128C93.3541 132.128 100.444 125.038 100.444 116.321C100.444 107.604 93.3541 100.514 84.6373 100.514Z" fill="#F39C12"/>
<path d="M84.6373 102.714C92.1655 102.714 98.2447 108.793 98.2447 116.321C98.2447 123.849 92.1655 129.928 84.6373 129.928C77.1091 129.928 71.03 123.849 71.03 116.321C71.03 108.793 77.1091 102.714 84.6373 102.714Z" fill="#FCD116"/>
<path d="M84.6373 102.696C77.1126 102.696 71.0125 108.796 71.0125 116.321C71.0126 123.846 77.1126 129.946 84.6373 129.946C92.1622 129.946 98.2621 123.846 98.2621 116.321C98.2621 108.796 92.162 102.696 84.6373 102.696ZM84.6373 103.466C91.737 103.466 97.4928 109.221 97.4931 116.321C97.4934 123.421 91.7379 129.176 84.638 129.177C84.6378 129.177 84.6375 129.177 84.6373 129.177C77.5376 129.176 71.7822 123.421 71.7824 116.321C71.7827 109.221 77.5378 103.466 84.6373 103.466Z" fill="#E9C31A"/>
<path d="M96.3397 133.362L95.8062 134.659C95.6765 134.974 95.3663 135.177 95.0254 135.17L90.9512 135.08L88.8608 137.373C88.6311 137.625 88.2699 137.71 87.9521 137.586L84.1544 136.108L84.0417 136.167L84.0442 137.307L84.0781 137.289L88.4262 138.981L90.8824 136.287L95.5469 136.39L96.3443 134.45L96.3397 133.362Z" fill="#A63A2E"/>
</svg>
