<svg width="64" height="64" viewBox="0 0 64 64" fill="none" xmlns="http://www.w3.org/2000/svg">
<path d="M2.75 22.25H61.25M15.75 2.75V9.25M48.25 2.75V9.25M12.5 35.25H19M12.5 48.25H19M28.75 35.25H35.25M28.75 48.25H35.25M45 35.25H51.5M45 48.25H51.5M13.15 61.25H50.85C54.4903 61.25 56.3107 61.25 57.701 60.5415C58.924 59.9185 59.9185 58.924 60.5415 57.701C61.25 56.3107 61.25 54.4903 61.25 50.85V19.65C61.25 16.0096 61.25 14.1895 60.5415 12.7991C59.9185 11.576 58.924 10.5816 57.701 9.95847C56.3107 9.25 54.4903 9.25 50.85 9.25H13.15C9.50967 9.25 7.68948 9.25 6.29907 9.95847C5.07599 10.5816 4.08162 11.576 3.45847 12.7991C2.75 14.1895 2.75 16.0096 2.75 19.65V50.85C2.75 54.4903 2.75 56.3107 3.45847 57.701C4.08162 58.924 5.07599 59.9185 6.29907 60.5415C7.68948 61.25 9.50964 61.25 13.15 61.25Z" stroke="white" stroke-width="5" stroke-linecap="round" stroke-linejoin="round"/>
</svg>
