<svg width="58" height="62" viewBox="0 0 58 62" fill="none" xmlns="http://www.w3.org/2000/svg">
<path d="M30.9243 0.231445C30.2196 0.234414 29.5439 0.52932 29.0413 1.05323L29.0146 1.07503L11.3561 11.8978L28.9652 30.57V30.5831L50.139 53.0351L54.1744 45.3273L39.6179 8.27711L32.8341 1.08375C32.5848 0.816421 32.288 0.604057 31.961 0.458899C31.6339 0.313742 31.283 0.238661 30.9284 0.237985L30.9243 0.231445Z" fill="#66C3FA"/>
<path d="M11.4177 11.8127L1.21732 30.5177L1.19677 30.546C0.948423 30.8106 0.751833 31.1246 0.618292 31.47C0.484752 31.8155 0.416892 32.1855 0.418611 32.5588C0.42033 32.9321 0.491595 33.3013 0.62831 33.6454C0.765026 33.9894 0.964498 34.3014 1.21527 34.5634L9.67038 43.5289L42.7343 57.3205L50.2089 52.9173L50.0033 52.6994H49.9519L29.2242 30.6833H29.1996L11.4177 11.8127Z" fill="#215896"/>
<path d="M11.2986 11.8389L29.3148 30.9623H29.3415L50.0774 52.9783L57.9693 51.3827L57.9795 26.6136L49.6457 17.9532C47.5679 15.9868 44.9639 14.7556 42.1958 14.4307V14.3347L11.2986 11.8389Z" fill="#235997"/>
<path d="M11.4301 11.9456L29.4545 31.0581V31.0864L50.2006 53.085L48.6918 61.4533H25.339L17.1757 52.612C15.3226 50.4074 14.163 47.6456 13.8578 44.7102H13.7674L11.4301 11.9456Z" fill="#58B6F0"/>
</svg>
