<svg width="119" height="119" viewBox="0 0 119 119" fill="none" xmlns="http://www.w3.org/2000/svg">
<circle cx="58" cy="69" r="50" fill="#D9D9D9"/>
<mask id="mask0_76_4896" style="mask-type:alpha" maskUnits="userSpaceOnUse" x="0" y="0" width="119" height="119">
<circle cx="59.5" cy="59.5" r="59.5" fill="#D9D9D9"/>
</mask>
<g mask="url(#mask0_76_4896)">
<path d="M74.3791 45.68C73.4251 47.4658 71.2521 50.6141 68.5911 52.19C68.6081 53.1324 68.6731 54.0733 68.7851 55.0092C68.7851 55.0092 68.6421 60.7849 61.2441 60.7849C53.8451 60.7849 53.6791 54.9726 53.6791 54.9726C53.7851 54.0147 53.8521 52.9451 53.8721 52.1021C52.5801 51.3047 51.4321 50.296 50.4741 49.1181C49.1451 47.4888 48.1761 45.5971 47.6291 43.567L47.0681 43.4811C46.4381 43.3755 45.8461 43.1085 45.3491 42.706C44.7381 42.1861 44.2461 41.5406 43.9069 40.8134C43.1879 39.3742 42.8783 37.765 43.0121 36.1618C43.0307 35.7521 43.1352 35.3508 43.3189 34.984C43.4774 34.7182 43.6934 34.4913 43.951 34.32C44.2087 34.1486 44.5014 34.0371 44.8081 33.9938C45.1201 33.9479 45.4391 33.97 45.7421 34.0586C46.0451 34.1471 46.3251 34.2999 46.5641 34.5067C46.5641 34.5067 44.4782 21.8159 61.0931 21.8159C76.8771 21.8159 75.9991 34.5076 75.9991 34.5076C76.2381 34.3008 76.5181 34.1479 76.8211 34.0592C77.1231 33.9705 77.4421 33.9482 77.7541 33.9938C78.0601 34.0371 78.3531 34.1485 78.6111 34.3199C78.8691 34.4913 79.0851 34.7182 79.2431 34.984C79.4271 35.3508 79.5311 35.7521 79.5501 36.1618C79.6841 37.765 79.3741 39.3742 78.6551 40.8134C78.3161 41.5406 77.8241 42.1862 77.2131 42.706C76.7171 43.1093 76.1241 43.377 75.4931 43.483C75.4931 43.483 75.3861 43.4991 75.1991 43.5305C75.0561 44.0576 74.9001 44.5022 74.8221 44.7382C74.6941 45.0614 74.5461 45.3759 74.3791 45.68Z" fill="white"/>
<path d="M73.5881 17.909C75.8431 19.1467 76.9571 21.2901 77.6841 23.1475C78.7481 25.867 79.0391 30.4421 77.9211 34.026C77.8661 34.0131 77.8101 34.0022 77.7531 33.9937C77.4401 33.9481 77.1221 33.9704 76.8191 34.0591C76.5161 34.1478 76.2361 34.3008 75.9981 34.5075L74.3471 32.7109C73.9771 31.7862 73.7001 31.0486 73.3301 30.1253C73.0311 29.3186 72.6771 28.5332 72.2711 27.7748C71.9191 27.2011 71.2041 27.3522 70.5471 27.2367C68.4181 26.8615 68.8681 26.3928 67.2871 25.0231C65.1441 27.3303 62.8621 28.2807 59.9311 29.1978C57.8621 29.7957 55.7201 30.0994 53.5671 30.1001C51.6151 31.2291 48.7611 32.1115 47.0091 32.6605L46.5641 34.5066C46.3251 34.2998 46.0451 34.1469 45.7421 34.0582C45.4391 33.9695 45.1211 33.9472 44.8091 33.9927C44.7451 34.002 44.6811 34.015 44.6191 34.0317L44.4322 33.5401C43.3398 30.6492 43.3944 25.9696 44.2717 22.6831C45.1761 19.3029 47.2961 16.0221 50.2981 14.6514L52.9911 12.8101C55.6131 10.5423 63.4151 10.7042 66.0911 11.6603C68.6451 12.5722 70.5871 14.1888 71.5181 16.0791L73.5881 17.909Z" fill="#7A7473"/>
<path d="M76.6711 35.1793C76.7971 35.079 76.9431 35.0051 77.0981 34.962C77.2541 34.919 77.4171 34.9076 77.5771 34.9287C77.7371 34.9497 77.8911 35.0027 78.0311 35.0845C78.1701 35.1663 78.2911 35.2753 78.3881 35.4049C78.5771 35.7994 78.6601 36.2365 78.6291 36.673C78.6461 37.1855 78.6111 37.6984 78.5231 38.2037C78.1911 40.0241 77.2631 42.2027 75.2411 42.565C74.9991 42.6335 74.7941 42.7944 74.6691 43.013C74.5451 43.2316 74.5121 43.4903 74.5761 43.7334C74.6471 43.9736 74.8091 44.177 75.0271 44.3009C75.2441 44.4249 75.5021 44.4598 75.7451 44.3983C78.8081 43.8493 80.2691 40.3884 80.5001 37.6119C80.6181 36.1895 80.5061 34.5605 79.2761 33.6386C78.6931 33.2173 77.9841 33.0074 77.2661 33.0435C76.5481 33.0796 75.8641 33.3595 75.3261 33.8371C75.1501 34.0163 75.0511 34.2575 75.0511 34.5089C75.0511 34.7603 75.1501 35.0016 75.3261 35.1807C75.5071 35.354 75.7471 35.4507 75.9981 35.4507C76.2481 35.4507 76.4891 35.354 76.6691 35.1807L76.6711 35.1793Z" fill="#211715"/>
<path d="M74.5212 41.8483C74.4652 42.6135 74.3022 43.3671 74.0382 44.0876C73.9952 44.2192 73.9432 44.3502 73.9062 44.4832C73.8882 44.5426 73.8112 44.7107 73.9172 44.4676C73.8492 44.6243 73.7742 44.7786 73.6992 44.9311C73.2302 45.8424 72.6882 46.714 72.0772 47.5371C70.6612 49.4791 68.7402 51.5355 66.3152 52.1045C65.1272 52.3833 65.6292 54.2156 66.8202 53.9364C69.7042 53.2596 71.9422 50.901 73.6382 48.6042C75.1042 46.6195 76.3192 44.3707 76.4212 41.8483C76.4682 40.6258 74.5692 40.6277 74.5212 41.8483Z" fill="#211715"/>
<path d="M47.236 33.8354C46.698 33.358 46.014 33.0782 45.295 33.0421C44.5774 33.006 43.8684 33.2158 43.2856 33.6369C42.0541 34.5564 41.9439 36.1901 42.0617 37.6102C42.292 40.3867 43.7534 43.8475 46.817 44.3966C47.06 44.4565 47.316 44.4209 47.534 44.2972C47.751 44.1735 47.913 43.9711 47.986 43.7317C48.05 43.4886 48.017 43.2299 47.892 43.0113C47.768 42.7927 47.563 42.6318 47.321 42.5633C45.298 42.2009 44.3703 40.0219 44.0384 38.202C43.9553 37.7249 43.9195 37.2408 43.9315 36.7567C43.8999 36.3148 43.9708 35.8716 44.1386 35.4616C44.2296 35.3213 44.3489 35.2017 44.4889 35.1103C44.629 35.0189 44.786 34.9578 44.951 34.931C45.116 34.9042 45.285 34.9122 45.447 34.9545C45.609 34.9968 45.76 35.0724 45.891 35.1766C46.072 35.3485 46.312 35.4443 46.562 35.4443C46.812 35.4443 47.053 35.3485 47.234 35.1766C47.41 34.9974 47.509 34.7561 47.509 34.5048C47.509 34.2535 47.41 34.0123 47.234 33.833L47.236 33.8354Z" fill="#211715"/>
<path d="M46.2422 41.7143C46.7052 44.7063 47.9572 47.5209 49.8692 49.8684C51.9112 52.2844 54.6102 54.0327 57.7922 54.3761C58.0432 54.3744 58.2842 54.2738 58.4622 54.0961C58.6402 53.9183 58.7402 53.6776 58.7422 53.4262C58.7362 53.176 58.6342 52.9376 58.4572 52.7607C58.2812 52.5837 58.0422 52.4819 57.7922 52.4763C55.0582 52.1814 52.7742 50.4341 51.0782 48.3643C49.4062 46.3254 48.5222 43.7769 48.0742 41.2094C48.0052 40.9674 47.8442 40.762 47.6262 40.6376C47.4072 40.5132 47.1482 40.4797 46.9052 40.5445C46.6652 40.616 46.4622 40.7775 46.3382 40.9951C46.2142 41.2128 46.1792 41.4699 46.2402 41.7128L46.2422 41.7143Z" fill="#211715"/>
<path d="M72.3373 15.597C69.4523 9.9082 61.8273 9.37627 56.3033 10.4487C54.8543 10.6648 53.4833 11.2458 52.3193 12.1371C51.3813 12.9255 52.7323 14.2634 53.6613 13.4816C54.4793 12.9169 55.4103 12.5366 56.3903 12.3669C57.6693 12.0981 58.9723 11.9589 60.2793 11.9514C62.6063 11.9096 65.0153 12.0464 67.1153 13.1349C68.6393 13.8697 69.8913 15.0663 70.6953 16.5545C71.2483 17.6468 72.8873 16.6846 72.3353 15.5956L72.3373 15.597Z" fill="#211715"/>
<path d="M49.8192 13.8311C46.3992 15.4364 44.2223 19.0431 43.3152 22.5942C42.8502 24.4787 42.6318 26.4155 42.6655 28.3562C42.6403 30.2039 42.9293 32.0424 43.5204 33.7932C43.9393 34.9331 45.7762 34.4391 45.3522 33.2884C44.21 30.1885 44.333 26.4365 45.1072 23.2644C45.8822 20.0923 47.7242 16.9059 50.7782 15.4716C51.8832 14.952 50.9202 13.3139 49.8192 13.8311Z" fill="#211715"/>
<path d="M73.1081 18.7295C75.3121 19.9767 76.5951 22.3779 77.2001 24.7706C77.9071 27.6259 77.8731 30.6144 77.1021 33.4529C76.7761 34.6331 78.6081 35.1366 78.9341 33.9578C79.8091 30.7334 79.8281 27.3365 78.9901 24.1024C78.2441 21.3003 76.6441 18.5457 74.0671 17.089C73.0021 16.4859 72.0431 18.1268 73.1081 18.7295Z" fill="#211715"/>
<path d="M67.0672 23.8438C65.4352 25.7087 63.3272 27.0959 60.9682 27.8575C58.6142 28.7217 56.1242 29.1607 53.6162 29.154C52.3932 29.1298 52.3932 31.0296 53.6162 31.0538C56.3542 31.0639 59.0722 30.5823 61.6392 29.6318C64.2512 28.7779 66.5882 27.2438 68.4102 25.1874C69.2032 24.2646 67.8652 22.9148 67.0672 23.8438Z" fill="#211715"/>
<path d="M56.8843 26.6935C55.4233 27.8462 53.8293 28.8177 52.1353 29.5869C50.4053 30.455 48.6063 31.1774 46.7573 31.7464C45.5883 32.0955 46.0863 33.9311 47.2623 33.5787C49.2663 32.9587 51.2163 32.173 53.0913 31.2297C54.9263 30.3793 56.6513 29.308 58.2263 28.0395C58.4023 27.8603 58.5013 27.6191 58.5013 27.3677C58.5013 27.1164 58.4023 26.8751 58.2263 26.6959C58.0463 26.5226 57.8053 26.4258 57.5553 26.4258C57.3043 26.4258 57.0643 26.5226 56.8833 26.6959L56.8843 26.6935Z" fill="#211715"/>
<path d="M66.9951 26.0485C67.7591 26.8757 68.6891 27.5334 69.7231 27.9791C70.2701 28.1151 70.8251 28.2127 71.3861 28.2712C71.4331 28.2836 71.5341 28.3301 71.4541 28.2636C71.5071 28.3342 71.5521 28.4105 71.5881 28.4911C71.7301 28.7528 71.8541 29.025 71.9741 29.2985C72.8121 31.2087 73.6171 33.136 74.8711 34.8282C75.0031 35.04 75.2111 35.1932 75.4531 35.2565C75.6941 35.3198 75.9511 35.2884 76.1701 35.1687C76.3861 35.0404 76.5431 34.8321 76.6071 34.589C76.6711 34.3458 76.6361 34.0872 76.5111 33.8693C75.8841 32.9822 75.3251 32.0482 74.8401 31.0757C74.7171 30.8383 74.5961 30.6041 74.4801 30.3633C74.4231 30.2462 74.3681 30.1284 74.3131 30.01C74.2821 29.943 74.2071 29.7725 74.2771 29.9373C74.0351 29.3645 73.8161 28.7827 73.5621 28.2152C73.3641 27.6034 72.9851 27.0657 72.4761 26.6726C71.9391 26.343 71.3231 26.4095 70.7481 26.3083C69.8251 26.1459 68.9721 25.3585 68.3411 24.704C67.4911 23.823 66.1481 25.1671 66.9981 26.0476L66.9951 26.0485Z" fill="#211715"/>
<path d="M52.8972 52.4181C52.8842 53.302 52.8152 54.1843 52.6932 55.0597C52.6162 55.7223 52.5062 56.3806 52.3632 57.0321C52.3482 57.0915 52.3322 57.1509 52.3152 57.2093C52.3072 57.2359 52.2402 57.4325 52.2892 57.3009C52.3382 57.1694 52.2602 57.3594 52.2462 57.3855C52.2122 57.4515 52.1712 57.5113 52.1322 57.5754C52.2002 57.4667 52.1842 57.5199 52.1142 57.5921C52.0662 57.6396 52.0192 57.6871 51.9712 57.7346C51.8132 57.8846 52.0902 57.6871 51.8822 57.7958C51.8112 57.8338 51.7441 57.8794 51.6721 57.9169C51.5121 58 51.3132 58.0694 51.0942 58.1606C50.8042 58.2802 50.5151 58.4017 50.2261 58.5248C50.0101 58.653 49.8532 58.8613 49.7892 59.1045C49.7252 59.3478 49.7602 59.6064 49.8852 59.8243C50.0172 60.0368 50.2252 60.1906 50.4672 60.2541C50.7092 60.3175 50.9661 60.2858 51.1851 60.1653C51.3041 60.1145 51.2622 60.133 51.1672 60.1729L51.3782 60.0841C51.5162 60.0261 51.6542 59.9686 51.7932 59.9121C52.1252 59.794 52.4492 59.6511 52.7612 59.4847C53.4412 59.0852 53.9422 58.4389 54.1592 57.6799C54.3262 57.0062 54.4461 56.3215 54.5181 55.6311C54.6801 54.5674 54.7742 53.4946 54.8002 52.4191C54.8002 52.1671 54.7002 51.9255 54.5222 51.7474C54.3442 51.5693 54.1022 51.4692 53.8502 51.4692C53.5982 51.4692 53.3572 51.5693 53.1782 51.7474C53.0002 51.9255 52.9002 52.1671 52.9002 52.4191L52.8972 52.4181Z" fill="#211715"/>
<path d="M67.6133 52.4181C67.6413 53.5533 67.7443 54.6853 67.9223 55.8067C67.9863 56.4994 68.1173 57.1844 68.3113 57.8523C68.4483 58.2399 68.6613 58.5962 68.9383 58.9002C69.2143 59.2043 69.5493 59.45 69.9223 59.6229C70.2143 59.7606 70.5203 59.8675 70.8203 59.9857C70.9733 60.0462 71.1263 60.1071 71.2793 60.1686C71.3513 60.1975 71.4213 60.2275 71.4953 60.2559C71.7263 60.3486 71.3823 60.2061 71.5043 60.2593C71.7243 60.3784 71.9803 60.4095 72.2213 60.3462C72.4633 60.283 72.6713 60.1301 72.8043 59.9187C72.9293 59.7008 72.9643 59.4422 72.9003 59.199C72.8363 58.9557 72.6793 58.7473 72.4633 58.6188C71.9703 58.4051 71.4703 58.2047 70.9673 58.0147C70.8303 57.9607 70.6973 57.8948 70.5713 57.8176C70.5193 57.7872 70.3973 57.7008 70.5073 57.7863C70.4423 57.7351 70.3813 57.6794 70.3253 57.6196C70.3063 57.6001 70.1743 57.432 70.2513 57.5388C70.3273 57.6457 70.1963 57.441 70.1833 57.4177C70.1543 57.3645 70.1273 57.3099 70.1023 57.2548C70.2003 57.4714 70.1093 57.2491 70.0973 57.2073C69.9363 56.5805 69.8223 55.9429 69.7543 55.2995C69.6093 54.3448 69.5293 53.3816 69.5133 52.4162C69.5133 52.1643 69.4133 51.9227 69.2353 51.7445C69.0573 51.5664 68.8153 51.4663 68.5633 51.4663C68.3113 51.4663 68.0703 51.5664 67.8913 51.7445C67.7133 51.9227 67.6133 52.1643 67.6133 52.4162V52.4181Z" fill="#211715"/>
<path d="M80.8131 121.341C71.1141 121.333 47.0881 121.308 39.3242 121.308C39.5474 116.735 40.768 103.581 41.0188 101.247L33.7717 70.9032C34.1726 68.2303 35.2858 65.7516 36.3055 65.1223C37.0182 64.5344 37.78 64.0086 38.5824 63.5507C42.6735 61.2597 46.8881 59.1955 51.2061 57.3675C51.7761 56.1899 52.5521 55.1237 53.4981 54.2192C55.3311 56.0535 57.4751 57.5481 59.8301 58.6337C59.9621 58.6931 60.1081 58.7658 60.1501 58.9035H62.1761C62.2181 58.7658 62.3661 58.6931 62.4951 58.6337C64.8511 57.5484 66.9951 56.0541 68.8281 54.2201C69.5771 54.9272 70.2161 55.7418 70.7251 56.6371C75.6761 58.6266 80.4931 60.9363 85.1451 63.5517C85.9341 63.9791 87.3771 64.6013 88.3361 66.2199C90.1651 68.6121 95.5911 85.5369 96.0301 89.5805C96.2951 91.9209 96.2801 94.2847 95.9851 96.6215C94.8191 102.625 88.1011 101.323 86.0681 101.254C84.9221 101.157 83.7841 100.987 82.6601 100.744C82.7251 102.511 82.7821 104.074 82.7821 104.074C82.9691 109.096 83.5561 119.238 83.6191 121.345L80.8131 121.341Z" fill="#65A0D4"/>
<path d="M60.7012 98.1852C60.7792 105.202 60.8442 112.219 60.8972 119.237C60.9022 119.905 60.9102 120.573 60.9102 121.241C60.9102 122.463 62.8102 122.465 62.8102 121.241C62.8052 115.893 62.7262 110.544 62.6732 105.197C62.6512 102.859 62.6262 100.522 62.6002 98.1852C62.5872 96.9631 60.6872 96.9603 60.7012 98.1852Z" fill="#211715"/>
<path d="M60.2551 59.6308C60.2591 65.6563 60.3711 71.6832 60.4371 77.7083C60.4511 78.9298 62.3511 78.9331 62.3371 77.7083C62.2711 71.6832 62.1591 65.6563 62.1551 59.6308C62.1551 58.4088 60.2551 58.4064 60.2551 59.6308Z" fill="#211715"/>
<path d="M71.2441 57.8617C74.3971 59.144 77.4791 60.5855 80.5011 62.1504C81.9251 62.8889 83.3351 63.6611 84.7531 64.4172C85.8571 65.0066 86.8421 65.6022 87.5151 66.6969C88.1551 67.7366 89.7991 66.7834 89.1551 65.738C88.3801 64.5307 87.2881 63.5586 85.9991 62.9274C84.5411 62.1565 83.0981 61.3601 81.6341 60.6002C78.4091 58.9249 75.1141 57.4015 71.7491 56.0299C71.5061 55.9645 71.2471 55.9977 71.0281 56.1221C70.8091 56.2466 70.6491 56.4524 70.5811 56.6948C70.5201 56.9377 70.5551 57.1946 70.6791 57.4122C70.8031 57.6298 71.0061 57.7913 71.2461 57.8631L71.2441 57.8617Z" fill="#211715"/>
<path d="M84.5673 121.381C84.3993 115.567 83.9413 109.761 83.7263 103.949L83.6083 100.743C83.5633 99.5246 81.6633 99.5189 81.7083 100.743C81.9183 106.445 82.2143 112.142 82.5043 117.841C82.5653 119.021 82.6343 120.202 82.6683 121.383C82.7033 122.602 84.6033 122.608 84.5673 121.383V121.381Z" fill="#211715"/>
<path d="M85.2553 69.3619C84.7263 72.6599 84.0423 75.9313 83.5663 79.2378C83.1383 82.2023 82.9183 85.1897 82.7003 88.1756C82.6113 89.3952 84.5113 89.3895 84.6003 88.1756C84.8113 85.2846 85.0103 82.3856 85.4303 79.5161C85.9053 76.2865 86.5703 73.0892 87.0873 69.8668C87.1463 69.624 87.1103 69.3677 86.9863 69.1505C86.8633 68.9333 86.6613 68.7716 86.4223 68.6985C86.1793 68.6335 85.9203 68.6668 85.7013 68.7912C85.4823 68.9157 85.3223 69.1212 85.2533 69.3634L85.2553 69.3619Z" fill="#211715"/>
<path d="M40.069 101.247C39.4991 106.558 39.056 111.89 38.648 117.216C38.5435 118.579 38.4419 119.943 38.3745 121.308C38.3137 122.53 40.2134 122.527 40.2742 121.308C40.5592 115.591 41.1419 109.878 41.6805 104.18C41.7755 103.202 41.8643 102.224 41.9688 101.247C41.9672 100.995 41.8666 100.755 41.6888 100.577C41.511 100.399 41.2703 100.298 41.0189 100.297C40.7687 100.302 40.5302 100.404 40.3533 100.581C40.1763 100.758 40.0745 100.997 40.069 101.247Z" fill="#211715"/>
<path d="M51.1682 56.3618C47.2312 57.9989 43.4135 59.8711 39.6582 61.8887C38.6867 62.3761 37.7467 62.924 36.8437 63.5291C36.1482 63.9631 35.5168 64.4922 34.9677 65.1011C33.7448 66.6513 33.1578 68.7325 32.8557 70.6503C32.7966 70.8931 32.8326 71.1494 32.9562 71.3667C33.0797 71.5839 33.2817 71.7458 33.5206 71.8191C33.7637 71.8841 34.0227 71.8508 34.2414 71.7263C34.4601 71.6019 34.6211 71.3964 34.6894 71.1542C34.9464 69.5218 35.3767 67.5366 36.4785 66.2372C37.0318 65.6788 37.6571 65.1967 38.3379 64.8038C39.1809 64.2567 40.0952 63.8064 40.979 63.3344C44.4698 61.466 48.0172 59.7125 51.6742 58.1927C51.9132 58.1191 52.1152 57.9572 52.2382 57.74C52.3622 57.5228 52.3982 57.2667 52.3392 57.0239C52.2712 56.7815 52.1112 56.5757 51.8922 56.4512C51.6732 56.3268 51.4142 56.2936 51.1712 56.359L51.1682 56.3618Z" fill="#211715"/>
<path d="M66.1671 64.115C68.2011 62.0941 69.5321 59.6463 71.0351 57.2013C70.4761 56.0878 69.7301 55.079 68.8281 54.2192C66.9941 56.0536 64.8501 57.5482 62.4941 58.6337C62.3631 58.6931 62.2171 58.7658 62.1751 58.9035C62.1541 59.0276 62.1801 59.155 62.2481 59.2611C62.6551 59.8473 63.0921 60.4118 63.5581 60.9524C64.4501 62.0419 65.5691 63.3783 66.1671 64.115Z" fill="white"/>
<path d="M56.159 64.115C54.125 62.0941 52.793 59.6463 51.291 57.2013C51.85 56.0878 52.596 55.079 53.498 54.2192C55.331 56.0535 57.475 57.5481 59.83 58.6337C59.962 58.6931 60.108 58.7658 60.15 58.9035C60.171 59.0276 60.145 59.155 60.077 59.2611C59.67 59.8473 59.233 60.4118 58.767 60.9524C57.876 62.0419 56.757 63.3783 56.159 64.115Z" fill="white"/>
<path d="M66.8391 64.7863C68.3731 63.1537 69.7071 61.3445 70.8141 59.3967C71.0991 58.9246 71.3841 58.4511 71.6691 57.98C71.8731 57.7232 71.9781 57.4021 71.9651 57.0747C71.8921 56.7677 71.7601 56.4775 71.5781 56.2199C71.0191 55.2324 70.3181 54.3326 69.4971 53.5493C69.3171 53.3752 69.0761 53.2778 68.8251 53.2778C68.5751 53.2778 68.3341 53.3752 68.1541 53.5493C67.1201 54.5876 65.9791 55.5127 64.7491 56.3092C64.1511 56.6967 63.5351 57.0567 62.9011 57.3835C62.3011 57.6941 61.4601 57.914 61.2581 58.6515C61.2101 58.9181 61.2261 59.1921 61.3041 59.4513C61.3821 59.7106 61.5201 59.9478 61.7071 60.1438C62.1181 60.6895 62.5521 61.2186 62.9841 61.7472C63.8171 62.7635 64.6641 63.769 65.4931 64.7868C65.6721 64.9635 65.9131 65.0625 66.1651 65.0625C66.4161 65.0625 66.6571 64.9635 66.8361 64.7868C67.0091 64.6059 67.1061 64.3654 67.1061 64.1152C67.1061 63.865 67.0091 63.6245 66.8361 63.4436C66.1441 62.593 65.4391 61.7524 64.7421 60.9056C64.3491 60.4306 63.9571 59.9524 63.5721 59.4689C63.4641 59.3326 63.3541 59.1968 63.2511 59.0562C63.2061 58.9944 63.1641 58.9199 63.1151 58.8619C63.0301 58.7631 63.1361 58.7446 63.1231 58.9028L62.9941 59.382C62.8351 59.5118 62.8281 59.5356 62.9721 59.4532L63.1201 59.3858C63.2681 59.3155 63.4171 59.2433 63.5631 59.1725C63.8641 59.0234 64.1611 58.8672 64.4541 58.7038C65.0581 58.3666 65.6451 58.0025 66.2161 57.6114C67.3911 56.8089 68.4901 55.8992 69.4971 54.8938H68.1541C68.9921 55.7015 69.6871 56.6444 70.2121 57.6831V56.7214C68.7791 59.06 67.4431 61.4831 65.4931 63.4432C64.6321 64.3109 65.9751 65.6545 66.8391 64.7863Z" fill="#211715"/>
<path d="M56.83 63.4432C54.88 61.4831 53.545 59.06 52.111 56.7214V57.6803C52.636 56.6416 53.332 55.6986 54.17 54.891H52.826C53.834 55.8962 54.932 56.806 56.107 57.6086C56.677 58.0002 57.265 58.3644 57.869 58.7009C58.138 58.8504 58.411 58.9943 58.685 59.1326C58.833 59.2064 58.981 59.2783 59.129 59.3483C59.203 59.3831 59.277 59.4171 59.351 59.4504C59.494 59.5327 59.487 59.509 59.33 59.3791L59.2 58.8999C59.19 58.7646 59.303 58.7494 59.209 58.8591C59.168 58.9066 59.136 58.965 59.099 59.0163C58.988 59.1702 58.869 59.3179 58.751 59.4661C58.367 59.9491 57.974 60.4264 57.582 60.9027C56.884 61.7495 56.179 62.5902 55.487 63.4408C55.315 63.6223 55.22 63.8626 55.22 64.1124C55.22 64.3621 55.315 64.6024 55.487 64.7839C55.666 64.9604 55.907 65.0593 56.158 65.0593C56.41 65.0593 56.651 64.9604 56.83 64.7839C57.643 63.7865 58.472 62.8001 59.288 61.8046C59.726 61.2703 60.163 60.7346 60.582 60.1846C60.779 59.9851 60.925 59.7416 61.01 59.4743C61.094 59.207 61.113 58.9235 61.066 58.6473C60.869 57.9311 60.081 57.7164 59.496 57.4172C58.863 57.0933 58.247 56.7383 57.648 56.3524C56.39 55.5452 55.224 54.6039 54.17 53.545C53.989 53.3711 53.748 53.2739 53.498 53.2739C53.247 53.2739 53.006 53.3711 52.826 53.545C52.025 54.3089 51.339 55.1842 50.787 56.1439C50.617 56.3932 50.479 56.6627 50.375 56.946C50.344 57.1279 50.353 57.3144 50.401 57.4925C50.449 57.6706 50.535 57.8361 50.654 57.9776C50.941 58.4487 51.224 58.9222 51.511 59.3943C52.618 61.342 53.953 63.1512 55.487 64.7839C56.351 65.6545 57.694 64.3113 56.83 63.4432Z" fill="#211715"/>
<path d="M15.9983 70.7236C16.0666 70.5328 16.1938 70.3687 16.3616 70.255C16.5294 70.1414 16.7291 70.0841 16.9316 70.0915C24.2931 70.3518 45.6092 71.4004 51.2922 71.6806C51.6092 71.6962 51.9122 71.8202 52.1492 72.0319C52.3862 72.2435 52.5432 72.5301 52.5952 72.8438C53.4382 77.9602 56.5262 95.7304 57.3442 100.35L57.4132 100.742C57.2652 100.823 57.1102 100.893 56.9502 100.95C56.5072 101.089 56.0432 101.154 55.5782 101.14C43.7427 100.459 33.4043 99.3827 21.6372 98.686C21.3067 98.6671 20.9923 98.5367 20.7455 98.316C20.4987 98.0954 20.334 97.7975 20.2785 97.4711C19.3086 91.7244 16.8114 76.5687 15.9565 71.1967C15.9304 71.038 15.9448 70.8753 15.9983 70.7236Z" fill="#C6C6C6"/>
<path d="M56.5522 95.8266C56.3142 94.4726 56.0502 92.949 55.7712 91.3413L56.2042 91.4296L58.2942 91.8547C59.5052 92.1231 64.3402 93.3745 66.2252 94.0622L65.6992 94.4897C63.2932 96.4369 58.8912 99.75 57.8512 100.474C57.7112 100.573 57.5652 100.662 57.4142 100.741L57.3452 100.35C57.1702 99.3611 56.8902 97.7681 56.5522 95.8266Z" fill="#C6C6C6"/>
<path d="M58.3401 91.835C59.5451 92.1024 64.3601 93.3505 66.2261 94.0307C66.7931 92.2154 67.6071 89.637 68.1971 87.7093C67.4001 87.4433 66.5981 87.1943 65.7901 86.9622L63.5491 83.081C63.2161 82.3724 62.7061 81.7621 62.0671 81.3095C61.3731 80.9828 60.6071 80.8379 59.8411 80.8882C58.7281 80.8228 57.6101 80.8568 56.5031 80.9899L53.9951 81.2986L55.7901 91.3777L58.3401 91.835Z" fill="white"/>
<path d="M68.5232 86.8624C67.6982 86.5827 66.8782 86.2925 66.0432 86.046L66.6102 86.4825L64.8502 83.4329C64.3532 82.5738 63.8912 81.6006 63.1402 80.9291C62.3612 80.2892 61.3822 79.9437 60.3752 79.9531C59.3252 79.9044 58.2732 79.9176 57.2242 79.9925C56.0112 80.0737 56.0022 81.9744 57.2242 81.8922C58.3612 81.7928 59.5042 81.7855 60.6422 81.8704C61.7412 81.9758 62.2122 82.6673 62.7312 83.5602C63.3742 84.6684 64.0142 85.7766 64.6522 86.8847C64.7942 87.2339 65.0212 87.5418 65.3132 87.78C65.6052 87.9127 65.9102 88.0146 66.2232 88.084C66.8252 88.2763 67.4212 88.4891 68.0202 88.6924C69.1802 89.0866 69.6782 87.2524 68.5252 86.8605L68.5232 86.8624Z" fill="#211715"/>
<path d="M87.5152 66.6977C88.4212 67.9031 88.8482 69.3132 89.3632 70.6397C90.2522 72.9317 91.0492 75.2598 91.8102 77.5975C92.5962 80.014 93.3402 82.4456 94.0072 84.8977C94.2702 85.8671 94.5232 86.8397 94.7442 87.8195C94.8302 88.1995 94.9112 88.5837 94.9812 88.9684C95.0082 89.1171 95.0312 89.2667 95.0572 89.4158C95.0942 89.6352 95.0572 89.4196 95.0622 89.4376C95.0782 89.5777 95.0932 89.7183 95.1092 89.8589C95.2882 91.6253 95.3102 93.4041 95.1742 95.1744C95.0702 96.5223 94.8572 97.8692 93.8942 98.8893C92.5262 100.337 90.4332 100.516 88.5092 100.457C87.7412 100.433 86.9762 100.349 86.2082 100.306C85.9412 100.292 85.6772 100.277 85.4112 100.246C85.3452 100.238 85.2782 100.23 85.2122 100.221C85.0432 100.201 85.3682 100.245 85.1382 100.211C84.9372 100.181 84.7352 100.151 84.5342 100.116C82.4292 99.7718 80.3422 99.3049 78.2652 98.8233C75.8812 98.2705 73.5072 97.6768 71.1502 97.0209C70.1822 96.7516 69.2172 96.4724 68.2612 96.166C67.8912 96.0473 67.5222 95.9243 67.1572 95.7913C67.0082 95.7372 66.8602 95.6783 66.7112 95.6222C66.5912 95.5771 66.5862 95.57 66.7182 95.6279C66.6542 95.5999 66.5892 95.5729 66.5262 95.5425C66.4362 95.4988 66.3482 95.4517 66.2582 95.4061C66.0722 95.3112 66.1782 95.3482 66.2582 95.4199L66.5032 96.3441C67.5592 92.738 68.8862 89.1992 69.8192 85.5584L68.6512 86.2233C72.9252 87.2482 77.2442 88.1035 81.5062 89.1897C83.2502 89.5674 85.0272 89.7751 86.8122 89.81C88.0342 89.8741 88.0302 87.9744 86.8122 87.9102C85.8792 87.8627 84.9512 87.7611 84.0232 87.6609C83.4122 87.6212 82.8052 87.5367 82.2072 87.4082C81.2682 87.1641 80.3232 86.9447 79.3792 86.7243C76.9412 86.1544 74.4962 85.6092 72.0542 85.0568C71.0872 84.8383 70.1192 84.6223 69.1572 84.3919C68.9142 84.3291 68.6562 84.3634 68.4382 84.4875C68.2202 84.6116 68.0582 84.8158 67.9882 85.0568C67.0552 88.6977 65.7282 92.2364 64.6712 95.8421C64.6262 96.004 64.6252 96.1751 64.6682 96.3376C64.7112 96.5002 64.7962 96.6482 64.9162 96.7664C65.3762 97.121 65.8972 97.3875 66.4532 97.5524C67.2732 97.862 68.1122 98.1195 68.9512 98.3697C71.2822 99.0646 73.6402 99.6706 76.0042 100.243C79.7792 101.157 83.5502 102.017 87.4282 102.3C89.5652 102.456 91.8502 102.403 93.7782 101.35C94.8732 100.752 95.7542 99.8253 96.2952 98.7008C97.0812 97.0532 97.1312 95.1663 97.1652 93.3701C97.2562 88.5405 95.7912 83.9426 94.3732 79.378C93.5842 76.8428 92.7482 74.3209 91.8352 71.8265C91.2102 69.9552 90.4482 68.1325 89.5552 66.3733C89.4392 66.1519 89.3062 65.9392 89.1592 65.7369C89.0262 65.5253 88.8182 65.3722 88.5772 65.3089C88.3352 65.2456 88.0782 65.2769 87.8592 65.3964C87.6432 65.5247 87.4862 65.733 87.4222 65.9762C87.3592 66.2194 87.3932 66.4779 87.5192 66.6958L87.5152 66.6977Z" fill="#211715"/>
<path d="M57.4342 101.432C58.3842 100.596 58.1262 99.3324 57.9342 98.2414C57.7762 97.3498 57.6202 96.4581 57.4662 95.5661C57.0712 93.3023 56.6772 91.0384 56.2852 88.7746C55.5022 84.2611 54.7252 79.7468 53.9542 75.2318C53.8262 74.4757 53.7002 73.7192 53.5752 72.9625C53.5202 72.3643 53.2482 71.8068 52.8112 71.3952C52.3732 70.9835 51.8002 70.7462 51.2002 70.7279C49.7482 70.6282 48.2892 70.5855 46.8342 70.5137C42.3401 70.2937 37.8458 70.0773 33.351 69.8645C28.8562 69.6527 24.361 69.4423 19.8628 69.2571C19.0865 69.2254 18.3108 69.1948 17.5357 69.1654C17.0144 69.0924 16.4832 69.162 15.9983 69.3668C15.6742 69.5429 15.4081 69.809 15.232 70.1331C15.0558 70.4571 14.9772 70.8252 15.0057 71.1929C15.0679 72.035 15.2707 72.8898 15.4056 73.7229C15.5699 74.7361 15.7347 75.7502 15.9 76.7653C16.6915 81.6227 17.4905 86.4787 18.297 91.3335C18.6247 93.3092 18.9541 95.2848 19.2853 97.2602C19.5052 98.5682 20.2542 99.501 21.6377 99.6349C23.4667 99.8102 25.3146 99.8638 27.1469 99.9925C34.1708 100.485 41.1846 101.104 48.2072 101.607C50.0322 101.738 51.8582 101.861 53.6842 101.974C55.3302 102.076 56.8952 102.27 58.3292 101.294C60.1012 100.087 61.7882 98.734 63.4842 97.426C64.4522 96.6789 65.4182 95.928 66.3692 95.1591C66.5462 94.9803 66.6452 94.739 66.6452 94.4876C66.6452 94.2361 66.5462 93.9949 66.3692 93.816C66.1882 93.6431 65.9482 93.5466 65.6982 93.5466C65.4472 93.5466 65.2072 93.6431 65.0262 93.816C63.1492 95.3325 61.2262 96.7943 59.2952 98.2405C58.6732 98.7055 58.0552 99.178 57.4172 99.6207C56.1672 100.488 54.6552 100.135 53.2212 100.048C46.4962 99.6268 39.7807 99.0541 33.0646 98.5331C29.6451 98.2676 26.2256 98.0178 22.8003 97.8064C22.3415 97.7779 21.4876 97.9289 21.2444 97.4265C21.1348 97.082 21.0695 96.725 21.0502 96.364C20.9014 95.4806 20.7537 94.5969 20.6071 93.7129C19.8415 89.1187 19.0825 84.5237 18.3302 79.9279C17.9892 77.8477 17.6498 75.767 17.312 73.6858C17.1853 72.9009 17.0587 72.1159 16.932 71.3306C16.9168 71.2356 16.932 70.9949 16.8741 71.0765C16.9068 71.0324 16.9467 71.0409 17.0954 71.0495C17.4573 71.0708 17.8206 71.0761 18.183 71.0903C22.1587 71.2442 26.1339 71.4289 30.1086 71.6127C34.5958 71.8211 39.0829 72.035 43.5697 72.2544C45.3322 72.3399 47.0952 72.426 48.8572 72.5127L50.8182 72.6077C51.0782 72.6206 51.4092 72.5759 51.5862 72.8129C51.7162 73.1222 51.7872 73.4536 51.7932 73.7894C53.1492 81.9141 54.5732 90.0274 55.9942 98.1408C56.0802 98.6314 56.4842 99.7418 56.0892 100.088C55.1692 100.895 56.5172 102.236 57.4322 101.431L57.4342 101.432Z" fill="#211715"/>
<path d="M28.2882 91.5291C28.1876 91.1045 27.931 90.7333 27.5695 90.489C27.2079 90.2447 26.7677 90.1452 26.3363 90.2102C26.0128 90.2238 25.7051 90.3535 25.4695 90.5756C25.234 90.7977 25.0864 91.0973 25.0539 91.4194C24.9423 92.3322 25.1489 93.3776 25.4876 95.0788C25.7483 96.3834 26.0898 97.8952 26.4583 99.1338C26.7164 99.7517 27.1282 100.293 27.6545 100.707C28.1809 101.121 28.8043 101.394 29.4656 101.499C30.3471 101.659 35.8644 102.318 38.3578 102.339C40.5098 102.257 43.727 102.416 43.783 100.581C42.9913 100.36 42.2998 99.9758 41.9921 99.9212C41.8939 99.7101 41.8158 99.4902 41.7589 99.2644C41.4691 98.1222 40.6736 96.0272 39.8244 95.5319C39.1429 95.1344 37.9513 95.0774 37.5685 95.8012C37.5685 95.8012 37.4612 96.0044 37.2964 96.3179C37.2071 95.9968 37.1173 95.663 37.0266 95.3087C36.6987 94.0932 36.2929 92.9 35.8117 91.7367C35.6936 91.4382 35.5052 91.1726 35.2625 90.9625C35.0199 90.7524 34.7301 90.604 34.4178 90.5299C33.6807 90.2924 32.5461 90.622 32.3941 91.361L32.2274 92.1684L31.875 90.6852C31.4803 89.0229 30.1937 88.5204 29.2286 88.7479C28.1434 89.0034 27.8779 89.9034 28.2313 91.2565" fill="white"/>
<path d="M38.3888 96.281C38.471 96.1385 38.2653 96.3974 38.4501 96.2098C38.2383 96.4249 38.574 96.1661 38.4311 96.2321C38.299 96.2929 38.5546 96.204 38.5845 96.196C38.6909 96.177 38.6787 96.1781 38.5479 96.1993C38.5954 96.1955 38.6467 96.1931 38.6961 96.1931C38.7716 96.1931 38.8462 96.1988 38.9217 96.2031C38.6723 96.1893 38.983 96.2197 39.0404 96.2344C39.1126 96.2534 39.1829 96.2781 39.2527 96.3005C39.3529 96.3389 39.343 96.3347 39.2237 96.2881C39.2651 96.3081 39.3054 96.3299 39.3453 96.3527C39.3767 96.3712 39.4066 96.3907 39.436 96.4121C39.3278 96.3256 39.3016 96.3062 39.3563 96.3537C39.4052 96.4079 39.4574 96.4591 39.5125 96.5071C39.5486 96.5465 39.7182 96.7844 39.5814 96.5835C39.6236 96.6457 39.6678 96.7061 39.7087 96.7688C39.9242 97.1078 40.1122 97.4636 40.271 97.8326C40.2886 97.872 40.3061 97.9119 40.3232 97.9518C40.284 97.8568 40.2854 97.8613 40.3275 97.9651C40.3688 98.072 40.4116 98.1779 40.4519 98.2852C40.5187 98.4654 40.5821 98.6466 40.6419 98.829C40.7559 99.1791 40.8319 99.5443 40.9582 99.8896C41.0355 100.231 41.232 100.534 41.5125 100.744C41.6957 100.827 41.8848 100.896 42.0781 100.951C42.5374 101.133 42.9848 101.335 43.4592 101.48C43.7022 101.544 43.9608 101.51 44.1793 101.386C44.3978 101.262 44.5588 101.057 44.6273 100.815C44.6893 100.572 44.6543 100.315 44.5304 100.097C44.4064 99.8789 44.203 99.7175 43.9627 99.6464C43.3837 99.4702 42.8333 99.133 42.2434 99.0066L42.8133 99.4431C42.7715 99.3481 42.7739 99.3546 42.8204 99.4626C42.7995 99.4099 42.7801 99.3567 42.7615 99.303C42.7288 99.208 42.7022 99.1107 42.6761 99.0133C42.6338 98.8566 42.5915 98.7003 42.5445 98.5455C42.441 98.2057 42.3237 97.8711 42.1926 97.5415C41.9097 96.7547 41.5106 96.0148 41.0086 95.3463C40.0183 94.1082 37.6389 93.779 36.7484 95.3221C36.6213 95.5396 36.5858 95.7987 36.6498 96.0424C36.7137 96.2861 36.8718 96.4944 37.0894 96.6215C37.3069 96.7486 37.566 96.7841 37.8097 96.7201C38.0534 96.6562 38.2617 96.4985 38.3888 96.281Z" fill="#211715"/>
<path d="M38.8765 98.4276C38.3168 96.084 37.6051 93.7793 36.7459 91.5282C36.552 91.0018 36.2186 90.5381 35.7814 90.1868C35.3442 89.8354 34.8196 89.6096 34.2639 89.5334C33.1336 89.3838 31.7942 89.9177 31.4779 91.1064C31.1616 92.2952 32.9977 92.7943 33.3102 91.6113C33.3549 91.4403 33.3102 91.5875 33.2627 91.6374C33.2898 91.6089 33.4779 91.4674 33.3544 91.5472C33.4496 91.4748 33.5634 91.4308 33.6826 91.4203C33.9424 91.361 33.5714 91.4075 33.8365 91.4023C33.8464 91.4023 34.1414 91.4246 33.9789 91.3975C34.1221 91.4234 34.261 91.469 34.3917 91.5329C34.5359 91.5848 34.6629 91.6755 34.7588 91.7951C34.8728 91.9138 34.7517 91.7704 34.8015 91.8516C34.8414 91.9152 34.8775 91.9803 34.9131 92.0468C35.0081 92.223 34.8922 91.9865 34.9678 92.1674C35.0091 92.2662 35.0475 92.3664 35.0865 92.4662C35.1669 92.671 35.245 92.8768 35.3206 93.0836C36.0197 94.9866 36.518 96.9738 37.0418 98.931C37.3581 100.111 39.1909 99.6101 38.8741 98.4257L38.8765 98.4276Z" fill="#211715"/>
<path d="M34.7881 98.2239C34.2077 95.9979 33.625 93.7724 33.0636 91.5416C32.8034 90.5067 32.6124 89.4267 31.8207 88.6445C31.4262 88.2504 30.9307 87.9729 30.3887 87.8422C29.8466 87.7116 29.279 87.733 28.7484 87.904C27.1597 88.4645 26.9559 90.0603 27.3136 91.5136C27.6052 92.7009 29.438 92.1979 29.1454 91.0087C29.0518 90.7039 29.0164 90.3843 29.0409 90.0664C29.0469 89.9735 29.084 89.8853 29.1464 89.8161C29.2563 89.7411 29.3806 89.6897 29.5114 89.6652C29.6422 89.6407 29.7766 89.6436 29.9063 89.6737C30.1114 89.729 30.3006 89.8318 30.4587 89.9738C30.6168 90.1158 30.7393 90.293 30.8162 90.491C30.9615 90.8863 31.0727 91.2932 31.1487 91.7073C31.7338 94.0526 32.3484 96.3902 32.9582 98.7293C33.2664 99.9114 35.0992 99.4098 34.79 98.2239H34.7881Z" fill="#211715"/>
<path d="M25.6396 99.6134C25.9781 100.343 26.4876 100.979 27.1249 101.47C27.7621 101.96 28.5083 102.289 29.3 102.429C30.38 102.608 31.4747 102.722 32.5628 102.841C35.4162 103.154 38.3223 103.471 41.1919 103.162C42.7934 102.99 44.5558 102.488 44.7323 100.622C44.7303 100.37 44.6303 100.13 44.4524 99.9519C44.2746 99.7742 44.034 99.6735 43.7826 99.6718C43.5324 99.677 43.2938 99.7787 43.1168 99.9558C42.9397 100.133 42.838 100.371 42.8328 100.622C42.8232 100.684 42.791 100.74 42.7425 100.78C42.6088 100.892 42.4548 100.977 42.289 101.03C41.7387 101.202 41.1674 101.297 40.5911 101.313C39.3995 101.394 38.2041 101.402 37.0115 101.337C35.7239 101.262 34.4392 101.14 33.1574 101.005C32.5479 100.942 31.939 100.873 31.3308 100.8C31.0775 100.768 30.8253 100.736 30.5742 100.705C30.4745 100.692 30.3743 100.679 30.2745 100.665C30.4379 100.688 30.1976 100.655 30.1458 100.647C29.6495 100.603 29.1644 100.474 28.711 100.267C28.0741 99.8954 27.5727 99.3296 27.28 98.6526C26.7291 97.5602 25.0896 98.5215 25.6396 99.6115V99.6134Z" fill="#211715"/>
<path d="M30.9057 97.7329C30.5467 96.4411 30.1963 95.1469 29.8547 93.8503C29.6989 93.2609 29.545 92.6715 29.3973 92.0802C29.3091 91.579 29.1585 91.0907 28.949 90.6269C28.7538 90.29 28.4893 89.9984 28.173 89.7714C27.8566 89.5444 27.4957 89.3872 27.114 89.3102C26.7323 89.2332 26.3387 89.2381 25.9591 89.3247C25.5795 89.4113 25.2226 89.5775 24.912 89.8124C23.775 90.7475 24.0495 92.4245 24.2633 93.6983C24.5767 95.6182 25.0049 97.5175 25.5456 99.3861C25.8904 100.556 27.7241 100.058 27.3774 98.8813C26.9609 97.4655 26.6451 96.0226 26.3568 94.5765C26.2366 93.9723 26.0903 93.2785 26.0243 92.7242C25.995 92.4799 25.9791 92.2341 25.9768 91.9881C25.9653 91.8053 25.9793 91.6217 26.0186 91.4428C26.0737 91.2913 26.0975 91.2529 26.2518 91.1916C26.4295 91.1427 26.6163 91.1371 26.7966 91.1754C26.9432 91.2062 27.077 91.2808 27.1804 91.3892C27.2838 91.4977 27.3518 91.6349 27.3755 91.7829C27.5878 92.6853 27.821 93.5815 28.058 94.4772C28.3901 95.7336 28.7299 96.9876 29.0772 98.2392C29.404 99.4156 31.2372 98.9159 30.909 97.7343L30.9057 97.7329Z" fill="#211715"/>
<path d="M36.7501 84.2881C36.8007 84.2946 36.8516 84.2981 36.9026 84.2985C36.6794 84.3156 36.7273 84.2677 36.8266 84.29C36.9178 84.3104 37.0085 84.3285 37.0983 84.357C37.1306 84.3674 37.1619 84.3798 37.1932 84.3897C37.3742 84.4467 36.9862 84.2843 37.1538 84.3726C37.2444 84.4183 37.3325 84.4685 37.4179 84.5232C37.4421 84.5389 37.5841 84.6381 37.4445 84.5384C37.3049 84.4386 37.4412 84.5384 37.4649 84.5621C37.5194 84.6273 37.5781 84.6889 37.6406 84.7464L37.5556 84.6348C37.576 84.6623 37.5955 84.6904 37.6145 84.7193C37.6387 84.7554 37.662 84.7925 37.6824 84.8305C37.6983 84.8715 37.7185 84.9106 37.7427 84.9473C37.6839 84.801 37.6729 84.7749 37.709 84.8685C37.719 84.8936 37.7276 84.9198 37.7356 84.9454C37.7655 85.0404 37.7674 85.1582 37.8064 85.2456C37.737 85.0879 37.7907 85.0732 37.7917 85.1682C37.7917 85.2294 37.7974 85.2897 37.7959 85.351C37.7959 85.3952 37.7864 85.4431 37.7893 85.4873C37.7983 85.6122 37.8406 85.237 37.7997 85.4146C37.7779 85.5096 37.7404 85.6008 37.7214 85.6934C37.7689 85.4674 37.7917 85.5391 37.7413 85.6331C37.7276 85.6592 37.7128 85.6854 37.6972 85.7105C37.6739 85.748 37.6459 85.7822 37.6231 85.8198C37.7603 85.5946 37.7328 85.6882 37.6739 85.7438C37.615 85.7993 37.5537 85.8497 37.5005 85.9057C37.5043 85.9019 37.7067 85.7632 37.5884 85.8345C37.5409 85.8644 37.4934 85.8972 37.4407 85.9257C37.359 85.9708 37.1249 86.0387 37.4298 85.9423C37.3595 85.9646 37.2916 85.9941 37.2208 86.0154C37.15 86.0368 37.0783 86.0549 37.0047 86.0701C36.961 86.0791 36.9173 86.0862 36.8731 86.0943C36.7017 86.1261 37.113 86.071 36.9496 86.0834C36.7909 86.0975 36.6315 86.1015 36.4723 86.0952C36.403 86.0914 36.3341 86.0824 36.2652 86.0772C36.629 86.1062 36.2904 86.0772 36.1873 86.0449C36.1451 86.0325 36.1028 86.0121 36.0605 86.0017C35.9418 85.9722 36.2757 86.1152 36.1161 86.0216C36.046 85.9667 35.9694 85.9206 35.8881 85.8844L35.9955 85.9689C35.9674 85.9466 35.9404 85.9238 35.9138 85.9C35.8872 85.8763 35.8492 85.8397 35.8188 85.8074C35.7884 85.7751 35.7604 85.7257 35.729 85.7086C35.8212 85.8318 35.8381 85.8533 35.7798 85.7732C35.7646 85.7514 35.7494 85.729 35.7352 85.7063C35.711 85.6683 35.6877 85.6298 35.6668 85.5899C35.6274 85.5168 35.6008 85.3743 35.6711 85.6203C35.6459 85.532 35.6103 85.4479 35.5894 85.3577C35.5823 85.3277 35.5571 85.1454 35.5766 85.3182C35.596 85.4911 35.5766 85.303 35.5766 85.275C35.5737 85.2171 35.5742 85.1587 35.5766 85.1007L35.5804 85.0418C35.5908 84.9383 35.587 84.963 35.569 85.1159C35.6113 85.0069 35.642 84.8937 35.6606 84.7782C35.6098 85.0048 35.6103 84.8913 35.6564 84.8067C35.6825 84.7592 35.7124 84.716 35.7399 84.6704C35.8383 84.5066 35.587 84.8309 35.7209 84.6965C35.7575 84.6595 35.7912 84.6201 35.8297 84.584C35.8682 84.5479 35.9133 84.5189 35.947 84.4819C35.7822 84.6638 35.8492 84.5574 35.9237 84.5099C36.0102 84.4548 36.1137 84.4206 36.1973 84.3627C36.0102 84.4928 36.0643 84.4163 36.1626 84.3826C36.2101 84.366 36.2605 84.3508 36.3099 84.3351C36.3593 84.3194 36.4091 84.3095 36.459 84.2995C36.4922 84.2924 36.5255 84.2867 36.5587 84.281C36.3973 84.3009 36.3545 84.3068 36.4305 84.2985C36.5369 84.2952 36.6418 84.2838 36.7487 84.2857C36.9999 84.2835 37.2402 84.1827 37.4179 84.005C37.5956 83.8274 37.6963 83.5871 37.6986 83.3358C37.6938 83.0854 37.5922 82.8466 37.4151 82.6694C37.238 82.4923 36.9991 82.3907 36.7487 82.386C36.1316 82.3599 35.5214 82.5243 35.0008 82.8569C34.4803 83.1894 34.0746 83.674 33.8388 84.2449C33.6209 84.8649 33.6263 85.5416 33.8541 86.1581C34.0819 86.7746 34.5177 87.2922 35.0864 87.6217C35.569 87.8636 36.1002 87.9927 36.6399 87.9992C37.1796 88.0057 37.7138 87.8894 38.202 87.6592C38.6716 87.4502 39.0672 87.1044 39.3371 86.667C39.6607 86.09 39.7686 85.4166 39.6415 84.7673C39.5053 84.099 39.1435 83.4978 38.6169 83.0644C38.0903 82.631 37.4307 82.3912 36.7487 82.386C36.4974 82.3878 36.2568 82.489 36.0791 82.6667C35.9014 82.8445 35.8007 83.085 35.7988 83.3363C35.8035 83.5872 35.9052 83.8266 36.0826 84.004C36.26 84.1815 36.4992 84.2833 36.7501 84.2881Z" fill="#211715"/>
<path d="M66.479 93.1137C63.226 92.0009 59.897 91.126 56.517 90.4959C56.274 90.4351 56.017 90.4703 55.8 90.5942C55.582 90.718 55.42 90.9209 55.348 91.1608C55.284 91.4038 55.318 91.6624 55.442 91.8809C55.566 92.0994 55.772 92.2604 56.013 92.3291C59.393 92.9593 62.722 93.8342 65.975 94.947C66.218 95.0116 66.477 94.9781 66.695 94.8537C66.914 94.7293 67.075 94.524 67.143 94.2821C67.205 94.0391 67.171 93.7817 67.047 93.5638C66.923 93.346 66.719 93.1846 66.479 93.1137Z" fill="#211715"/>
<path d="M46.0581 32.6628C46.0521 32.7393 46.0441 32.8153 46.0341 32.8913L46.0681 32.6386C45.9751 33.1612 45.8221 33.6712 45.6111 34.1584C45.5781 34.2806 45.5691 34.4082 45.5851 34.5339C45.6021 34.6595 45.6431 34.7807 45.7061 34.8903C45.7691 34.998 45.8531 35.0922 45.9521 35.1677C46.0521 35.2431 46.1651 35.2982 46.2851 35.3299C46.4061 35.3616 46.5321 35.3692 46.6551 35.3522C46.7791 35.3353 46.8981 35.2942 47.0061 35.2313L47.1981 35.0826C47.3141 34.9664 47.3981 34.8221 47.4421 34.6637C47.5581 34.364 47.6761 34.0648 47.7671 33.7571C47.8671 33.4004 47.9311 33.0344 47.9571 32.6647C47.9561 32.413 47.8561 32.1716 47.6791 31.9931C47.5911 31.9049 47.4861 31.8349 47.3711 31.7871C47.2551 31.7394 47.1321 31.7148 47.0071 31.7148C46.8821 31.7148 46.7591 31.7394 46.6431 31.7871C46.5281 31.8349 46.4231 31.9049 46.3351 31.9931L46.1871 32.1855C46.1021 32.3309 46.0571 32.4963 46.0571 32.6647L46.0581 32.6628Z" fill="#211715"/>
<path d="M58.7903 46.534C59.6983 47.0055 60.7113 47.241 61.7343 47.2188C62.8113 47.2612 63.8703 46.9423 64.7443 46.3131C64.9223 46.135 65.0223 45.8934 65.0223 45.6416C65.0223 45.3897 64.9223 45.1481 64.7443 44.97C64.5633 44.7986 64.3223 44.7031 64.0733 44.7031C63.8233 44.7031 63.5833 44.7986 63.4013 44.97C63.7263 44.7164 63.3663 44.979 63.2623 45.0336C63.1813 45.0764 62.9593 45.1429 63.2493 45.0493C63.1673 45.0754 63.0883 45.1111 63.0073 45.1372C62.9043 45.1704 62.8003 45.1985 62.6943 45.2227C62.5713 45.2361 62.4503 45.2592 62.3303 45.2915C62.3423 45.2607 62.5323 45.2687 62.3233 45.2915C62.2573 45.2977 62.1903 45.3034 62.1243 45.3077C61.9643 45.3181 61.8043 45.3219 61.6433 45.321C61.5003 45.321 61.3563 45.3159 61.2133 45.3058C61.1473 45.301 61.0813 45.2958 61.0163 45.2892C60.9783 45.2858 60.9413 45.2816 60.9043 45.2768C60.8303 45.2679 60.8543 45.2713 60.9773 45.2868C60.7603 45.2771 60.5463 45.2288 60.3463 45.1443C60.2573 45.1182 60.1713 45.0864 60.0843 45.0564C59.8633 44.9809 60.2743 45.1481 60.0743 45.0564C59.9653 45.0052 59.8583 44.952 59.7533 44.8959C59.5353 44.7683 59.2763 44.7321 59.0323 44.7954C58.7893 44.8588 58.5803 45.0164 58.4523 45.2336C58.3243 45.4508 58.2883 45.7099 58.3523 45.9537C58.4153 46.1976 58.5733 46.4063 58.7903 46.534Z" fill="#211715"/>
<path d="M61.1522 39.7312C61.2822 40.2023 61.3862 40.6802 61.4652 41.1627L61.4302 40.9105C61.4402 40.9759 61.4422 41.0422 61.4362 41.1081L61.4702 40.8554C61.4652 40.8856 61.4582 40.9154 61.4482 40.9442L61.5432 40.7172C61.5342 40.7371 61.5242 40.7563 61.5122 40.7747L61.6602 40.5823C61.6462 40.5997 61.6302 40.6156 61.6122 40.6298L61.8052 40.4811C61.7682 40.5038 61.7302 40.5238 61.6912 40.541L61.9182 40.446C61.8572 40.4721 61.7942 40.4908 61.7282 40.5016L61.9812 40.4679C61.9212 40.475 61.8612 40.475 61.8012 40.4679L62.0542 40.5016C61.9872 40.4925 61.9202 40.4759 61.8532 40.4669C61.7302 40.4273 61.5992 40.4213 61.4732 40.4498C61.3472 40.4553 61.2252 40.4941 61.1192 40.5624C61.0122 40.6253 60.9172 40.7089 60.8422 40.8083C60.7672 40.9077 60.7112 41.021 60.6802 41.1418C60.6482 41.2625 60.6412 41.3882 60.6582 41.5119C60.6752 41.6355 60.7162 41.7546 60.7792 41.8623C60.8392 41.9693 60.9212 42.0629 61.0192 42.1374C61.1172 42.212 61.2292 42.2659 61.3482 42.2959C61.5212 42.3192 61.6892 42.3628 61.8652 42.3704C62.1392 42.372 62.4092 42.3068 62.6522 42.1805C62.8092 42.1066 62.9482 41.9989 63.0592 41.8652C63.1702 41.7315 63.2502 41.575 63.2942 41.4068C63.3512 41.1404 63.3482 40.8647 63.2872 40.5994C63.2092 40.1382 63.1022 39.6809 62.9842 39.2287C62.9512 39.1083 62.8942 38.9956 62.8182 38.897C62.7412 38.7984 62.6462 38.7158 62.5372 38.6541C62.4292 38.5923 62.3092 38.5526 62.1852 38.5371C62.0612 38.5216 61.9362 38.5307 61.8152 38.5638C61.5762 38.6305 61.3722 38.7869 61.2452 39.0003C61.1212 39.2231 61.0872 39.485 61.1502 39.7322L61.1522 39.7312Z" fill="#211715"/>
</g>
</svg>
