<svg width="43" height="62" viewBox="0 0 43 62" fill="none" xmlns="http://www.w3.org/2000/svg">
<path d="M0.662842 49.5991L1.01091 49.0846L17.4315 16.0542L17.4663 15.7047L10.2285 1.28888C10.096 1.02527 9.88871 0.812503 9.6359 0.680693C9.38309 0.548883 9.0976 0.504699 8.81981 0.554392C8.54202 0.604085 8.286 0.74514 8.08797 0.9576C7.88993 1.17006 7.75992 1.44317 7.71631 1.73829L0.662842 49.5991Z" fill="#FFC24A"/>
<path d="M0.867493 49.2085L1.12957 48.6658L17.3802 15.9784L10.1609 1.50621C10.0418 1.25452 9.84906 1.05052 9.61148 0.924754C9.3739 0.798992 9.10429 0.758242 8.84303 0.808611C8.58178 0.858979 8.34294 0.997754 8.16232 1.20414C7.98169 1.41054 7.86899 1.67343 7.84111 1.95344L0.867493 49.2085Z" fill="#FFA712"/>
<path d="M22.7424 26.6082L28.1313 20.7464L22.7404 9.84551C22.6217 9.6109 22.4453 9.41481 22.2299 9.27811C22.0144 9.14141 21.7681 9.06921 21.517 9.06921C21.266 9.06921 21.0196 9.14141 20.8042 9.27811C20.5887 9.41481 20.4123 9.6109 20.2937 9.84551L17.4129 15.6683V16.1654L22.7424 26.6082Z" fill="#F4BD62"/>
<path d="M22.6462 26.3695L27.8856 20.6813L22.6462 10.0866C22.5604 9.85726 22.4139 9.65912 22.2244 9.51608C22.0348 9.37303 21.8103 9.29118 21.5779 9.2804C21.3454 9.26961 21.115 9.33035 20.9144 9.45529C20.7138 9.58023 20.5515 9.76404 20.4472 9.98455L17.5521 15.9093L17.4661 16.2111L22.6462 26.3695Z" fill="#FFA50E"/>
<path d="M0.667114 49.6015L0.824768 49.4321L1.39601 49.1868L22.4028 26.9943L22.669 26.2258L17.4296 15.6354L0.667114 49.6015Z" fill="#F6820C"/>
<path d="M23.4141 60.7927L42.4308 49.5488L36.9969 14.0934C36.9579 13.8435 36.8548 13.6098 36.6988 13.4179C36.5427 13.2261 36.3399 13.0835 36.1125 13.0059C35.8851 12.9283 35.6419 12.9186 35.4096 12.9779C35.1773 13.0373 34.965 13.1633 34.7959 13.3422L0.662842 49.5988L19.5669 60.7905C20.1546 61.1383 20.8165 61.3208 21.4895 61.3208C22.1625 61.3208 22.8243 61.1383 23.412 60.7905" fill="#FDE068"/>
<path d="M42.2567 49.4548L36.8678 14.2664C36.8583 14.0274 36.7821 13.7967 36.6489 13.6035C36.5157 13.4104 36.3314 13.2635 36.1194 13.1815C35.9075 13.0994 35.6773 13.0859 35.4581 13.1426C35.2389 13.1993 35.0404 13.3237 34.8879 13.5001L0.867493 49.5308L19.5627 60.6032C20.1458 60.9481 20.8023 61.1291 21.4699 61.1291C22.1376 61.1291 22.7941 60.9481 23.3771 60.6032L42.2567 49.4548Z" fill="#FCCA3F"/>
<path d="M23.4141 60.4536C22.8264 60.8014 22.1646 60.9839 21.4915 60.9839C20.8185 60.9839 20.1567 60.8014 19.569 60.4536L0.818447 49.429L0.662842 49.5984L19.5669 60.7902C20.1546 61.1379 20.8165 61.3205 21.4895 61.3205C22.1625 61.3205 22.8243 61.1379 23.412 60.7902L42.4308 49.5485L42.3837 49.2445L23.4141 60.4536Z" fill="#EEAB37"/>
</svg>
