<svg width="63" height="57" viewBox="0 0 63 57" fill="none" xmlns="http://www.w3.org/2000/svg">
<path d="M0.510742 52.0703V55.7676H62.4892V43.4432L0.510742 52.0703Z" fill="#FFE08F"/>
<path d="M0.510742 39.746V52.0703H52.9541L62.4892 43.4433V39.746H0.510742Z" fill="#FFF3D4"/>
<path d="M15.8352 5.23792V10.1676L43.0784 21.9025L47.1649 21.2595V5.23792H15.8352Z" fill="#164370"/>
<path d="M15.8352 10.1676V21.2594L31.5 23.7244L43.0784 21.9025V10.1676H15.8352Z" fill="#276AAD"/>
<path d="M58.4027 2.15674L55.6783 4.3135L58.4027 6.47025H62.4892V2.15674H58.4027Z" fill="#164370"/>
<path d="M58.4027 2.15674H0.510742V6.47025H58.4027V2.15674Z" fill="#276AAD"/>
<path d="M34.9054 38.5135H28.0946V57H34.9054V38.5135Z" fill="#E26142"/>
<path d="M52.9541 43.4432H62.4892L52.9541 52.0703V43.4432Z" fill="#F5AC51"/>
<path d="M25.0297 13.865C25.594 13.865 26.0514 13.4511 26.0514 12.9406C26.0514 12.4301 25.594 12.0162 25.0297 12.0162C24.4655 12.0162 24.0081 12.4301 24.0081 12.9406C24.0081 13.4511 24.4655 13.865 25.0297 13.865Z" fill="#164370"/>
<path d="M20.9432 17.5622C21.5074 17.5622 21.9648 17.1484 21.9648 16.6379C21.9648 16.1274 21.5074 15.7135 20.9432 15.7135C20.3789 15.7135 19.9215 16.1274 19.9215 16.6379C19.9215 17.1484 20.3789 17.5622 20.9432 17.5622Z" fill="#164370"/>
<path d="M58.4027 0C57.8384 0 57.381 0.413695 57.381 0.924357V23.7244C57.381 27.292 54.1728 30.1946 50.2297 30.1946H46.4838V32.0432H50.2297C55.2997 32.0432 59.4242 28.3114 59.4242 23.7244V0.924357C59.4244 0.413695 58.967 0 58.4027 0Z" fill="#F5AC51"/>
<path d="M2.15564 31.1189V34.8162C2.15564 34.8162 37.4162 34.8162 39.673 34.8162C41.93 34.8162 43.7595 33.161 43.7595 31.1189L22.9576 29.8865L2.15564 31.1189Z" fill="#F5AC51"/>
<path d="M39.673 27.4216C37.4161 27.4216 2.15564 27.4216 2.15564 27.4216V31.119H43.7595C43.7594 29.0769 41.93 27.4216 39.673 27.4216Z" fill="#FFD159"/>
<path d="M45.8027 32.9675C46.9311 32.9675 47.8459 32.1398 47.8459 31.1189C47.8459 30.0979 46.9311 29.2703 45.8027 29.2703C44.6743 29.2703 43.7595 30.0979 43.7595 31.1189C43.7595 32.1398 44.6743 32.9675 45.8027 32.9675Z" fill="#F5AC51"/>
</svg>
