<svg width="50" height="53" viewBox="0 0 50 53" fill="none" xmlns="http://www.w3.org/2000/svg">
<path d="M48.3335 24.2986L27.1545 1.84269C25.9357 0.54918 23.9574 0.54918 22.7369 1.84269L18.3391 6.506L23.918 12.4216C25.2145 11.9572 26.701 12.2687 27.7346 13.3647C28.773 14.4674 29.0646 16.0572 28.616 17.4365L33.9925 23.1377C35.2933 22.6625 36.7942 22.9701 37.8331 24.0734C39.285 25.6124 39.285 28.1069 37.8331 29.647C36.3807 31.1872 34.0282 31.1872 32.5752 29.647C31.4831 28.4878 31.2132 26.7868 31.7662 25.3601L26.7521 20.0433L26.7516 34.0349C27.1055 34.2212 27.4397 34.4689 27.7346 34.7804C29.1865 36.3194 29.1865 38.8139 27.7346 40.3552C26.2821 41.8948 23.9286 41.8948 22.4783 40.3552C21.0264 38.8139 21.0264 36.3194 22.4783 34.7804C22.837 34.4006 23.2521 34.1134 23.695 33.9204V19.7984C23.2521 19.6065 22.8375 19.3209 22.4783 18.9383C21.3782 17.7734 21.1136 16.0617 21.6773 14.6294L16.1783 8.7973L1.65639 24.1947C0.435988 25.4894 0.435988 27.5871 1.65639 28.8806L22.8354 51.3371C24.0548 52.6306 26.0325 52.6306 27.2535 51.3371L48.3335 28.985C49.5533 27.6909 49.5533 25.5921 48.3335 24.2986Z" fill="#DE4C36"/>
</svg>
