<svg width="39" height="62" viewBox="0 0 39 62" fill="none" xmlns="http://www.w3.org/2000/svg">
<path d="M12.9609 47.8816C12.9609 47.8816 11.0068 49.2335 14.3534 49.6896C18.4083 50.2403 20.4804 50.1614 24.9477 49.1574C24.9477 49.1574 26.1246 50.0322 27.7651 50.7905C17.7471 55.8931 5.09338 50.4947 12.9609 47.8816ZM11.7361 41.2219C11.7361 41.2219 9.54385 43.1513 12.8933 43.5636C17.2249 44.0953 20.6448 44.1387 26.5656 42.7839C26.5656 42.7839 27.3826 43.7708 28.6693 44.3098C16.5596 48.5205 3.07167 44.6412 11.7361 41.2219Z" fill="#0074BD"/>
<path d="M22.055 29.9232C24.5247 33.303 21.4073 36.3416 21.4073 36.3416C21.4073 36.3416 27.6745 32.4959 24.7969 27.678C22.1083 23.1871 20.0472 20.9565 31.206 13.2622C31.206 13.2627 13.6898 18.4622 22.055 29.9232Z" fill="#EA2D2E"/>
<path d="M35.3039 52.8081C35.3039 52.8081 36.7505 54.2263 33.7101 55.3223C27.9295 57.4043 9.64554 58.032 4.56749 55.4057C2.74295 54.4612 6.16575 53.1517 7.2426 52.8754C8.36537 52.5864 9.00648 52.639 9.00648 52.639C6.97616 50.9396 -4.11619 55.9773 3.37299 57.4223C23.7955 61.3582 40.6004 55.6498 35.3039 52.8081ZM13.9017 34.3205C13.9017 34.3205 4.60233 36.9468 10.6088 37.9015C13.1454 38.3051 18.1997 38.2125 22.9109 37.7427C26.76 37.3582 30.6226 36.537 30.6226 36.537C30.6226 36.537 29.2666 37.2285 28.2845 38.0248C18.8392 40.9787 0.597034 39.6029 5.8493 36.5833C10.2895 34.03 13.9017 34.3205 13.9017 34.3205ZM30.5841 45.4062C40.1848 39.4767 35.7454 33.7781 32.6468 34.5457C31.8893 34.7333 31.5494 34.8966 31.5494 34.8966C31.5494 34.8966 31.8315 34.3707 32.3693 34.1446C38.4988 31.5835 43.212 41.7 30.3922 45.7069C30.3922 45.706 30.5394 45.5476 30.5841 45.4062Z" fill="#0074BD"/>
<path d="M24.7969 0.836182C24.7969 0.836182 30.1127 7.16003 19.7537 16.8812C11.4463 24.6817 17.8595 29.1283 19.7508 34.2109C14.9011 29.0094 11.3438 24.4297 13.73 20.1679C17.2339 13.9132 26.9412 10.8795 24.7969 0.836182Z" fill="#EA2D2E"/>
<path d="M14.8453 61.4791C24.0586 62.1794 38.2106 61.0892 38.5455 55.9058C38.5455 55.9058 37.9015 57.8708 30.9305 59.4298C23.0658 61.1901 13.3639 60.9849 7.61151 59.8557C7.61151 59.8562 8.79002 61.0161 14.8453 61.4791Z" fill="#0074BD"/>
</svg>
