<svg width="46" height="51" viewBox="0 0 46 51" fill="none" xmlns="http://www.w3.org/2000/svg">
<path d="M45.0393 12.4224C45.5391 13.0745 45.8204 13.8106 45.9324 14.6007C45.971 14.8723 45.9999 15.1539 45.9999 15.4337C45.9989 22.0228 46.0024 28.6119 45.9963 35.2009C45.9951 36.5206 45.6566 37.749 44.7973 38.7834C44.356 39.3145 43.8195 39.7534 43.2109 40.1018C42.1757 40.6945 41.1486 41.301 40.1183 41.9022C39.2523 42.4076 38.3856 42.9119 37.5212 43.42C36.5971 43.963 35.6773 44.5132 34.7522 45.0544C33.8196 45.6 32.8808 46.1349 31.9484 46.6808C30.7994 47.3535 29.6647 48.0507 28.5044 48.7035C27.4645 49.2887 26.4677 49.9483 25.3973 50.4798C24.7026 50.8247 23.9637 50.9987 23.1613 51C22.9922 50.8671 23.0251 50.6918 23.025 50.528C23.0232 47.5735 23.0234 44.619 23.0249 41.6645C23.025 41.463 23.0032 41.2599 23.0589 41.0373C23.1519 40.8627 23.3058 40.8376 23.4547 40.8198C23.9132 40.7648 24.3295 40.5979 24.7236 40.368C28.1592 38.3638 31.5806 36.3357 35.0285 34.3526C36.281 33.6323 36.8408 32.577 36.8395 31.1761C36.8365 28.1301 36.8385 25.084 36.8386 22.0379C36.8386 21.3072 36.8415 20.5765 36.8378 19.8458C36.8342 19.1359 36.7712 18.4376 36.3904 17.8083C36.3677 17.7707 36.3583 17.7264 36.3499 17.6618C36.3748 17.4549 36.5348 17.3945 36.6684 17.3144C38.459 16.2408 40.2637 15.1906 42.0546 14.1174C42.9348 13.5899 43.8262 13.0809 44.7053 12.5516C44.8028 12.4929 44.8962 12.4202 45.0393 12.4224Z" fill="#4285F4"/>
<path d="M45.0482 12.4068C44.2555 12.9053 43.4538 13.39 42.6484 13.8685C40.5725 15.1019 38.495 16.3325 36.4058 17.5778C36.3822 17.5985 36.3709 17.6057 36.3397 17.6102C36.3032 17.6009 36.2833 17.596 36.2731 17.583C35.6843 16.8262 34.8403 16.4189 34.0288 15.9651C30.8112 14.1661 27.598 12.3593 24.3782 10.5641C23.4139 10.0265 22.4098 9.98085 21.4214 10.4899C20.4286 11.0013 19.4833 11.5981 18.5202 12.1625C15.9209 13.6856 13.318 15.2026 10.7185 16.7252C10.1904 17.0345 9.78998 17.4532 9.46199 17.9786C9.30879 18.0433 9.20533 17.958 9.09975 17.9C7.81885 17.1957 6.54352 16.4816 5.26482 15.7734C3.82347 14.9752 2.38676 14.1687 0.942854 13.375C0.806154 13.2998 0.645926 13.2482 0.577026 13.0696C0.828606 12.4687 1.19513 11.9769 1.67721 11.5608C2.52619 10.828 3.55393 10.3789 4.49646 9.79555C5.52745 9.15742 6.58318 8.55847 7.63071 7.94679C8.79083 7.26935 9.95556 6.59968 11.1151 5.92132C12.1247 5.33074 13.1276 4.72907 14.1375 4.13907C15.2822 3.47029 16.4331 2.8119 17.5781 2.14358C18.4238 1.64992 19.2544 1.1297 20.1107 0.655148C20.728 0.313101 21.3997 0.126362 22.1116 0.039135C23.1819 -0.0920048 24.1813 0.111167 25.126 0.577603C25.864 0.941953 26.5718 1.36666 27.2904 1.76917C27.926 2.12516 28.5572 2.48873 29.1915 2.84681C30.2106 3.42205 31.2299 3.99701 32.2506 4.56926C32.992 4.98488 33.737 5.39425 34.4786 5.80944C35.5302 6.3981 36.5796 6.9905 37.631 7.57948C38.3725 7.9949 39.117 8.4053 39.8581 8.82152C40.8785 9.39461 41.8888 9.98593 42.9196 10.5399C43.447 10.8234 43.928 11.1652 44.3541 11.5706C44.6082 11.8125 44.86 12.0762 45.0482 12.4068Z" fill="#3DDC84"/>
<path d="M0.567005 13.0625C1.39781 13.5105 2.21291 13.9742 3.03243 14.4301C5.15262 15.6095 7.27477 16.7854 9.4144 17.9672C9.44017 17.9846 9.44768 17.9977 9.45665 18.0332C9.18171 18.7412 9.15925 19.4601 9.15987 20.1851C9.16328 24.1578 9.16226 28.1305 9.16073 32.1031C9.16045 32.8142 9.35381 33.4408 9.91901 33.9182C10.1241 34.0913 10.364 34.2082 10.5958 34.3374C13.1742 35.7743 15.7463 37.2224 18.3224 38.6634C19.3359 39.2303 20.3474 39.8005 21.3626 40.3643C21.7924 40.603 22.2405 40.7868 22.7385 40.831C22.8522 40.8411 22.969 40.8521 23.1096 40.9287C23.1393 41.1691 23.1335 41.3798 23.1334 41.5906C23.1313 44.7105 23.1299 47.8304 23.1328 50.9745C22.15 51.0125 21.2376 50.7674 20.3789 50.2764C19.068 49.5269 17.7395 48.8079 16.4221 48.0697C15.0047 47.2756 13.5932 46.4711 12.1758 45.677C10.9815 45.008 9.78026 44.3512 8.58599 43.6822C7.16856 42.8882 5.75631 42.085 4.33989 41.2892C3.4699 40.8004 2.58474 40.337 1.72737 39.8275C0.751541 39.2476 0.19899 38.3801 0.0473235 37.2531C-0.0154162 36.7869 0.00371208 36.3231 0.00348517 35.8584C0.000171756 29.0776 -0.00390133 22.2967 0.00770464 15.5159C0.00914825 14.6721 0.15154 13.84 0.567005 13.0625Z" fill="#083042"/>
<path d="M36.3272 17.5822C36.3465 17.5856 36.3701 17.5889 36.3818 17.5901C36.5226 17.8982 36.7116 18.176 36.7972 18.5059C36.8886 18.8588 36.9285 19.2174 36.9293 19.5744C36.9372 23.4849 36.9374 27.3955 36.932 31.3061C36.9307 32.244 36.6605 33.0939 35.9842 33.7798C35.6526 34.1161 35.2355 34.3387 34.8306 34.5752C33.478 35.3655 32.1259 36.1568 30.7734 36.9474C28.7485 38.131 26.723 39.3136 24.6989 40.4985C24.2309 40.7725 23.7214 40.905 23.1642 40.9574C23.1425 40.9583 23.1311 40.96 23.1254 40.9602C23.0373 40.8679 23.0231 40.7561 23.0253 40.639C23.0476 39.4597 22.9334 38.2825 22.9707 37.1029C22.9832 36.7076 23.0269 36.3146 23.0615 35.8981C23.1306 35.7602 23.245 35.7284 23.3578 35.7077C23.6689 35.6506 23.9484 35.5185 24.2169 35.3614C26.5182 34.0155 28.8229 32.6752 31.1196 31.3215C31.8492 30.8915 32.203 30.2621 32.2023 29.4243C32.2001 26.942 32.1973 24.4596 32.2047 21.9773C32.2064 21.4282 32.2053 20.886 31.9479 20.3595C31.9646 20.1964 32.0847 20.1418 32.1844 20.0724C33.434 19.2018 34.7487 18.4341 36.0617 17.6637C36.1375 17.6192 36.2121 17.5678 36.3272 17.5822Z" fill="#3870B2"/>
<path d="M36.3383 17.5713C34.8906 18.4593 33.4191 19.3085 32.011 20.2906C31.9063 20.2998 31.8492 20.2426 31.8001 20.1798C31.5162 19.8166 31.139 19.5762 30.7403 19.355C28.5404 18.1344 26.344 16.9076 24.156 15.6662C23.2811 15.1698 22.4542 15.1616 21.5725 15.6847C19.5468 16.8866 17.5145 18.0779 15.4741 19.2555C15.1451 19.4455 14.8102 19.6296 14.5072 19.862C14.257 20.0539 14.1078 20.3304 13.8875 20.5712C13.7328 20.6109 13.631 20.5299 13.5277 20.4661C12.2564 19.6811 10.9686 18.9242 9.64989 18.2197C9.57181 18.178 9.49533 18.1326 9.44437 18.0332C9.43926 18.0144 9.43501 17.9931 9.43384 17.9824C9.63735 17.4044 10.0573 17.0213 10.5593 16.7252C12.9582 15.3103 15.3603 13.9009 17.7648 12.4955C18.9785 11.7861 20.1828 11.0581 21.4228 10.3965C22.4239 9.86241 23.4526 9.94947 24.4402 10.4993C25.8854 11.3038 27.331 12.1074 28.7737 12.916C30.1932 13.7117 31.6094 14.5131 33.027 15.312C33.8205 15.7593 34.6198 16.1969 35.405 16.6581C35.7819 16.8795 36.071 17.2071 36.3383 17.5713Z" fill="#37BF6E"/>
<path d="M9.42282 18.0245C10.8886 18.7729 12.2976 19.6 13.6858 20.4628C13.7307 20.4907 13.7756 20.5186 13.8373 20.5535C13.9285 20.6373 13.8997 20.7262 13.8766 20.8093C13.8052 21.0669 13.7979 21.3294 13.7981 21.5942C13.7996 24.3748 13.8077 27.1554 13.7924 29.9359C13.789 30.5728 14.0487 31.001 14.5962 31.3073C17.0227 32.6649 19.4481 34.0242 21.8736 35.3836C22.1858 35.5586 22.51 35.6937 22.8703 35.7305C22.95 35.7386 23.0289 35.7528 23.1055 35.8248C23.1108 36.8471 23.0808 37.851 23.106 38.8536C23.1234 39.5399 23.1287 40.2255 23.1242 40.9361C22.4271 40.9557 21.8033 40.7343 21.2076 40.3958C19.8849 39.6443 18.5545 38.9063 17.2273 38.1626C15.8153 37.3713 14.4035 36.5797 12.9914 35.7884C12.0809 35.2782 11.1756 34.7585 10.2578 34.2617C9.48244 33.8419 9.07493 33.1854 9.07143 32.3372C9.05379 28.0588 9.05685 23.7803 9.07205 19.5019C9.07383 19.0014 9.10998 18.4818 9.42282 18.0245Z" fill="#041619"/>
<path d="M23.1401 35.8392C22.3929 35.8793 21.8326 35.4727 21.2468 35.148C19.348 34.0954 17.4483 33.044 15.564 31.9662C15.0402 31.6666 14.4531 31.4519 14.0296 30.9979C13.8189 30.7721 13.6961 30.4994 13.6963 30.1785C13.6983 27.2197 13.6976 24.2609 13.6973 21.3022C13.6972 21.0566 13.7511 20.8235 13.8541 20.5807C14.0829 20.0439 14.4975 19.7166 14.9764 19.441C16.0793 18.8064 17.1743 18.1582 18.2725 17.5156C19.4 16.8558 20.531 16.2018 21.653 15.5329C22.0119 15.3189 22.3957 15.186 22.8032 15.1745C23.2359 15.1624 23.6525 15.2829 24.0343 15.4978C25.7976 16.4904 27.5602 17.4842 29.3244 18.4751C29.8718 18.7825 30.4201 19.0887 30.9746 19.3832C31.3823 19.5998 31.7267 19.8788 31.9852 20.2851C32.2368 20.7055 32.3141 21.1443 32.3129 21.6111C32.3066 24.2178 32.3108 26.8246 32.3094 29.4314C32.3089 30.3029 31.9344 30.9632 31.1723 31.4085C28.8657 32.7563 26.5603 34.1062 24.2568 35.4592C23.9159 35.6594 23.5579 35.7964 23.1401 35.8392Z" fill="#D6F0FF"/>
</svg>
