<svg width="44" height="48" viewBox="0 0 44 48" fill="none" xmlns="http://www.w3.org/2000/svg">
<path d="M43.561 11.2635C43.5769 11.3258 43.5851 11.3901 43.5851 11.4547V21.4913C43.5851 21.7535 43.4528 21.9957 43.2383 22.1261L35.294 26.9762V36.5893C35.294 36.8509 35.1629 37.0924 34.9489 37.2241L18.3658 47.3467C18.3278 47.3696 18.2864 47.3842 18.245 47.3998C18.2295 47.4053 18.2148 47.4153 18.1984 47.4199C18.0825 47.4523 17.9606 47.4523 17.8447 47.4199C17.8257 47.4144 17.8085 47.4035 17.7904 47.3961C17.7524 47.3815 17.7127 47.3687 17.6765 47.3467L1.09679 37.2241C0.882416 37.0935 0.75 36.8514 0.75 36.5893V6.47934C0.75 6.41348 0.758627 6.34944 0.774155 6.28724C0.779331 6.2662 0.791408 6.24699 0.79831 6.22595C0.81125 6.18753 0.823327 6.1482 0.842306 6.11252C0.855246 6.08874 0.874225 6.06953 0.889753 6.04757C0.909594 6.0183 0.92771 5.98812 0.951003 5.9625C0.970844 5.94146 0.996724 5.92591 1.01915 5.90762C1.04417 5.88566 1.0666 5.86188 1.09507 5.8445H1.09593L9.38621 0.783185C9.59984 0.652838 9.86272 0.652838 10.0763 0.783185L18.3666 5.8445H18.3684C18.396 5.8628 18.4193 5.88566 18.4443 5.9067C18.4667 5.925 18.4917 5.94146 18.5116 5.96159C18.5357 5.98812 18.553 6.0183 18.5737 6.04757C18.5883 6.06953 18.6082 6.08874 18.6203 6.11252C18.6401 6.14911 18.6513 6.18753 18.6651 6.22595C18.672 6.24699 18.6841 6.2662 18.6893 6.28815C18.7052 6.35049 18.7133 6.41477 18.7134 6.47934V25.2857L25.6217 21.0678V11.4538C25.6217 11.3897 25.6303 11.3248 25.6459 11.2635C25.6519 11.2415 25.6631 11.2223 25.67 11.2013C25.6838 11.1629 25.6959 11.1235 25.7149 11.0879C25.7278 11.0641 25.7468 11.0449 25.7615 11.0229C25.7822 10.9936 25.7994 10.9634 25.8236 10.9378C25.8434 10.9168 25.8684 10.9012 25.8909 10.8829C25.9167 10.861 25.9392 10.8372 25.9668 10.8198H25.9676L34.2588 5.75851C34.4724 5.62798 34.7353 5.62798 34.9489 5.75851L43.2392 10.8198C43.2685 10.8381 43.291 10.861 43.3168 10.882C43.3384 10.9003 43.3634 10.9168 43.3833 10.9369C43.4074 10.9634 43.4247 10.9936 43.4454 11.0229C43.4609 11.0449 43.4799 11.0641 43.492 11.0879C43.5118 11.1235 43.523 11.1629 43.5368 11.2013C43.5446 11.2223 43.5558 11.2415 43.561 11.2635ZM42.2031 21.0678V12.7216L39.302 14.4926L35.294 16.9395V25.2857L42.204 21.0678H42.2031ZM33.9128 36.1657V27.8141L29.9704 30.2016L18.7126 37.0146V45.445L33.9128 36.1657ZM2.132 7.74627V36.1657L17.3306 45.4441V37.0155L9.39052 32.2506L9.38794 32.2488L9.38449 32.247C9.35774 32.2305 9.33531 32.2067 9.3103 32.1866C9.28873 32.1683 9.26371 32.1536 9.24473 32.1335L9.24301 32.1308C9.22058 32.1079 9.20505 32.0795 9.18607 32.0539C9.16882 32.0292 9.14811 32.0082 9.13431 31.9826L9.13345 31.9798C9.11792 31.9524 9.10843 31.9195 9.09722 31.8884C9.086 31.8609 9.07134 31.8353 9.06444 31.806V31.8051C9.05581 31.7704 9.05408 31.7338 9.05063 31.6981C9.04718 31.6707 9.04028 31.6432 9.04028 31.6158V31.6139V11.9642L5.03317 9.51631L2.132 7.74718V7.74627ZM9.73214 2.26325L2.82473 6.47934L9.73042 10.6954L16.637 6.47842L9.73042 2.26325H9.73214ZM13.3243 28.5751L17.3314 26.1291V7.74627L14.4303 9.51722L10.4223 11.9642V30.347L13.3243 28.5751ZM34.6038 7.23858L27.6973 11.4547L34.6038 15.6708L41.5095 11.4538L34.6038 7.23858ZM33.9128 16.9395L29.9049 14.4926L27.0037 12.7216V21.0678L31.0108 23.5138L33.9128 25.2857V16.9395ZM18.0207 35.7477L28.1511 29.6152L33.2149 26.5508L26.3136 22.3375L18.3675 27.1884L11.1254 31.6094L18.0207 35.7477Z" fill="#FF2D20"/>
</svg>
