<svg width="71" height="71" viewBox="0 0 71 71" fill="none" xmlns="http://www.w3.org/2000/svg">
<circle cx="35.5" cy="35.5" r="35.5" fill="#D4ECF6"/>
<path d="M52.8667 31.4C52.8667 43.6666 36 57.4666 36 57.4666C36 57.4666 19.1334 43.6666 19.1334 31.4C19.1334 22.0467 26.6467 14.5333 36 14.5333C45.3534 14.5333 52.8667 22.0467 52.8667 31.4Z" fill="#43D5D5" stroke="#43D5D5" stroke-width="2" stroke-miterlimit="10" stroke-linecap="round" stroke-linejoin="round"/>
<path d="M36 42.1333C41.9278 42.1333 46.7333 37.3278 46.7333 31.4C46.7333 25.4721 41.9278 20.6666 36 20.6666C30.0721 20.6666 25.2667 25.4721 25.2667 31.4C25.2667 37.3278 30.0721 42.1333 36 42.1333Z" fill="#03A5B2" stroke="#03A5B2" stroke-width="2" stroke-miterlimit="10" stroke-linecap="round" stroke-linejoin="round"/>
<path d="M36 36C38.5405 36 40.6 33.9406 40.6 31.4C40.6 28.8595 38.5405 26.8 36 26.8C33.4595 26.8 31.4 28.8595 31.4 31.4C31.4 33.9406 33.4595 36 36 36Z" fill="#E3FAFF" stroke="#E3FAFF" stroke-width="2" stroke-miterlimit="10" stroke-linecap="round" stroke-linejoin="round"/>
</svg>
