<svg width="43" height="46" viewBox="0 0 43 46" fill="none" xmlns="http://www.w3.org/2000/svg">
<path d="M21.5115 0.379395C9.8264 0.379395 0.355591 10.422 0.355591 22.8125C0.355591 35.2031 9.8264 45.2456 21.5115 45.2456C33.1967 45.2456 42.6675 35.2031 42.6675 22.8125C42.6675 10.422 33.1967 0.379395 21.5115 0.379395ZM31.5536 28.3142C24.32 35.9845 11.3972 33.5374 11.3972 33.5374C11.3972 33.5374 9.06479 19.8607 16.323 12.1643C20.3444 7.90009 27.0086 8.07582 31.2204 12.5176C35.4322 16.9593 35.5767 24.0482 31.5536 28.3142ZM23.9392 13.5271L21.8694 18.0436L17.61 20.2383L21.8694 22.433L23.9392 26.9495L26.0089 22.433L30.2683 20.2383L26.0089 18.0436L23.9392 13.5271Z" fill="black"/>
</svg>
