<svg width="2891" height="583" viewBox="0 0 2891 583" fill="none" xmlns="http://www.w3.org/2000/svg">
<path d="M615.451 292.972L552.286 235.556L455.11 301.806L202.451 398.972L0 583H2891L2523.35 301.806L2442.37 281.194L2409.98 219.361L2273.93 139.861L2212.38 181.083L2086.05 210.528L1954.87 76.5556L1841.49 45.6389L1752.42 0L1652 26.5L1451.17 200.222L1386.38 181.083H1355.61L1268.15 248.806L1203.37 200.222H1115.91L1013.87 76.5556L898.882 191.389H809.804L748.259 248.806L615.451 292.972Z" fill="#F5FAFB"/>
<path d="M208.929 418.111L58.3057 562.389L178.157 497.611L369.27 475.528L432.435 418.111L477.784 344.5L492.361 331.25V307.694L477.784 322.417H432.435L246.18 456.389L307.725 384.25L208.929 418.111Z" fill="white"/>
<path d="M753.117 262.056L628.408 307.694L753.117 378.361L834.098 322.417L885.925 318L975.004 206.111L903.741 338.611L840.576 357.75L811.423 394.556L991.2 475.528H1031.69L1227.66 384.25L1308.64 418.111L1350.75 368.056V331.25L1363.71 318V206.111L1213.09 338.611L1281.11 262.056L1166.12 312.111L1028.45 424L1051.13 384.25L1031.69 357.75L1059.22 318L1038.17 284.139V262.056L1047.89 242.917L991.2 128.083L911.839 206.111H824.38L753.117 262.056Z" fill="white"/>
<path d="M1524.05 262.056L1459.27 217.889L1653.62 45.6389L1747.56 13.25L1760.51 128.083L1859.31 307.694L1809.1 164.889L1779.95 85.3889L1852.83 138.389L1901.42 284.139L1948.39 331.25V418.111L2024.51 524.111L1852.83 457.861L1809.1 344.5L1718.4 200.222L1770.23 338.611L1797.76 434.306L1664.96 378.361L1548.34 284.139L1624.47 217.889L1664.96 92.75L1592.07 206.111L1524.05 262.056Z" fill="white"/>
<path d="M2366.25 443.139L2100.63 232.611L2220.48 186.972L2199.43 242.917L2269.07 178.139L2283.65 294.444L2366.25 443.139Z" fill="white"/>
</svg>
