<svg width="46" height="49" viewBox="0 0 46 49" fill="none" xmlns="http://www.w3.org/2000/svg">
<path d="M45.6998 13.4834V12.0338C45.6571 10.9919 45.6144 9.90472 45.4435 8.86281C45.2726 7.82091 44.9736 6.8243 44.5036 5.87299C44.0337 4.92168 43.4783 4.06097 42.7521 3.33617C42.0258 2.56606 41.2141 1.97716 40.3597 1.47885C39.4625 0.980549 38.5227 0.663455 37.5401 0.482254C36.5575 0.301053 35.5749 0.210449 34.5496 0.210449H11.6083C11.3519 0.210449 11.0956 0.210452 10.882 0.255752C10.1557 0.301053 9.38675 0.346353 8.66049 0.482254C7.93423 0.618155 7.20797 0.844654 6.52443 1.11646C6.31082 1.20706 6.0545 1.34296 5.84089 1.43356C5.15735 1.79597 4.55925 2.24897 3.96115 2.74727C3.79027 2.92847 3.57666 3.10966 3.40578 3.29087C2.67952 4.06097 2.12414 4.92168 1.6542 5.82769C1.18427 6.77899 0.885223 7.7756 0.714338 8.81751C0.543453 9.85942 0.500729 10.9013 0.458008 11.9885V36.3148C0.500729 37.3567 0.543453 38.4439 0.714338 39.4858C0.885223 40.5277 1.18427 41.5243 1.6542 42.4756C2.12414 43.427 2.67952 44.2877 3.40578 45.0125C4.13204 45.7826 4.94374 46.3715 5.79817 46.8698C6.69531 47.3681 7.63518 47.6852 8.61777 47.8664C9.60036 48.0476 10.583 48.1382 11.6083 48.1382H34.5496C35.5322 48.0929 36.5575 48.0476 37.5401 47.8664C38.5227 47.6852 39.4625 47.3681 40.3597 46.8698C41.2568 46.3715 42.0685 45.7826 42.7521 45.0125C43.4783 44.2424 44.0337 43.3817 44.5036 42.4756C44.9736 41.5243 45.2726 40.5277 45.4435 39.4858C45.6144 38.4439 45.6998 37.402 45.6998 36.3148V13.4834Z" fill="#F05138"/>
<path d="M36.2584 29.8372L36.3865 29.2936C38.2663 21.3661 33.6951 11.9436 25.9198 7.00586C29.3375 11.8983 30.8328 17.8326 29.5084 22.9969C29.3803 23.4499 29.2521 23.9029 29.0812 24.3559C28.9103 24.22 28.6967 24.0841 28.3977 23.9482C28.3977 23.9482 20.6651 18.8745 12.2918 9.95038C12.0782 9.72388 16.7775 17.0625 22.0749 22.9969C19.5544 21.502 12.5908 16.1112 8.14781 11.853C8.70319 12.8043 9.34401 13.7556 10.0275 14.6163C13.7016 19.5993 18.5291 25.7149 24.2964 30.4261C20.2379 33.0536 14.5133 33.2801 8.83135 30.4261C7.42155 29.7466 6.09719 28.8859 4.85828 27.9346C7.25067 32.0117 10.9674 35.5451 15.4959 37.6289C20.8787 40.0751 26.2616 39.9392 30.2347 37.6742C30.2347 37.6742 30.2774 37.6742 30.2774 37.6289C30.4483 37.5383 30.6192 37.4024 30.7901 37.3118C32.7125 36.2699 36.472 35.228 38.5226 39.3956C39.1207 40.3469 40.1887 34.9109 36.2584 29.8372Z" fill="#EAF4F5"/>
</svg>
