<svg width="71" height="71" viewBox="0 0 71 71" fill="none" xmlns="http://www.w3.org/2000/svg">
<circle cx="35.5" cy="35.5" r="35.5" fill="#D4ECF6"/>
<path d="M46.6434 24.8813H45.0758V27.2328H46.6434V24.8813Z" fill="#6096BA"/>
<path d="M46.6434 19.3947H45.0758V23.3137H46.6434V19.3947Z" fill="#6096BA"/>
<path d="M45.8596 25.6652C46.7254 25.6652 47.4272 24.9634 47.4272 24.0975C47.4272 23.2318 46.7254 22.5299 45.8596 22.5299C44.9939 22.5299 44.292 23.2318 44.292 24.0975C44.292 24.9634 44.9939 25.6652 45.8596 25.6652Z" fill="#F5DD90"/>
<path d="M29.3995 20.8605V22.53C29.3995 24.2622 30.8026 25.6653 32.5348 25.6653H38.8053C40.5375 25.6653 41.9405 24.2622 41.9405 22.53V20.8605L35.67 22.53L29.3995 20.8605Z" fill="#6096BA"/>
<path d="M35.6701 22.53L23.9129 19.3947L35.6701 13.1243L47.4272 19.3947L35.6701 22.53Z" fill="#274C77"/>
<path d="M26.2643 57.0176V36.6385L35.67 27.2328L45.0758 36.6385V57.0176" fill="#6096BA"/>
<path d="M35.67 42.1252C37.8345 42.1252 39.5891 40.3707 39.5891 38.2062C39.5891 36.0418 37.8345 34.2871 35.67 34.2871C33.5056 34.2871 31.751 36.0418 31.751 38.2062C31.751 40.3707 33.5056 42.1252 35.67 42.1252Z" fill="#FFBC0A"/>
<path d="M19.9938 26.449H12.1557L15.291 28.8004L12.1557 31.1518H19.9938" fill="#F5DD90"/>
<path d="M26.2643 41.3414H17.6424V57.0177H26.2643V41.3414Z" fill="#274C77"/>
<path d="M53.6977 41.3414H45.0758V57.0177H53.6977V41.3414Z" fill="#274C77"/>
<path d="M32.5349 57.0176V50.7471H38.8053V57.0176" fill="#F5DD90"/>
<path d="M45.0758 36.6385H55.2654V41.3414H45.0758" fill="#8B8C89"/>
<path d="M26.2643 41.3414H16.0748V36.6385H26.2643" fill="#8B8C89"/>
<path d="M59.1844 57.0177H12.1557V58.5853H59.1844V57.0177Z" fill="#8B8C89"/>
<path d="M36.4539 50.7471H34.8862V57.0176H36.4539V50.7471Z" fill="#FFBC0A"/>
<path d="M35.67 42.1252C33.5067 42.1252 31.751 40.3695 31.751 38.2062C31.751 36.0428 33.5067 34.2871 35.67 34.2871" fill="#F5DD90"/>
<path d="M21.5615 25.6652H19.9938V36.6385H21.5615V25.6652Z" fill="#6096BA"/>
<path d="M51.3463 26.449H59.1844L56.0492 28.8004L59.1844 31.1518H51.3463" fill="#F5DD90"/>
<path d="M49.7787 36.6385H51.3463V25.6652H49.7787V36.6385Z" fill="#6096BA"/>
</svg>
