<svg width="68" height="66" viewBox="0 0 68 66" fill="none" xmlns="http://www.w3.org/2000/svg">
<path fill-rule="evenodd" clip-rule="evenodd" d="M60.3811 65.9937H7.63116C3.46931 65.9937 0.095459 62.711 0.095459 58.6616V7.3374C0.095459 3.28803 3.46931 0.00537109 7.63116 0.00537109H60.3811C64.5429 0.00537109 67.9167 3.28803 67.9167 7.3374V58.6616C67.9167 62.711 64.5429 65.9937 60.3811 65.9937ZM48.4292 56.8287H58.4934V36.7126C58.4934 28.2012 53.5346 24.0859 46.6083 24.0859C39.6787 24.0859 36.7624 29.3363 36.7624 29.3363V25.0566H27.0633V56.8287H36.7624V40.1503C36.7624 35.6814 38.8767 33.0221 42.9235 33.0221C46.6434 33.0221 48.4292 35.5775 48.4292 40.1503V56.8287ZM9.5114 15.0334C9.5114 18.2711 12.1885 20.8963 15.4922 20.8963C18.796 20.8963 21.4715 18.2711 21.4715 15.0334C21.4715 11.7957 18.796 9.17052 15.4922 9.17052C12.1885 9.17052 9.5114 11.7957 9.5114 15.0334ZM20.5977 56.8287H10.484V25.0566H20.5977V56.8287Z" fill="#03A5B2"/>
</svg>
