<svg width="301" height="191" viewBox="0 0 301 191" fill="none" xmlns="http://www.w3.org/2000/svg">
<path d="M148.401 11.2472C151.88 9.65054 155.402 8.17058 159.239 6.71933C163.463 5.1215 162.369 -0.609963 157.905 0.0531425C93.4014 9.63317 -31.7634 41.2976 7.45622 140.898C48.4378 244.974 168.297 161.036 217.776 120.29C221.178 117.488 218.071 113.112 214.215 115.238L193.857 126.465L249.495 85.4938C249.657 85.3742 248.459 83.5558 248.284 83.6516C242.515 86.8197 237.954 88.4177 234.603 89.206C231.681 89.8935 230.491 86.9671 232.615 84.8327L299.545 17.5436C302.843 14.2264 295.549 4.68656 291.334 6.69427C277.632 13.2199 261.668 19.5446 244.601 23.8388C219.832 30.0708 204.227 33.0731 194.714 34.5118C190.957 35.0802 189.972 31.4197 193.365 29.6965L218.273 17.0454C222.27 15.0153 219.936 8.6035 215.56 9.55988C183.004 16.6769 164.35 18.4818 149.479 17.5583C145.866 17.3341 145.108 12.7583 148.401 11.2472Z" fill="#43D5D5"/>
<path d="M127.988 39.2324C132.529 37.2894 137.078 35.6071 142.551 33.9267C145.437 33.0403 144.877 29.1763 141.875 29.4897C90.3453 34.8705 -20.7449 56.0972 15.0106 138.376C52.2662 224.105 154.665 153.892 192.479 123.891C194.771 122.073 192.752 119.057 190.147 120.379L169.388 130.919L214.601 99.7216C214.738 99.6271 213.801 98.0972 213.652 98.1727C208.305 100.875 204.203 102.015 201.369 102.468C199.382 102.785 198.627 100.735 200.085 99.3388L260.636 41.3177C262.88 39.1657 258.495 33.1908 255.695 34.5272C242.921 40.6226 226.873 46.9414 209.338 50.7253C187.18 55.5066 173.894 57.5075 166.269 58.3298C163.733 58.603 163.137 56.0417 165.453 54.9651L191.512 42.8464C194.223 41.5859 192.811 37.3071 189.878 37.8699C158.641 43.8563 141.97 44.9317 128.6 43.5679C126.176 43.3199 125.747 40.1919 127.988 39.2324Z" fill="#03A5B2"/>
<path d="M45.011 94.9979H64.952C67.1026 95.0382 67.9236 96.2975 67.4154 98.7756L66.0078 105.742C65.8904 106.214 65.695 106.686 65.4212 107.158C64.561 108.417 63.5054 109.047 62.2542 109.047H41.4334L33.633 139.859C33.1638 141.55 31.9908 142.416 30.114 142.455H20.1434C19.6352 142.455 19.1855 142.337 18.7945 142.102C17.7779 141.433 17.4456 140.33 17.7974 138.796L34.9819 71.0337H30.8178C30.505 71.0337 30.2117 71.0148 29.938 70.9745C28.374 70.7 27.9244 69.3023 28.589 66.7838L30.4658 59.3469C30.6222 58.6392 30.7982 58.1078 30.9937 57.7527C31.2674 57.2415 31.8734 56.9858 32.8118 56.9858H41.3748H51.3452H76.3302C78.6371 57.0249 79.5364 58.2841 79.028 60.7635L77.5032 67.7283C77.3859 68.2005 77.1708 68.6727 76.858 69.1449C75.9587 70.4041 74.8444 71.0337 73.515 71.0337H51.052L45.011 94.9979ZM88.588 59.5836C89.0572 57.8912 90.2302 57.0249 92.107 56.9858H102.077C102.546 56.9858 102.997 57.1042 103.426 57.3397C104.482 58.0096 104.815 59.1101 104.423 60.6451L96.623 91.3978L120.26 58.5208C120.572 58.0877 120.924 57.7338 121.314 57.458C121.784 57.1432 122.606 56.9858 123.778 56.9858H135.274C136.212 56.9858 136.916 57.2616 137.385 57.8119C138.089 58.7563 137.854 59.9375 136.682 61.3541L108.294 99.0123L118.03 138.915C118.696 141.196 117.796 142.377 115.332 142.455H106.066C103.798 142.455 102.351 141.472 101.726 139.504L93.456 104.029L84.3652 139.859C83.896 141.55 82.723 142.416 80.8462 142.455H70.8757C70.4065 142.455 69.9569 142.337 69.5268 142.102C68.4711 141.433 68.1387 140.33 68.5297 138.796L88.588 59.5836ZM153.807 96.1199L158.206 95.4714C159.34 95.3128 159.985 95.1957 160.142 95.1163C163.347 94.0145 165.459 92.6571 166.475 91.044C167.452 89.3906 168.098 87.974 168.411 86.7941C169.818 81.5205 170.522 77.1724 170.522 73.7499C170.522 73.1202 170.209 72.5486 169.583 72.0373C169.036 71.5651 168.372 71.2503 167.59 71.0929C167.121 71.0148 165.811 70.9556 163.66 70.9166C162.604 70.9166 161.45 70.9166 160.199 70.9166L153.807 96.1199ZM144.13 70.7982H140.141C139.594 70.7982 139.085 70.6597 138.616 70.3852C137.6 69.7556 137.287 68.791 137.678 67.4928L139.79 59.3469C139.867 59.0321 140.005 58.7173 140.2 58.4025C140.826 57.458 141.588 56.9858 142.487 56.9858H167.472C170.834 56.9858 173.826 57.4971 176.446 58.5208C182.35 60.8819 185.302 65.4856 185.302 72.332C185.302 77.015 184.384 82.0909 182.546 87.561C180.551 93.5033 178.342 97.5567 175.918 99.72C173.298 102.318 170.777 104.246 168.352 105.505L173.103 137.497C173.18 138.126 173.22 138.717 173.22 139.268C173.103 141.393 172.008 142.455 169.936 142.455H160.668C160.278 142.455 159.886 142.377 159.496 142.219C157.853 141.472 156.837 139.583 156.446 136.552L152.927 108.043H150.758L142.722 139.859C142.253 141.55 141.08 142.416 139.203 142.455H129.232C128.724 142.455 128.275 142.337 127.883 142.102C126.867 141.433 126.534 140.33 126.886 138.796L144.13 70.7982Z" fill="white"/>
</svg>
