<svg width="3940" height="902" viewBox="0 0 3940 902" fill="none" xmlns="http://www.w3.org/2000/svg">
<path d="M2036.87 901.12H4648L4437.65 670.104L4309.6 525.194H4174.7L4030.66 336.181L3998.65 317.28L3900.33 172.37L3797.44 273.177L3765.43 283.678L3678.54 367.683L3568.79 273.177L3452.18 172.37L3328.71 243.775L3253.26 262.676L3097.78 415.987C3097.78 415.987 2969.74 331.981 2953.74 325.681C2937.73 319.38 2850.85 178.67 2850.85 178.67L2786.82 117.766L2647.35 231.174L2613.05 283.678L2594.76 367.683L2581.04 392.885L2427.85 552.496L2352.4 451.689L2190.06 655.403L2036.87 901.12Z" fill="#C9DBE2"/>
<path d="M1686.83 481.301L1741.57 398.147L1825.78 494.094L2044.71 634.817L2220.14 901.338H-285L33.5813 494.094L103.753 464.244L131.822 374.693L249.711 259.556L303.042 319.256L412.51 361.9L526.189 167.873L624.43 123.097L701.619 57L788.633 95.379L962.659 346.975L1018.8 319.256H1045.46L1121.25 417.336L1177.39 346.975H1253.17L1341.59 167.873L1441.23 334.182H1518.42L1571.75 417.336L1686.83 481.301Z" fill="#C9DBE2"/>
<path d="M2674 754.438H975L1162.08 489.141H1265.82L1435.89 349.86L1617.86 417.843L1684.19 338.254L1728.41 260.323L1791.34 228.819L1854.26 91.1958L1927.39 0L1986.92 59.6918L2027.73 76.2729L2088.96 114.409L2257.33 213.896L2311.75 349.86L2388.28 417.843L2498.83 489.141L2674 754.438Z" fill="#C9DBE2"/>
</svg>
