<svg width="3940" height="1022" viewBox="0 0 3940 1022" fill="none" xmlns="http://www.w3.org/2000/svg">
<path d="M2136 815.783H-229L-38.4746 592.529L77.4973 452.488H199.682L330.151 269.825L359.144 251.559L448.193 111.518L541.385 208.938L570.378 219.086L649.073 300.269L748.478 208.938L854.095 111.518L965.926 180.524L1034.27 198.79L1175.09 346.949C1175.09 346.949 1291.06 265.766 1305.56 259.677C1320.05 253.589 1398.75 117.607 1398.75 117.607L1456.74 58.7487L1583.06 168.346L1614.13 219.086L1630.69 300.269L1643.12 324.624L1781.87 478.872L1850.21 381.452L1997.25 578.322L2136 815.783Z" fill="#749697"/>
<path d="M-59.1839 643.268L-191.723 791.428L-100.602 738.659L-59.1839 643.268Z" fill="#9DBBBB"/>
<path d="M-11.5525 616.884L79.5684 476.842H120.987L137.554 482.931H183.115L201.753 476.842L381.924 257.648L456.477 166.316V275.914L562.095 476.842V576.292H549.669L419.201 655.446L371.569 728.511L332.222 671.682V594.558L404.704 320.565L332.222 521.493L268.023 641.239H230.746L201.753 671.682L154.122 679.801L216.25 515.404L94.0648 655.446L-11.5525 696.037V616.884Z" fill="#9DBBBB"/>
<path d="M731.911 257.648L655.286 314.476L773.329 452.487L804.393 430.162H837.528L847.883 415.955H883.089L889.301 401.748H951.429L943.146 365.215L914.152 351.008V282.003L878.947 253.588L847.883 188.642L804.393 237.352L829.244 267.796L804.393 332.742L814.748 275.914L789.897 249.529V219.086C789.897 215.838 828.554 173.082 847.883 152.109L825.103 158.198L731.911 257.648Z" fill="#9DBBBB"/>
<path d="M926.578 415.955L783.684 470.754L789.897 503.227L874.805 586.44L990.777 698.067L905.869 586.44L951.429 519.464L1021.84 515.404L1117.1 424.073L1069.47 430.162L1003.2 460.606L926.578 415.955Z" fill="#9DBBBB"/>
<path d="M1096.39 515.404L990.777 627.031L992.848 635.15H1030.12V627.031L1069.47 612.824H1115.03L1125.39 602.677L1166.81 570.203L1193.73 553.967L1237.22 503.227L1260 438.28L1276.56 424.073L1280.71 405.807L1309.7 363.186L1297.27 397.689V440.31L1280.71 446.399V568.174L1293.13 586.44L1303.49 627.031L1373.9 687.919L1421.53 710.244L1485.73 722.422L1456.74 663.564V643.268L1491.94 604.706V551.937L1485.73 521.493V478.872L1471.23 470.754L1456.74 415.955V383.482L1440.17 369.275V338.831L1450.52 326.653V302.298L1465.02 282.003V180.524L1440.17 125.725L1433.96 172.405L1421.53 180.524V219.086L1361.47 302.298L1359.4 389.57L1342.83 397.689L1338.69 478.872L1334.55 391.6L1344.91 383.482V296.21L1402.89 219.086L1411.18 131.814L1313.84 275.914L1243.43 314.476L1177.16 373.334L1096.39 515.404Z" fill="#9DBBBB"/>
<path d="M1723.89 596.588L1589.28 710.244H1624.48L1684.54 677.771L1748.74 620.943L1800.51 549.907L1763.23 620.943L1670.04 710.244H1715.6L1744.59 687.919L1794.3 681.83L1844 643.268L1893.7 669.653V659.505V596.588L1864.71 558.026L1860.57 478.872L1827.43 458.576L1723.89 596.588Z" fill="#9DBBBB"/>
<path d="M2453.04 410.069L2403.46 329.709L2327.19 422.432L2128.89 558.427L1970 815.993H4239L3950.45 422.432L3886.89 393.585L3861.47 307.043L3754.69 195.774L3706.39 253.469L3607.24 294.68L3504.28 107.172L3415.3 63.9006L3345.38 0.024292L3266.57 37.1138L3108.95 280.256L3058.1 253.469H3033.95L2965.31 348.253L2914.46 280.256H2845.82L2765.74 107.172L2675.49 267.893H2605.57L2557.27 348.253L2453.04 410.069Z" fill="#749697"/>
<path d="M2133.98 585.214L2015.76 787.146L2109.83 696.482L2259.82 665.574L2309.4 585.214L2344.99 482.188L2356.43 463.643V430.674L2344.99 451.28H2309.4L2163.21 638.788L2211.52 537.822L2133.98 585.214Z" fill="#9DBBBB"/>
<path d="M2561.08 366.798L2463.21 430.674L2561.08 529.58L2624.64 451.28L2665.32 445.098L2735.23 288.498L2679.3 473.945L2629.73 500.732L2606.85 552.245L2747.94 665.574H2779.72L2933.53 537.822L2997.09 585.214L3030.14 515.156V463.643L3040.31 445.098V288.498L2922.09 473.945L2975.48 366.798L2885.23 436.856L2777.18 593.456L2794.98 537.822L2779.72 500.732L2801.33 445.098L2784.81 397.706V366.798L2792.43 340.011L2747.94 179.29L2685.66 288.498H2617.01L2561.08 366.798Z" fill="#9DBBBB"/>
<path d="M3166.15 366.798L3115.3 304.982L3267.84 63.9006L3341.57 18.569L3351.74 179.29L3429.28 430.674L3389.87 230.803L3366.99 119.535L3424.19 193.714L3462.33 397.706L3499.19 463.643V585.214L3558.94 733.572L3424.19 640.848L3389.87 482.188L3318.69 280.256L3359.37 473.945L3380.97 607.88L3276.74 529.58L3185.22 397.706L3244.96 304.982L3276.74 129.837L3219.54 288.498L3166.15 366.798Z" fill="#9DBBBB"/>
<path d="M3827.15 620.243L3618.68 325.587L3712.74 261.711L3696.22 340.011L3750.88 249.348L3762.32 412.13L3827.15 620.243Z" fill="#9DBBBB"/>
<rect x="-33" y="791" width="3967" height="231" fill="url(#paint0_linear_76_4806)"/>
<defs>
<linearGradient id="paint0_linear_76_4806" x1="1950.5" y1="791" x2="1950.5" y2="1022" gradientUnits="userSpaceOnUse">
<stop stop-color="#749697"/>
<stop offset="1" stop-color="#8E9E9F"/>
</linearGradient>
</defs>
</svg>
